<?xml version="1.0" encoding="utf-8"?>
<!-- Generator: Adobe Illustrator 22.1.0, SVG Export Plug-In . SVG Version: 6.00 Build 0)  -->
<svg version="1.1" id="Layer_1" xmlns="http://www.w3.org/2000/svg" xmlns:xlink="http://www.w3.org/1999/xlink" x="0px" y="0px"
	 viewBox="0 0 401.3 89.9" style="enable-background:new 0 0 401.3 89.9;" xml:space="preserve">
<style type="text/css">
	.st0{fill:#008469;}
	.st1{fill:#4B4E51;}
</style>
<g>
	<path class="st0" d="M51,17l6-10c0,0-7.5-7-25-7C8.5,0,5,10.5,5,20c0,4.5,2,11.9,10,15c11.5,4.5,24.5,2.5,28.5,4.5
		c6,3,3.5,10.6-3,12C21.5,55.5,10,44,10,44L0,53c0,0,13,12.5,29,12c19.8-0.6,28-8,28-8V31c0,0-2.5-2.5-9-4c-7.1-1.6-20.8-0.6-25-2
		c-4.5-1.5-5.5-9.5,0-12C35.1,7.5,51,17,51,17z"/>
	<path class="st0" d="M82.3,0.5c-21,0-27.5,8.7-27.5,8.7l8.5,8.7c0,0,5.2-5.8,17-5.7c5.7,0.1,9.3,1.2,11.5,2.3
		c1.9,1,3.2,2.9,3.2,5.1l0.1,6.7c0,0-17.7-1.8-28.4,0.5C57.6,28.7,57,31,57,31v26c0,0,4.3,7.7,16.7,7.6c12.4-0.1,21.3-6.3,21.3-6.3
		v6.3h12.7V9.4C107.6,9.4,99.9,0.5,82.3,0.5z M91.1,50.4c-2.8,1.9-6.4,3-12.3,3c-8.9,0-14.1-2.4-14.1-7.8c0-12,29.9-8,29.9-8
		S95.9,47.1,91.1,50.4z"/>
	<path class="st0" d="M127.2,0c-16,0-28.9,14.5-28.9,32.3c0,17.8,12.9,32.3,28.9,32.3c16,0,28.9-14.5,28.9-32.3
		C156.1,14.5,143.1,0,127.2,0z M130.7,52.3c-9,0-16.3-9-16.3-20s7.3-20,16.3-20c9,0,16.3,9,16.3,20S139.7,52.3,130.7,52.3z"/>
	<polygon class="st0" points="159.7,26.3 159.7,38.8 211.7,38.8 207.1,26.3 	"/>
	<path class="st0" d="M147,0.5v59.3c0,4.9-1.8,9.6-5.2,13c-2.3,2.3-5.5,4.2-9.6,4.1c-10.4-0.3-16.8-6.2-16.8-6.2L103.9,79
		c0,0,10,10.9,27.3,10.9c15.6,0,22.7-8.4,25.9-15.5c1.8-4,2.6-8.3,2.6-12.7V0.5H147z"/>
	<path class="st0" d="M200,45.5c-3.8,4.8-10.8,6.8-16.7,6.8c-9.8,0-17.8-9-17.8-20s8-20,17.8-20c9.8,0,17.8,9,17.8,20
		c0,2.3-0.4,4.5-1,6.5h11.6c0.4-2.1,0.6-4.3,0.6-6.5c0-17.8-13.9-32.3-31.1-32.3s-31.1,14.5-31.1,32.3c0,17.8,13.9,31.5,31.1,32.3
		c11.1,0.5,22.9-3.4,28.5-11.8L200,45.5z"/>
	<rect x="227.5" y="0.5" class="st1" width="9" height="87.5"/>
	<polygon class="st1" points="344.1,0 368.2,67.1 376.6,64 353.6,0 	"/>
	<path class="st1" d="M391.7,0l-26,72.5c-1.3,3.5-4.6,5.8-8.3,5.8h-6.9v9h8.6c6.5,0,12.4-4.1,14.6-10.3L401.3,0H391.7z"/>
	<path class="st1" d="M343,49.1V16.3c0-5.5-2.6-10.7-7.3-13.7c-3.5-2.3-8.8-4.1-16.4-4.1c-27.8,0-26.8,20.7-26.8,20.7h8.3
		c0,0-0.5-13.8,16.3-13.8c5.6,0,9.3,1,11.9,2.2c3.1,1.5,5,4.7,5,8.1v36.7c0,6.7,5.5,12.2,12.2,12.2l3.3,0v-9
		C345.9,55.6,343,52.7,343,49.1z"/>
	<path class="st1" d="M334.9,44.3c0,0-5.8,15.3-22,15.3c-7.1,0-14.2-2.9-14.2-12.8c0-15.4,27.5-13.8,31.7-14.7
		c2.3-0.5,3.7-2,4.5-3.2l-0.3-8.5c0,0-0.5,5.4-9,5.5s-35.5,0.8-35.5,20.9c0,16.3,14.1,19.3,22.2,19.3c18.9,0,23.4-14.6,23.4-14.6
		l-0.5-13.9L334.9,44.3z"/>
	<path class="st1" d="M258.4-1.5c-9.5,0-17.9,5.3-23.2,13.4v9.2c4-9.5,11.8-15.8,20.1-15.8c13.1,0,23.5,11.6,23.5,27
		c0,15.3-9,27.7-22.2,27.7c-8.3,0-17.2-9.5-21.5-17v9.7c5.3,8.2,13.7,13.4,23.2,13.4c17.6,0,29.1-15.2,29.1-33.9
		C287.5,13.7,274.5-1.5,258.4-1.5z"/>
</g>
</svg>
