<?xml version="1.0" standalone="no"?>
<!DOCTYPE svg PUBLIC "-//W3C//DTD SVG 1.1//EN">
<svg xmlns="http://www.w3.org/2000/svg" xmlns:xlink="http://www.w3.org/1999/xlink" version="1.1">
<metadata>
Created by FontForge 20170910 at Fri May  5 13:19:02 2017
 By Jimmy Wärting
Copyright (c) 2015, Cadson Demak (info@cadsondemak.com)
</metadata>
<defs>
<font id="Taviraj-Italic" horiz-adv-x="0" >
  <font-face 
    font-family="Taviraj"
    font-weight="400"
    font-style="italic"
    font-stretch="normal"
    units-per-em="1000"
    panose-1="0 0 5 0 0 0 0 0 0 0"
    ascent="750"
    descent="-250"
    x-height="470"
    cap-height="700"
    bbox="-508 -489 1247 1131"
    underline-thickness="50"
    underline-position="-100"
    slope="-12"
    unicode-range="U+000D-FB02"
  />
<missing-glyph horiz-adv-x="568" 
d="M44 714h402v-714h-402v714zM410 34v645h-331v-645h331z" />
    <glyph glyph-name="fi" unicode="fi" horiz-adv-x="650" 
d="M156 431h-86l8 39h86l17 81q17 88 79 129.5t181 41.5q86 0 137.5 -23.5t51.5 -68.5q0 -32 -17.5 -49t-42.5 -17q-36 0 -36 22q0 14 6.5 25t7.5 15t1 10q0 28 -31.5 38t-83.5 10q-61 0 -104 -25.5t-54 -77.5l-23 -111h314l17 5h24l-85 -417q-2 -10 -2 -13q0 -18 19 -18
q14 0 36 8l-4 -18q-17 -13 -40 -20t-45 -7q-25 0 -42 10t-17 31q0 7 1 11l80 389h-263l-117 -575l-92 -7z" />
    <glyph glyph-name="fl" unicode="fl" horiz-adv-x="656" 
d="M156 431h-86l8 39h86l16 79q19 88 65.5 130.5t136.5 42.5q78 0 148 -33l105 28h25l-135 -659l-2 -13q0 -18 18 -18q15 0 37 8l-4 -18q-17 -13 -40.5 -20t-44.5 -7q-25 0 -42 10t-17 31q0 7 1 11l118 578q-4 9 -22.5 23.5t-49 26t-69.5 11.5q-65 0 -94.5 -30.5
t-43.5 -101.5l-17 -79h138l-8 -39h-137l-117 -575l-92 -7z" />
    <glyph glyph-name="ru_lakkhangyaothai" unicode="&#xe24;&#xe45;" horiz-adv-x="876" 
d="M819 533.5q44 -29.5 44 -92.5q0 -25 -5 -46l-120 -591h-91l121 594q4 20 4 40q0 82 -90 82q-44 0 -80.5 -26.5t-56.5 -77.5q0 -21 -4 -37l-117 -575h-91l121 592q2 8 2 23q0 44 -34 72.5t-96 28.5q-60 0 -118 -37t-81 -102h134l-7 -35q-45 -21 -67 -48t-32 -76l-12 -54
q18 11 43 11t46.5 -17t21.5 -52q0 -53 -36.5 -86.5t-85.5 -33.5q-95 0 -95 86q0 21 4 41l20 98q9 43 36 78.5t74 54.5h-103q20 72 65 120.5t101.5 71.5t114.5 23q63 0 109 -18.5t68 -54.5q33 35 78 54t93 19q78 0 122 -29.5zM119.5 125.5q-22.5 -23.5 -22.5 -55.5
q0 -21 12.5 -34t36.5 -13q30 0 51.5 23.5t21.5 54.5q0 21 -13 34.5t-34 13.5q-30 0 -52.5 -23.5z" />
    <glyph glyph-name="lu_lakkhangyaothai" unicode="&#xe26;&#xe45;" horiz-adv-x="915" 
d="M859 533.5q44 -29.5 44 -92.5q0 -25 -5 -46l-120 -591h-91l121 594q5 25 5 41q0 41 -23.5 61t-67.5 20q-43 0 -79 -25.5t-56 -75.5q0 -21 -4 -40l-117 -575h-92l121 592q2 8 2 23q0 44 -33.5 72.5t-95.5 28.5q-61 0 -119 -37t-82 -102h157l-7 -35q-43 -20 -64 -52
t-32 -88l-21 -103q-11 -54 -47.5 -83.5t-92.5 -29.5q-37 0 -60.5 20t-23.5 54q0 11 3 23q9 46 42 69t63 23q24 0 38 -11l11 55q19 92 101 125h-125q21 72 66 120.5t102 71.5t115 23q60 0 106 -18t69 -53q32 34 76.5 52.5t93.5 18.5q78 0 122 -29.5zM113 46q21 23 21 55
q0 21 -13.5 34.5t-35.5 13.5q-28 0 -50 -23t-22 -54q0 -22 12 -35.5t35 -13.5q32 0 53 23z" />
    <glyph glyph-name=".notdef" horiz-adv-x="568" 
d="M44 714h402v-714h-402v714zM410 34v645h-331v-645h331z" />
    <glyph glyph-name=".null" horiz-adv-x="477" 
 />
    <glyph glyph-name="nonmarkingreturn" unicode="&#xd;" horiz-adv-x="248" 
 />
    <glyph glyph-name="space" unicode=" " horiz-adv-x="248" 
 />
    <glyph glyph-name="A" unicode="A" horiz-adv-x="704" 
d="M665 26l-5 -26h-242l4 26h17q27 0 41 12.5t11 34.5l-20 137h-269l-77 -137q-5 -9 -5 -18q0 -14 12 -21.5t29 -7.5h18l-5 -26h-208l5 26h15q19 0 41 10t32 26l354 622l76 30l106 -653q4 -16 19 -25.5t34 -9.5h17zM465 250l-49 341l-192 -341h241z" />
    <glyph glyph-name="Aacute" unicode="&#xc1;" horiz-adv-x="704" 
d="M397 782l-11 25l132 107q14 11 24 17t23 6q16 0 22.5 -9t3.5 -21q-4 -24 -41 -42zM665 26l-5 -26h-242l4 26h17q27 0 41 12.5t11 34.5l-20 137h-269l-77 -137q-5 -9 -5 -18q0 -14 12 -21.5t29 -7.5h18l-5 -26h-208l5 26h15q19 0 41 10t32 26l354 622l76 30l106 -653
q4 -16 19 -25.5t34 -9.5h17zM465 250l-49 341l-192 -341h241z" />
    <glyph glyph-name="Abreve" unicode="&#x102;" horiz-adv-x="704" 
d="M354 879q0 8 2 28h32q-4 -43 20.5 -64t71.5 -21t80 21t45 64h31q-15 -60 -56 -95.5t-109 -35.5q-117 0 -117 103zM665 26l-5 -26h-242l4 26h17q27 0 41 12.5t11 34.5l-20 137h-269l-77 -137q-5 -9 -5 -18q0 -14 12 -21.5t29 -7.5h18l-5 -26h-208l5 26h15q19 0 41 10
t32 26l354 622l76 30l106 -653q4 -16 19 -25.5t34 -9.5h17zM465 250l-49 341l-192 -341h241z" />
    <glyph glyph-name="uni1EAE" unicode="&#x1eae;" horiz-adv-x="704" 
d="M473 898l-12 22l110 93q14 12 26 19t24 7t19.5 -8t7.5 -18q0 -27 -44 -48zM355 876q0 15 3 33h31q-1 -5 -1 -13q0 -36 24.5 -53.5t67.5 -17.5q48 0 80.5 21t45.5 63h30q-14 -60 -55.5 -95.5t-110.5 -35.5q-115 0 -115 98zM665 26l-5 -26h-242l4 26h17q27 0 41 12.5
t11 34.5l-20 137h-269l-77 -137q-5 -9 -5 -18q0 -14 12 -21.5t29 -7.5h18l-5 -26h-208l5 26h15q19 0 41 10t32 26l354 622l76 30l106 -653q4 -16 19 -25.5t34 -9.5h17zM465 250l-49 341l-192 -341h241z" />
    <glyph glyph-name="uni1EB6" unicode="&#x1eb6;" horiz-adv-x="704" 
d="M354 881q0 8 2 28h32q-4 -43 20.5 -64t71.5 -21t80 21t45 64h31q-15 -60 -56 -95.5t-109 -35.5q-117 0 -117 103zM665 26l-5 -26h-242l4 26h17q27 0 41 12.5t11 34.5l-20 137h-269l-77 -137q-5 -9 -5 -18q0 -14 12 -21.5t29 -7.5h18l-5 -26h-208l5 26h15q19 0 41 10
t32 26l354 622l76 30l106 -653q4 -16 19 -25.5t34 -9.5h17zM465 250l-49 341l-192 -341h241zM325.5 -73.5q9.5 -9.5 9.5 -26.5q0 -25 -16 -42t-39 -17q-17 0 -26.5 9.5t-9.5 25.5q0 25 16.5 42.5t39.5 17.5q16 0 25.5 -9.5z" />
    <glyph glyph-name="uni1EB0" unicode="&#x1eb0;" horiz-adv-x="704" 
d="M385 984.5q-7 11.5 -4 22.5q3 12 12.5 21.5t25.5 9.5q20 0 39 -26l73 -92l-21 -23l-104 67q-14 9 -21 20.5zM355 876q0 15 3 33h31q-1 -5 -1 -13q0 -36 24.5 -53.5t67.5 -17.5q47 0 80 21t46 63h30q-14 -60 -55.5 -95.5t-110.5 -35.5q-115 0 -115 98zM665 26l-5 -26h-242
l4 26h17q27 0 41 12.5t11 34.5l-20 137h-269l-77 -137q-5 -9 -5 -18q0 -14 12 -21.5t29 -7.5h18l-5 -26h-208l5 26h15q19 0 41 10t32 26l354 622l76 30l106 -653q4 -16 19 -25.5t34 -9.5h17zM465 250l-49 341l-192 -341h241z" />
    <glyph glyph-name="uni1EB2" unicode="&#x1eb2;" horiz-adv-x="704" 
d="M449 1009q-5 6 -4 15q5 21 29.5 31t52.5 10q30 0 50.5 -11t20.5 -33q0 -21 -15 -34t-42 -27q-20 -11 -28.5 -17.5t-9.5 -14.5q-2 -10 3 -16t19 -12l-12 -18q-27 0 -39.5 9.5t-12.5 24.5q0 7 1 11q2 13 12.5 22.5t31.5 21.5q21 13 32.5 24t11.5 26q0 9 -6 15t-18 6
q-15 0 -22.5 -5.5t-16.5 -16.5q-6 -8 -11 -12.5t-14 -4.5q-8 0 -13 6zM355 876q0 15 3 33h31q-1 -5 -1 -13q0 -36 24.5 -53.5t67.5 -17.5q48 0 80.5 21t45.5 63h30q-14 -60 -55.5 -95.5t-110.5 -35.5q-115 0 -115 98zM665 26l-5 -26h-242l4 26h17q27 0 41 12.5t11 34.5
l-20 137h-269l-77 -137q-5 -9 -5 -18q0 -14 12 -21.5t29 -7.5h18l-5 -26h-208l5 26h15q19 0 41 10t32 26l354 622l76 30l106 -653q4 -16 19 -25.5t34 -9.5h17zM465 250l-49 341l-192 -341h241z" />
    <glyph glyph-name="uni1EB4" unicode="&#x1eb4;" horiz-adv-x="704" 
d="M403.5 1008q-17.5 -15 -32.5 -45l-17 12q16 41 45 68t64 27q16 0 30 -7t35 -20q22 -13 35 -19.5t28 -6.5q23 0 39 15.5t32 47.5l19 -12q-18 -43 -46.5 -71t-64.5 -28q-15 0 -28 6.5t-35 20.5q-19 13 -33.5 20t-30.5 7q-22 0 -39.5 -15zM389 909q-1 -5 -1 -13
q0 -36 24.5 -53.5t67.5 -17.5q48 0 80.5 21t45.5 63h30q-14 -60 -55.5 -95.5t-110.5 -35.5q-115 0 -115 98q0 15 3 33h31zM614 35.5q15 -9.5 34 -9.5h17l-5 -26h-242l4 26h17q27 0 41 12.5t11 34.5l-20 137h-269l-77 -137q-5 -9 -5 -18q0 -14 12 -21.5t29 -7.5h18l-5 -26
h-208l5 26h15q19 0 41 10t32 26l354 622l76 30l106 -653q4 -16 19 -25.5zM465 250l-49 341l-192 -341h241z" />
    <glyph glyph-name="uni01CD" unicode="&#x1cd;" horiz-adv-x="704" 
d="M446 782l-92 129l22 21l87 -85q11 -11 20 -11t25 11l121 85l13 -21l-145 -129h-51zM665 26l-5 -26h-242l4 26h17q27 0 41 12.5t11 34.5l-20 137h-269l-77 -137q-5 -9 -5 -18q0 -14 12 -21.5t29 -7.5h18l-5 -26h-208l5 26h15q19 0 41 10t32 26l354 622l76 30l106 -653
q4 -16 19 -25.5t34 -9.5h17zM465 250l-49 341l-192 -341h241z" />
    <glyph glyph-name="Acircumflex" unicode="&#xc2;" horiz-adv-x="704" 
d="M347 782l-15 21l145 129h51l92 -129l-22 -21l-86 86q-15 11 -20 11q-10 0 -25 -11zM665 26l-5 -26h-242l4 26h17q27 0 41 12.5t11 34.5l-20 137h-269l-77 -137q-5 -9 -5 -18q0 -14 12 -21.5t29 -7.5h18l-5 -26h-208l5 26h15q19 0 41 10t32 26l354 622l76 30l106 -653
q4 -16 19 -25.5t34 -9.5h17zM465 250l-49 341l-192 -341h241z" />
    <glyph glyph-name="uni1EA4" unicode="&#x1ea4;" horiz-adv-x="704" 
d="M776 1024.5q7 -9.5 4 -21.5q-1 -11 -13 -22.5t-30 -20.5l-130 -67l-13 22l111 93q29 26 49 26q15 0 22 -9.5zM350 781l-13 22l144 129h49l89 -129l-21 -22l-84 86q-15 11 -21 11q-9 0 -29 -16zM614 35.5q15 -9.5 34 -9.5h17l-5 -26h-242l4 26h17q27 0 41 12.5t11 34.5
l-20 137h-269l-77 -137q-5 -9 -5 -18q0 -14 12 -21.5t29 -7.5h18l-5 -26h-208l5 26h15q19 0 41 10t32 26l354 622l76 30l106 -653q4 -16 19 -25.5zM465 250l-49 341l-192 -341h241z" />
    <glyph glyph-name="uni1EAC" unicode="&#x1eac;" horiz-adv-x="704" 
d="M348 781l-15 21l145 129h51l92 -129l-22 -21l-86 86q-15 11 -21 11q-4 0 -11 -3t-13 -8zM665 26l-5 -26h-242l4 26h17q27 0 41 12.5t11 34.5l-20 137h-269l-77 -137q-5 -9 -5 -18q0 -14 12 -21.5t29 -7.5h18l-5 -26h-208l5 26h15q19 0 41 10t32 26l354 622l76 30
l106 -653q4 -16 19 -25.5t34 -9.5h17zM465 250l-49 341l-192 -341h241zM328.5 -73.5q9.5 -9.5 9.5 -26.5q0 -25 -16 -42t-39 -17q-17 0 -26.5 9.5t-9.5 25.5q0 25 16 42.5t39 17.5q17 0 26.5 -9.5z" />
    <glyph glyph-name="uni1EA6" unicode="&#x1ea6;" horiz-adv-x="704" 
d="M270 977q-7 10 -7 20q0 13 10.5 25t27.5 12q13 0 22.5 -7.5t18.5 -18.5l72 -93l-21 -22l-103 67q-13 7 -20 17zM337 803l144 129h49l89 -129l-21 -22l-84 86q-15 11 -21 11q-9 0 -29 -16l-114 -81zM665 26l-5 -26h-242l4 26h17q27 0 41 12.5t11 34.5l-20 137h-269
l-77 -137q-5 -9 -5 -18q0 -14 12 -21.5t29 -7.5h18l-5 -26h-208l5 26h15q19 0 41 10t32 26l354 622l76 30l106 -653q4 -16 19 -25.5t34 -9.5h17zM465 250l-49 341l-192 -341h241z" />
    <glyph glyph-name="uni1EA8" unicode="&#x1ea8;" horiz-adv-x="704" 
d="M717 1052q20 -11 20 -32q0 -6 -1 -10q-3 -17 -17 -28t-39 -25q-18 -9 -27 -16t-11 -15q-2 -10 3.5 -16t18.5 -12l-11 -18q-27 0 -39.5 9.5t-12.5 25.5q0 7 1 10q3 13 13.5 22.5t30.5 21.5q22 13 33 23.5t11 26.5q0 9 -6 15t-18 6q-15 0 -23.5 -6t-16.5 -17q-6 -8 -11 -12
t-13 -4t-12.5 6t-2.5 15q3 21 27.5 31t52.5 10q30 0 50 -11zM350 781l-13 22l144 129h49l89 -129l-21 -22l-84 86q-15 11 -21 11q-10 0 -34 -20zM614 35.5q15 -9.5 34 -9.5h17l-5 -26h-242l4 26h17q27 0 41 12.5t11 34.5l-20 137h-269l-77 -137q-5 -9 -5 -18q0 -14 12 -21.5
t29 -7.5h18l-5 -26h-208l5 26h15q19 0 41 10t32 26l354 622l76 30l106 -653q4 -16 19 -25.5zM465 250l-49 341l-192 -341h241z" />
    <glyph glyph-name="uni1EAA" unicode="&#x1eaa;" horiz-adv-x="704" 
d="M377 958l-16 12q16 41 44.5 68t63.5 27q16 0 29.5 -6.5t36.5 -20.5q19 -13 33.5 -19.5t29.5 -6.5q22 0 38.5 15.5t32.5 47.5l18 -12q-18 -43 -46.5 -71t-63.5 -28q-15 0 -29 6.5t-35 20.5q-19 13 -33.5 20t-30.5 7q-41 0 -72 -60zM350 781l-13 22l144 129h49l89 -129
l-21 -22l-84 86q-15 11 -21 11q-9 0 -29 -16zM614 35.5q15 -9.5 34 -9.5h17l-5 -26h-242l4 26h17q27 0 41 12.5t11 34.5l-20 137h-269l-77 -137q-5 -9 -5 -18q0 -14 12 -21.5t29 -7.5h18l-5 -26h-208l5 26h15q19 0 41 10t32 26l354 622l76 30l106 -653q4 -16 19 -25.5z
M465 250l-49 341l-192 -341h241z" />
    <glyph glyph-name="Adieresis" unicode="&#xc4;" horiz-adv-x="704" 
d="M333.5 791q-9.5 10 -9.5 27l1 9q5 21 19.5 34.5t34.5 13.5q18 0 27 -9.5t9 -25.5q0 -26 -15.5 -42.5t-39.5 -16.5q-17 0 -26.5 10zM540 790.5q-10 9.5 -10 26.5q0 6 1 10q5 21 20 34.5t36 13.5q17 0 26 -9.5t9 -25.5q0 -26 -15.5 -42.5t-39.5 -16.5q-17 0 -27 9.5z
M665 26l-5 -26h-242l4 26h17q27 0 41 12.5t11 34.5l-20 137h-269l-77 -137q-5 -9 -5 -18q0 -14 12 -21.5t29 -7.5h18l-5 -26h-208l5 26h15q19 0 41 10t32 26l354 622l76 30l106 -653q4 -16 19 -25.5t34 -9.5h17zM465 250l-49 341l-192 -341h241z" />
    <glyph glyph-name="uni1EA0" unicode="&#x1ea0;" horiz-adv-x="704" 
d="M665 26l-5 -26h-242l4 26h17q27 0 41 12.5t11 34.5l-20 137h-269l-77 -137q-5 -9 -5 -18q0 -14 12 -21.5t29 -7.5h18l-5 -26h-208l5 26h15q19 0 41 10t32 26l354 622l76 30l106 -653q4 -16 19 -25.5t34 -9.5h17zM465 250l-49 341l-192 -341h241zM327.5 -73.5
q9.5 -9.5 9.5 -26.5q0 -25 -16 -42t-39 -17q-17 0 -26.5 9.5t-9.5 25.5q0 25 16 42.5t39 17.5q17 0 26.5 -9.5z" />
    <glyph glyph-name="Agrave" unicode="&#xc0;" horiz-adv-x="704" 
d="M407 900q0 15 10.5 26t26.5 11q20 0 39 -24l88 -106l-22 -25l-121 83q-21 15 -21 35zM665 26l-5 -26h-242l4 26h17q27 0 41 12.5t11 34.5l-20 137h-269l-77 -137q-5 -9 -5 -18q0 -14 12 -21.5t29 -7.5h18l-5 -26h-208l5 26h15q19 0 41 10t32 26l354 622l76 30l106 -653
q4 -16 19 -25.5t34 -9.5h17zM465 250l-49 341l-192 -341h241z" />
    <glyph glyph-name="uni1EA2" unicode="&#x1ea2;" horiz-adv-x="704" 
d="M442 932q0 28 28 43.5t68 15.5q34 0 53.5 -13.5t19.5 -38.5q0 -8 -1 -12q-4 -19 -20 -33t-42 -28q-21 -11 -31.5 -19.5t-12.5 -18.5q-2 -12 4 -18t20 -12l-12 -20q-58 0 -58 40q0 6 1 10q3 15 15.5 26t35.5 25q26 16 38 28t12 30q0 11 -7.5 18t-19.5 7q-13 0 -24 -5
t-17 -15q-1 -1 -4.5 -9t-10.5 -13t-17 -5q-18 0 -18 17zM665 26l-5 -26h-242l4 26h17q27 0 41 12.5t11 34.5l-20 137h-269l-77 -137q-5 -9 -5 -18q0 -14 12 -21.5t29 -7.5h18l-5 -26h-208l5 26h15q19 0 41 10t32 26l354 622l76 30l106 -653q4 -16 19 -25.5t34 -9.5h17z
M465 250l-49 341l-192 -341h241z" />
    <glyph glyph-name="Amacron" unicode="&#x100;" horiz-adv-x="704" 
d="M633 782h-319l9 42h318zM665 26l-5 -26h-242l4 26h17q27 0 41 12.5t11 34.5l-20 137h-269l-77 -137q-5 -9 -5 -18q0 -14 12 -21.5t29 -7.5h18l-5 -26h-208l5 26h15q19 0 41 10t32 26l354 622l76 30l106 -653q4 -16 19 -25.5t34 -9.5h17zM465 250l-49 341l-192 -341h241z
" />
    <glyph glyph-name="Aogonek" unicode="&#x104;" horiz-adv-x="704" 
d="M557.5 -58q-23.5 -32 -23.5 -64q0 -20 13 -30t35 -10q18 0 45 10l2 -20q-40 -24 -80 -24q-41 0 -58.5 18.5t-17.5 45.5q0 6 2 18q7 34 35.5 63.5t69.5 50.5h-162l4 26h17q27 0 41 12.5t11 34.5l-20 137h-269l-77 -137q-5 -9 -5 -18q0 -14 12 -21.5t29 -7.5h18l-5 -26
h-208l5 26h15q19 0 41 10t32 26l354 622l76 30l106 -653q4 -16 19 -25.5t34 -9.5h17l-5 -26h-39q-40 -26 -63.5 -58zM465 250l-49 341l-192 -341h241z" />
    <glyph glyph-name="Aring" unicode="&#xc5;" horiz-adv-x="704" 
d="M410.5 771q-20.5 18 -20.5 49q0 48 32.5 79.5t78.5 31.5q34 0 54 -18.5t20 -49.5q0 -14 -2 -21q-8 -40 -38 -64.5t-69 -24.5q-35 0 -55.5 18zM431 828q0 -18 11 -28.5t30 -10.5q26 0 45 18.5t19 46.5q0 19 -11.5 30.5t-30.5 11.5q-22 0 -39 -14.5t-22 -39.5
q-2 -10 -2 -14zM665 26l-5 -26h-242l4 26h17q27 0 41 12.5t11 34.5l-20 137h-269l-77 -137q-5 -9 -5 -18q0 -14 12 -21.5t29 -7.5h18l-5 -26h-208l5 26h15q19 0 41 10t32 26l354 622l76 30l106 -653q4 -16 19 -25.5t34 -9.5h17zM465 250l-49 341l-192 -341h241z" />
    <glyph glyph-name="Aringacute" unicode="&#x1fa;" horiz-adv-x="704" 
d="M436 969l-12 25l133 107q26 23 47 23q15 0 22 -9t4 -21q-4 -23 -42 -42zM410.5 771q-20.5 18 -20.5 49q0 48 32.5 79.5t78.5 31.5q34 0 54 -18.5t20 -49.5q0 -14 -2 -21q-8 -40 -38 -64.5t-69 -24.5q-35 0 -55.5 18zM431 828q0 -18 11 -28.5t30 -10.5q26 0 45 18.5
t19 46.5q0 19 -11.5 30.5t-30.5 11.5q-22 0 -39 -14.5t-22 -39.5q-2 -10 -2 -14zM665 26l-5 -26h-242l4 26h17q27 0 41 12.5t11 34.5l-20 137h-269l-77 -137q-5 -9 -5 -18q0 -14 12 -21.5t29 -7.5h18l-5 -26h-208l5 26h15q19 0 41 10t32 26l354 622l76 30l106 -653
q4 -16 19 -25.5t34 -9.5h17zM465 250l-49 341l-192 -341h241z" />
    <glyph glyph-name="Atilde" unicode="&#xc3;" horiz-adv-x="704" 
d="M368 824.5q-18 -14.5 -34 -44.5l-18 11q18 42 47.5 69t66.5 27q16 0 30.5 -6.5t38.5 -20.5q20 -13 35.5 -19.5t30.5 -6.5q24 0 40.5 15t34.5 47l19 -11q-19 -44 -48.5 -72t-68.5 -28q-16 0 -29.5 6.5t-36.5 20.5q-20 13 -35 20t-32 7q-23 0 -41 -14.5zM665 26l-5 -26
h-242l4 26h17q27 0 41 12.5t11 34.5l-20 137h-269l-77 -137q-5 -9 -5 -18q0 -14 12 -21.5t29 -7.5h18l-5 -26h-208l5 26h15q19 0 41 10t32 26l354 622l76 30l106 -653q4 -16 19 -25.5t34 -9.5h17zM465 250l-49 341l-192 -341h241z" />
    <glyph glyph-name="AE" unicode="&#xc6;" horiz-adv-x="939" 
d="M-23 26h14q29 0 49 16t44 46l438 559q5 5 5 15q0 11 -10 11h-29l4 27h501l-35 -173h-26q4 26 4 49q0 83 -60 83h-213l-55 -271h155q28 0 42 24t28 73h23l-48 -234h-23q4 34 4 50q0 22 -7.5 34.5t-26.5 12.5h-156l-62 -308h226q41 0 69 41.5t45 97.5h25l-52 -179h-489
l5 26h22q24 0 39.5 9t19.5 27l30 148h-239l-111 -145q-5 -7 -5 -12q0 -11 14.5 -19t30.5 -8h17l-4 -26h-208zM486 250l76 372l-292 -372h216z" />
    <glyph glyph-name="AEacute" unicode="&#x1fc;" horiz-adv-x="939" 
d="M711 807l133 107q26 23 47 23q15 0 22 -9t4 -21q-4 -24 -41 -42l-153 -83zM-23 26h14q29 0 49 16t44 46l438 559q5 5 5 15q0 11 -10 11h-29l4 27h501l-35 -173h-26q4 26 4 49q0 83 -60 83h-213l-55 -271h155q28 0 42 24t28 73h23l-48 -234h-23q4 34 4 50q0 22 -7.5 34.5
t-26.5 12.5h-156l-62 -308h226q41 0 69 41.5t45 97.5h25l-52 -179h-489l5 26h22q24 0 39.5 9t19.5 27l30 148h-239l-111 -145q-5 -7 -5 -12q0 -11 14.5 -19t30.5 -8h17l-4 -26h-208zM486 250l76 372l-292 -372h216z" />
    <glyph glyph-name="B" unicode="B" horiz-adv-x="585" 
d="M-16 26h28q28 0 43.5 8.5t19.5 27.5l117 575q1 3 1 8q0 28 -49 28h-28l5 27h295q87 0 132 -31.5t45 -92.5q0 -17 -5 -42q-12 -58 -53.5 -103t-103.5 -61v-3q71 -11 101 -47t30 -87q0 -21 -5 -44q-19 -91 -83.5 -140t-170.5 -49h-324zM330 386q62 0 106 40t57 105
q5 23 5 39q0 89 -123 89h-84l-56 -273h95zM272 40q81 0 130 39t65 114q5 27 5 45q0 55 -37 81.5t-113 26.5h-95l-63 -306h108z" />
    <glyph glyph-name="C" unicode="C" horiz-adv-x="644" 
d="M125.5 54q-64.5 64 -64.5 183q0 52 12 113q35 169 139 264.5t256 95.5q62 0 105 -18t70 -42q4 -4 8 -4q8 0 11 15l9 44h35l-39 -192h-28q1 6 1 18q0 65 -45 101t-117 36q-118 0 -199.5 -86t-110.5 -232q-13 -67 -13 -115q0 -97 45.5 -150.5t137.5 -53.5q67 0 132 34.5
t103 105.5h38q-35 -84 -114.5 -132.5t-181.5 -48.5q-125 0 -189.5 64z" />
    <glyph glyph-name="Cacute" unicode="&#x106;" horiz-adv-x="644" 
d="M407 807l133 107q26 23 47 23q15 0 21.5 -9t3.5 -21q-3 -23 -41 -42l-152 -83zM125.5 54q-64.5 64 -64.5 183q0 52 12 113q35 169 139 264.5t256 95.5q62 0 105 -18t70 -42q4 -4 8 -4q8 0 11 15l9 44h35l-39 -192h-28q1 6 1 18q0 65 -45 101t-117 36q-118 0 -199.5 -86
t-110.5 -232q-13 -67 -13 -115q0 -97 45.5 -150.5t137.5 -53.5q67 0 132 34.5t103 105.5h38q-35 -84 -114.5 -132.5t-181.5 -48.5q-125 0 -189.5 64z" />
    <glyph glyph-name="Ccaron" unicode="&#x10c;" horiz-adv-x="644" 
d="M363 911l22 21l86 -85q13 -11 21 -11q10 0 24 11l121 85l14 -21l-145 -129h-51zM125.5 54q-64.5 64 -64.5 183q0 52 12 113q35 169 139 264.5t256 95.5q62 0 105 -18t70 -42q4 -4 8 -4q8 0 11 15l9 44h35l-39 -192h-28q1 6 1 18q0 65 -45 101t-117 36q-118 0 -199.5 -86
t-110.5 -232q-13 -67 -13 -115q0 -97 45.5 -150.5t137.5 -53.5q67 0 132 34.5t103 105.5h38q-35 -84 -114.5 -132.5t-181.5 -48.5q-125 0 -189.5 64z" />
    <glyph glyph-name="Ccedilla" unicode="&#xc7;" horiz-adv-x="644" 
d="M706 705l-39 -192h-28q1 6 1 18q0 65 -45 101t-117 36q-118 0 -199.5 -86t-110.5 -232q-13 -67 -13 -115q0 -97 45.5 -150.5t137.5 -53.5q67 0 132 34.5t103 105.5h38q-33 -79 -105.5 -127t-166.5 -53l-34 -49q33 0 58.5 -13.5t25.5 -43.5q0 -9 -1 -14q-10 -48 -52.5 -68
t-98.5 -20q-23 0 -46 5l12 29q8 -2 29 -2q84 0 94 54q5 23 -18.5 31.5t-51.5 8.5l-8 16l49 65q-117 5 -176.5 69t-59.5 178q0 52 12 113q35 169 139 264.5t256 95.5q62 0 105 -18t70 -42q4 -4 8 -4q8 0 11 15l9 44h35z" />
    <glyph glyph-name="Ccircumflex" unicode="&#x108;" horiz-adv-x="644" 
d="M345 803l145 129h50l93 -129l-22 -21l-87 86q-6 4 -11 7.5t-9 3.5q-9 0 -25 -11l-120 -86zM125.5 54q-64.5 64 -64.5 183q0 52 12 113q35 169 139 264.5t256 95.5q62 0 105 -18t70 -42q4 -4 8 -4q8 0 11 15l9 44h35l-39 -192h-28q1 6 1 18q0 65 -45 101t-117 36
q-118 0 -199.5 -86t-110.5 -232q-13 -67 -13 -115q0 -97 45.5 -150.5t137.5 -53.5q67 0 132 34.5t103 105.5h38q-35 -84 -114.5 -132.5t-181.5 -48.5q-125 0 -189.5 64z" />
    <glyph glyph-name="Cdotaccent" unicode="&#x10a;" horiz-adv-x="644" 
d="M461.5 774.5q-9.5 9.5 -9.5 24.5q0 8 1 12q5 21 19.5 34t35.5 13q17 0 26 -9t9 -25q0 -25 -15.5 -42t-38.5 -17q-18 0 -27.5 9.5zM125.5 54q-64.5 64 -64.5 183q0 52 12 113q35 169 139 264.5t256 95.5q62 0 105 -18t70 -42q4 -4 8 -4q8 0 11 15l9 44h35l-39 -192h-28
q1 6 1 18q0 65 -45 101t-117 36q-118 0 -199.5 -86t-110.5 -232q-13 -67 -13 -115q0 -97 45.5 -150.5t137.5 -53.5q67 0 132 34.5t103 105.5h38q-35 -84 -114.5 -132.5t-181.5 -48.5q-125 0 -189.5 64z" />
    <glyph glyph-name="D" unicode="D" horiz-adv-x="661" 
d="M-17 26h29q54 0 63 36l117 575q1 3 1 8q0 28 -49 28h-29l5 27h303q123 0 184 -59t61 -173q0 -56 -13 -118q-36 -173 -129.5 -261.5t-245.5 -88.5h-302zM286 39q104 0 173.5 81t100.5 230q14 70 14 122q0 91 -39.5 139.5t-119.5 48.5h-124l-127 -621h122z" />
    <glyph glyph-name="Eth" unicode="&#xd0;" horiz-adv-x="661" 
d="M607 641q61 -59 61 -173q0 -56 -13 -118q-36 -173 -129.5 -261.5t-245.5 -88.5h-302l5 26h29q54 0 63 36l54 264h-75l9 46h75l54 265q1 3 1 8q0 28 -49 28h-29l5 27h303q123 0 184 -59zM574 472q0 91 -39.5 139.5t-119.5 48.5h-124l-59 -288h202l-10 -46h-201l-59 -287
h122q104 0 173.5 81t100.5 230q14 70 14 122z" />
    <glyph glyph-name="Dcaron" unicode="&#x10e;" horiz-adv-x="661" 
d="M322 928l22 21l86 -85q13 -11 20 -11q11 0 25 11l121 85l14 -21l-145 -129h-51zM-17 26h29q54 0 63 36l117 575q1 3 1 8q0 28 -49 28h-29l5 27h303q123 0 184 -59t61 -173q0 -56 -13 -118q-36 -173 -129.5 -261.5t-245.5 -88.5h-302zM286 39q104 0 173.5 81t100.5 230
q14 70 14 122q0 91 -39.5 139.5t-119.5 48.5h-124l-127 -621h122z" />
    <glyph glyph-name="Dcroat" unicode="&#x110;" horiz-adv-x="661" 
d="M607 641q61 -59 61 -173q0 -56 -13 -118q-36 -173 -129.5 -261.5t-245.5 -88.5h-302l5 26h29q54 0 63 36l54 264h-75l9 46h75l54 265q1 3 1 8q0 28 -49 28h-29l5 27h303q123 0 184 -59zM574 472q0 91 -39.5 139.5t-119.5 48.5h-124l-59 -288h202l-10 -46h-201l-59 -287
h122q104 0 173.5 81t100.5 230q14 70 14 122z" />
    <glyph glyph-name="uni1E0C" unicode="&#x1e0c;" horiz-adv-x="661" 
d="M-17 26h29q54 0 63 36l117 575q1 3 1 8q0 28 -49 28h-29l5 27h303q123 0 184 -59t61 -173q0 -56 -13 -118q-36 -173 -129.5 -261.5t-245.5 -88.5h-302zM286 39q104 0 173.5 81t100.5 230q14 70 14 122q0 91 -39.5 139.5t-119.5 48.5h-124l-127 -621h122zM221.5 -81
q16.5 17 39.5 17q17 0 26.5 -10t9.5 -27q0 -25 -16 -41.5t-39 -16.5q-17 0 -27 9.5t-10 26.5q0 25 16.5 42z" />
    <glyph glyph-name="uni1E0E" unicode="&#x1e0e;" horiz-adv-x="661" 
d="M-17 26h29q54 0 63 36l117 575q1 3 1 8q0 28 -49 28h-29l5 27h303q123 0 184 -59t61 -173q0 -56 -13 -118q-36 -173 -129.5 -261.5t-245.5 -88.5h-302zM286 39q104 0 173.5 81t100.5 230q14 70 14 122q0 91 -39.5 139.5t-119.5 48.5h-124l-127 -621h122zM100 -72h318
l-8 -38h-318z" />
    <glyph glyph-name="E" unicode="E" horiz-adv-x="583" 
d="M636 700l-34 -173h-26q4 24 4 47q0 36 -13.5 60.5t-47.5 24.5h-230l-56 -271h171q29 0 42.5 24t27.5 73h23l-48 -234h-23q4 36 4 51q0 22 -7.5 34t-26.5 12h-171l-63 -308h245q41 0 68.5 41.5t44.5 97.5h26l-53 -179h-516l5 26h27q55 0 64 36l117 575q1 3 1 8
q0 28 -50 28h-27l5 27h517z" />
    <glyph glyph-name="Eacute" unicode="&#xc9;" horiz-adv-x="583" 
d="M367 782l-12 25l133 107q26 23 47 23q13 0 20 -7t7 -17q0 -27 -43 -48zM636 700l-34 -173h-26q4 24 4 47q0 36 -13.5 60.5t-47.5 24.5h-230l-56 -271h171q29 0 42.5 24t27.5 73h23l-48 -234h-23q4 36 4 51q0 22 -7.5 34t-26.5 12h-171l-63 -308h245q41 0 68.5 41.5
t44.5 97.5h26l-53 -179h-516l5 26h27q55 0 64 36l117 575q1 3 1 8q0 28 -50 28h-27l5 27h517z" />
    <glyph glyph-name="Ebreve" unicode="&#x114;" horiz-adv-x="583" 
d="M322 878q0 9 2 29h31q-4 -43 20.5 -64t71.5 -21q48 0 80.5 21t44.5 64h32q-15 -60 -56 -95.5t-109 -35.5q-117 0 -117 102zM636 700l-34 -173h-26q4 24 4 47q0 36 -13.5 60.5t-47.5 24.5h-230l-56 -271h171q29 0 42.5 24t27.5 73h23l-48 -234h-23q4 36 4 51q0 22 -7.5 34
t-26.5 12h-171l-63 -308h245q41 0 68.5 41.5t44.5 97.5h26l-53 -179h-516l5 26h27q55 0 64 36l117 575q1 3 1 8q0 28 -50 28h-27l5 27h517z" />
    <glyph glyph-name="Ecaron" unicode="&#x11a;" horiz-adv-x="583" 
d="M412 782l-92 129l22 21l86 -85q13 -11 20 -11q11 0 25 11l121 85l14 -21l-145 -129h-51zM636 700l-34 -173h-26q4 24 4 47q0 36 -13.5 60.5t-47.5 24.5h-230l-56 -271h171q29 0 42.5 24t27.5 73h23l-48 -234h-23q4 36 4 51q0 22 -7.5 34t-26.5 12h-171l-63 -308h245
q41 0 68.5 41.5t44.5 97.5h26l-53 -179h-516l5 26h27q55 0 64 36l117 575q1 3 1 8q0 28 -50 28h-27l5 27h517z" />
    <glyph glyph-name="Ecircumflex" unicode="&#xca;" horiz-adv-x="583" 
d="M309 782l-14 21l145 129h51l92 -129l-22 -21l-87 86q-13 11 -20 11q-8 0 -25 -11zM636 700l-34 -173h-26q4 24 4 47q0 36 -13.5 60.5t-47.5 24.5h-230l-56 -271h171q29 0 42.5 24t27.5 73h23l-48 -234h-23q4 36 4 51q0 22 -7.5 34t-26.5 12h-171l-63 -308h245
q41 0 68.5 41.5t44.5 97.5h26l-53 -179h-516l5 26h27q55 0 64 36l117 575q1 3 1 8q0 28 -50 28h-27l5 27h517z" />
    <glyph glyph-name="uni1EBE" unicode="&#x1ebe;" horiz-adv-x="583" 
d="M728 1024.5q7 -9.5 4 -21.5q-1 -11 -13 -22.5t-30 -20.5l-130 -67l-13 22l111 93q29 26 49 26q15 0 22 -9.5zM302 781l-13 22l144 129h49l89 -129l-21 -22l-84 86q-15 11 -21 11q-9 0 -29 -16zM119 700h517l-34 -173h-26q4 24 4 47q0 36 -13.5 60.5t-47.5 24.5h-230
l-56 -271h171q29 0 42.5 24t27.5 73h23l-48 -234h-23q4 36 4 51q0 22 -7.5 34t-26.5 12h-171l-63 -308h245q41 0 68.5 41.5t44.5 97.5h26l-53 -179h-516l5 26h27q55 0 64 36l117 575q1 3 1 8q0 28 -50 28h-27z" />
    <glyph glyph-name="uni1EC6" unicode="&#x1ec6;" horiz-adv-x="583" 
d="M300 782l-15 21l145 129h51l92 -129l-22 -21l-86 86q-15 11 -21 11q-4 0 -11 -3t-13 -8zM636 700l-34 -173h-26q4 24 4 47q0 36 -13.5 60.5t-47.5 24.5h-230l-56 -271h171q29 0 42.5 24t27.5 73h23l-48 -234h-23q4 36 4 51q0 22 -7.5 34t-26.5 12h-171l-63 -308h245
q41 0 68.5 41.5t44.5 97.5h26l-53 -179h-516l5 26h27q55 0 64 36l117 575q1 3 1 8q0 28 -50 28h-27l5 27h517zM284.5 -73.5q9.5 -9.5 9.5 -26.5q0 -25 -16 -42t-39 -17q-17 0 -26.5 9.5t-9.5 25.5q0 25 16 42.5t39 17.5q17 0 26.5 -9.5z" />
    <glyph glyph-name="uni1EC0" unicode="&#x1ec0;" horiz-adv-x="583" 
d="M222 977q-7 10 -7 20q0 13 10.5 25t27.5 12q13 0 22.5 -7.5t18.5 -18.5l72 -93l-21 -22l-103 67q-13 7 -20 17zM289 803l144 129h49l89 -129l-21 -22l-84 86q-15 11 -21 11q-9 0 -29 -16l-114 -81zM636 700l-34 -173h-26q4 24 4 47q0 36 -13.5 60.5t-47.5 24.5h-230
l-56 -271h171q29 0 42.5 24t27.5 73h23l-48 -234h-23q4 36 4 51q0 22 -7.5 34t-26.5 12h-171l-63 -308h245q41 0 68.5 41.5t44.5 97.5h26l-53 -179h-516l5 26h27q55 0 64 36l117 575q1 3 1 8q0 28 -50 28h-27l5 27h517z" />
    <glyph glyph-name="uni1EC2" unicode="&#x1ec2;" horiz-adv-x="583" 
d="M669 1052q20 -11 20 -32q0 -6 -1 -10q-3 -17 -17 -28t-39 -25q-18 -9 -27 -16t-11 -15q-2 -10 3.5 -16t18.5 -12l-11 -18q-27 0 -39.5 9.5t-12.5 25.5q0 7 1 10q3 13 13.5 22.5t30.5 21.5q22 13 33 23.5t11 26.5q0 9 -6 15t-18 6q-15 0 -23.5 -6t-16.5 -17q-6 -8 -11 -12
t-13 -4t-12.5 6t-2.5 15q3 21 27.5 31t52.5 10q30 0 50 -11zM302 781l-13 22l144 129h49l89 -129l-21 -22l-84 86q-15 11 -21 11q-10 0 -34 -20zM119 700h517l-34 -173h-26q4 24 4 47q0 36 -13.5 60.5t-47.5 24.5h-230l-56 -271h171q29 0 42.5 24t27.5 73h23l-48 -234h-23
q4 36 4 51q0 22 -7.5 34t-26.5 12h-171l-63 -308h245q41 0 68.5 41.5t44.5 97.5h26l-53 -179h-516l5 26h27q55 0 64 36l117 575q1 3 1 8q0 28 -50 28h-27z" />
    <glyph glyph-name="uni1EC4" unicode="&#x1ec4;" horiz-adv-x="583" 
d="M329 958l-16 12q16 41 44.5 68t63.5 27q16 0 29.5 -6.5t36.5 -20.5q19 -13 33.5 -19.5t29.5 -6.5q22 0 38.5 15.5t32.5 47.5l18 -12q-18 -43 -46.5 -71t-63.5 -28q-15 0 -29 6.5t-35 20.5q-19 13 -33.5 20t-30.5 7q-41 0 -72 -60zM302 781l-13 22l144 129h49l89 -129
l-21 -22l-84 86q-15 11 -21 11q-9 0 -29 -16zM119 700h517l-34 -173h-26q4 24 4 47q0 36 -13.5 60.5t-47.5 24.5h-230l-56 -271h171q29 0 42.5 24t27.5 73h23l-48 -234h-23q4 36 4 51q0 22 -7.5 34t-26.5 12h-171l-63 -308h245q41 0 68.5 41.5t44.5 97.5h26l-53 -179h-516
l5 26h27q55 0 64 36l117 575q1 3 1 8q0 28 -50 28h-27z" />
    <glyph glyph-name="Edieresis" unicode="&#xcb;" horiz-adv-x="583" 
d="M309.5 791q-9.5 10 -9.5 27l1 9q5 21 19.5 34.5t34.5 13.5q18 0 27 -9.5t9 -25.5q0 -26 -15.5 -42.5t-39.5 -16.5q-17 0 -26.5 10zM516 790.5q-10 9.5 -10 26.5q0 6 1 10q5 21 20 34.5t36 13.5q17 0 26 -9.5t9 -25.5q0 -26 -15.5 -42.5t-39.5 -16.5q-17 0 -27 9.5z
M636 700l-34 -173h-26q4 24 4 47q0 36 -13.5 60.5t-47.5 24.5h-230l-56 -271h171q29 0 42.5 24t27.5 73h23l-48 -234h-23q4 36 4 51q0 22 -7.5 34t-26.5 12h-171l-63 -308h245q41 0 68.5 41.5t44.5 97.5h26l-53 -179h-516l5 26h27q55 0 64 36l117 575q1 3 1 8q0 28 -50 28
h-27l5 27h517z" />
    <glyph glyph-name="Edotaccent" unicode="&#x116;" horiz-adv-x="583" 
d="M409.5 774.5q-9.5 9.5 -9.5 25.5q0 7 1 11q5 21 19.5 34t35.5 13q17 0 26.5 -9.5t9.5 -26.5q0 -25 -16 -41t-39 -16q-18 0 -27.5 9.5zM636 700l-34 -173h-26q4 24 4 47q0 36 -13.5 60.5t-47.5 24.5h-230l-56 -271h171q29 0 42.5 24t27.5 73h23l-48 -234h-23q4 36 4 51
q0 22 -7.5 34t-26.5 12h-171l-63 -308h245q41 0 68.5 41.5t44.5 97.5h26l-53 -179h-516l5 26h27q55 0 64 36l117 575q1 3 1 8q0 28 -50 28h-27l5 27h517z" />
    <glyph glyph-name="uni1EB8" unicode="&#x1eb8;" horiz-adv-x="583" 
d="M636 700l-34 -173h-26q4 24 4 47q0 36 -13.5 60.5t-47.5 24.5h-230l-56 -271h171q29 0 42.5 24t27.5 73h23l-48 -234h-23q4 36 4 51q0 22 -7.5 34t-26.5 12h-171l-63 -308h245q41 0 68.5 41.5t44.5 97.5h26l-53 -179h-516l5 26h27q55 0 64 36l117 575q1 3 1 8
q0 28 -50 28h-27l5 27h517zM277.5 -73.5q9.5 -9.5 9.5 -26.5q0 -25 -16 -42t-39 -17q-17 0 -26.5 9.5t-9.5 25.5q0 25 16.5 42.5t39.5 17.5q16 0 25.5 -9.5z" />
    <glyph glyph-name="Egrave" unicode="&#xc8;" horiz-adv-x="583" 
d="M370 899q0 6 1 9q2 12 12 20.5t24 8.5q22 0 38 -24l89 -106l-22 -25l-121 83q-21 15 -21 34zM636 700l-34 -173h-26q4 24 4 47q0 36 -13.5 60.5t-47.5 24.5h-230l-56 -271h171q29 0 42.5 24t27.5 73h23l-48 -234h-23q4 36 4 51q0 22 -7.5 34t-26.5 12h-171l-63 -308h245
q41 0 68.5 41.5t44.5 97.5h26l-53 -179h-516l5 26h27q55 0 64 36l117 575q1 3 1 8q0 28 -50 28h-27l5 27h517z" />
    <glyph glyph-name="uni1EBA" unicode="&#x1eba;" horiz-adv-x="583" 
d="M391 932q0 28 28.5 43.5t67.5 15.5q35 0 54 -13.5t19 -38.5q0 -8 -1 -12q-4 -19 -20 -33t-42 -28q-21 -11 -31.5 -19.5t-12.5 -18.5q-2 -12 4 -18t20 -12l-12 -20q-58 0 -58 40q0 19 13.5 32.5t38.5 29.5q22 14 34 24.5t15 25.5q3 13 -4 22.5t-22 9.5q-12 0 -23.5 -5
t-16.5 -15q-1 -2 -5 -9.5t-11 -12.5t-17 -5q-18 0 -18 17zM636 700l-34 -173h-26q4 24 4 47q0 36 -13.5 60.5t-47.5 24.5h-230l-56 -271h171q29 0 42.5 24t27.5 73h23l-48 -234h-23q4 36 4 51q0 22 -7.5 34t-26.5 12h-171l-63 -308h245q41 0 68.5 41.5t44.5 97.5h26
l-53 -179h-516l5 26h27q55 0 64 36l117 575q1 3 1 8q0 28 -50 28h-27l5 27h517z" />
    <glyph glyph-name="Emacron" unicode="&#x112;" horiz-adv-x="583" 
d="M595 782h-319l9 42h319zM636 700l-34 -173h-26q4 24 4 47q0 36 -13.5 60.5t-47.5 24.5h-230l-56 -271h171q29 0 42.5 24t27.5 73h23l-48 -234h-23q4 36 4 51q0 22 -7.5 34t-26.5 12h-171l-63 -308h245q41 0 68.5 41.5t44.5 97.5h26l-53 -179h-516l5 26h27q55 0 64 36
l117 575q1 3 1 8q0 28 -50 28h-27l5 27h517z" />
    <glyph glyph-name="Eogonek" unicode="&#x118;" horiz-adv-x="583" 
d="M636 700l-34 -173h-26q4 24 4 47q0 36 -13.5 60.5t-47.5 24.5h-230l-56 -271h171q29 0 42.5 24t27.5 73h23l-48 -234h-23q4 36 4 51q0 22 -7.5 34t-26.5 12h-171l-63 -308h245q41 0 68.5 41.5t44.5 97.5h26l-53 -179h-48q-40 -26 -63.5 -58t-23.5 -64q0 -20 13 -30
t35 -10q18 0 45 10l2 -20q-40 -24 -80 -24t-57.5 18t-17.5 45q0 40 30 75t77 58h-428l5 26h27q55 0 64 36l117 575q1 3 1 8q0 28 -50 28h-27l5 27h517z" />
    <glyph glyph-name="uni1EBC" unicode="&#x1ebc;" horiz-adv-x="583" 
d="M323 823.5q-18 -14.5 -34 -44.5l-18 11q18 42 47.5 69t66.5 27q16 0 30.5 -6.5t38.5 -20.5q20 -13 35.5 -19.5t30.5 -6.5q24 0 40.5 15t34.5 47l18 -11q-19 -44 -48 -72t-68 -28q-16 0 -29.5 6.5t-36.5 20.5q-20 13 -35 20t-32 7q-23 0 -41 -14.5zM636 700l-34 -173h-26
q4 24 4 47q0 36 -13.5 60.5t-47.5 24.5h-230l-56 -271h171q29 0 42.5 24t27.5 73h23l-48 -234h-23q4 36 4 51q0 22 -7.5 34t-26.5 12h-171l-63 -308h245q41 0 68.5 41.5t44.5 97.5h26l-53 -179h-516l5 26h27q55 0 64 36l117 575q1 3 1 8q0 28 -50 28h-27l5 27h517z" />
    <glyph glyph-name="F" unicode="F" horiz-adv-x="557" 
d="M636 700l-34 -173h-26q4 24 4 47q0 85 -60 85h-231l-61 -299h156q29 0 43 24t28 73h23l-48 -234h-23q4 36 4 50q0 22 -7.5 34.5t-27.5 12.5h-156l-53 -258q-1 -3 -1 -9q0 -27 50 -27h27l-5 -26h-261l5 26h28q54 0 63 36l117 575q1 3 1 8q0 28 -49 28h-28l5 27h517z" />
    <glyph glyph-name="G" unicode="G" horiz-adv-x="684" 
d="M125.5 54q-64.5 64 -64.5 183q0 52 12 113q35 169 139.5 264.5t257.5 95.5q53 0 101 -17t73 -42q5 -5 10 -5q9 0 12 15l9 44h34l-38 -192h-28l1 16q0 67 -46 103t-119 36q-117 0 -199.5 -86t-111.5 -232q-13 -67 -13 -115q0 -97 45.5 -150.5t137.5 -53.5q41 0 86.5 10.5
t80.5 36.5l40 199q2 10 2 14q0 19 -15.5 27.5t-48.5 8.5h-17l4 23h239l-3 -20h-12q-29 0 -41.5 -16.5t-22.5 -64.5l-37 -180q-60 -40 -125 -59.5t-153 -19.5q-125 0 -189.5 64z" />
    <glyph glyph-name="Gbreve" unicode="&#x11e;" horiz-adv-x="684" 
d="M366 895q0 9 2 29h31q-6 -85 93 -85q47 0 79.5 21t44.5 64h32q-15 -60 -56 -95.5t-109 -35.5q-117 0 -117 102zM125.5 54q-64.5 64 -64.5 183q0 52 12 113q35 169 139.5 264.5t257.5 95.5q53 0 101 -17t73 -42q5 -5 10 -5q9 0 12 15l9 44h34l-38 -192h-28l1 16
q0 67 -46 103t-119 36q-117 0 -199.5 -86t-111.5 -232q-13 -67 -13 -115q0 -97 45.5 -150.5t137.5 -53.5q41 0 86.5 10.5t80.5 36.5l40 199q2 10 2 14q0 19 -15.5 27.5t-48.5 8.5h-17l4 23h239l-3 -20h-12q-29 0 -41.5 -16.5t-22.5 -64.5l-37 -180q-60 -40 -125 -59.5
t-153 -19.5q-125 0 -189.5 64z" />
    <glyph glyph-name="Gcaron" unicode="&#x1e6;" horiz-adv-x="684" 
d="M384 911l22 21l86 -85q13 -11 21 -11q9 0 25 11l121 85l13 -21l-145 -129h-51zM125.5 54q-64.5 64 -64.5 183q0 52 12 113q35 169 139.5 264.5t257.5 95.5q53 0 101 -17t73 -42q5 -5 10 -5q9 0 12 15l9 44h34l-38 -192h-28l1 16q0 67 -46 103t-119 36q-117 0 -199.5 -86
t-111.5 -232q-13 -67 -13 -115q0 -97 45.5 -150.5t137.5 -53.5q41 0 86.5 10.5t80.5 36.5l40 199q2 10 2 14q0 19 -15.5 27.5t-48.5 8.5h-17l4 23h239l-3 -20h-12q-29 0 -41.5 -16.5t-22.5 -64.5l-37 -180q-60 -40 -125 -59.5t-153 -19.5q-125 0 -189.5 64z" />
    <glyph glyph-name="Gcircumflex" unicode="&#x11c;" horiz-adv-x="684" 
d="M348 820l145 129h51l92 -129l-22 -21l-86 86q-6 4 -11 7.5t-9 3.5q-8 0 -25 -11l-120 -86zM125.5 54q-64.5 64 -64.5 183q0 52 12 113q35 169 139.5 264.5t257.5 95.5q53 0 101 -17t73 -42q5 -5 10 -5q9 0 12 15l9 44h34l-38 -192h-28l1 16q0 67 -46 103t-119 36
q-117 0 -199.5 -86t-111.5 -232q-13 -67 -13 -115q0 -97 45.5 -150.5t137.5 -53.5q41 0 86.5 10.5t80.5 36.5l40 199q2 10 2 14q0 19 -15.5 27.5t-48.5 8.5h-17l4 23h239l-3 -20h-12q-29 0 -41.5 -16.5t-22.5 -64.5l-37 -180q-60 -40 -125 -59.5t-153 -19.5
q-125 0 -189.5 64z" />
    <glyph glyph-name="Gcommaaccent" unicode="&#x122;" horiz-adv-x="684" 
d="M125.5 54q-64.5 64 -64.5 183q0 52 12 113q35 169 139.5 264.5t257.5 95.5q53 0 101 -17t73 -42q5 -5 10 -5q9 0 12 15l9 44h34l-38 -192h-28l1 16q0 67 -46 103t-119 36q-117 0 -199.5 -86t-111.5 -232q-13 -67 -13 -115q0 -97 45.5 -150.5t137.5 -53.5q41 0 86.5 10.5
t80.5 36.5l40 199q2 10 2 14q0 19 -15.5 27.5t-48.5 8.5h-17l4 23h239l-3 -20h-12q-29 0 -41.5 -16.5t-22.5 -64.5l-37 -180q-60 -40 -125 -59.5t-153 -19.5q-125 0 -189.5 64zM217 -282q60 50 70 95q1 3 1 10q0 12 -10 28q-4 7 -7 14t-3 15q0 22 15.5 37.5t38.5 15.5
q18 0 29 -11t11 -34q0 -10 -3 -23q-9 -45 -44.5 -88.5t-85.5 -75.5z" />
    <glyph glyph-name="Gdotaccent" unicode="&#x120;" horiz-adv-x="684" 
d="M455.5 791.5q-9.5 9.5 -9.5 25.5q0 7 1 11q5 21 19.5 34t35.5 13q17 0 26.5 -9.5t9.5 -26.5q0 -25 -16 -41t-39 -16q-18 0 -27.5 9.5zM125.5 54q-64.5 64 -64.5 183q0 52 12 113q35 169 139.5 264.5t257.5 95.5q53 0 101 -17t73 -42q5 -5 10 -5q9 0 12 15l9 44h34
l-38 -192h-28l1 16q0 67 -46 103t-119 36q-117 0 -199.5 -86t-111.5 -232q-13 -67 -13 -115q0 -97 45.5 -150.5t137.5 -53.5q41 0 86.5 10.5t80.5 36.5l40 199q2 10 2 14q0 19 -15.5 27.5t-48.5 8.5h-17l4 23h239l-3 -20h-12q-29 0 -41.5 -16.5t-22.5 -64.5l-37 -180
q-60 -40 -125 -59.5t-153 -19.5q-125 0 -189.5 64z" />
    <glyph glyph-name="uni1E20" unicode="&#x1e20;" horiz-adv-x="684" 
d="M331 833h319l-9 -42h-318zM125.5 54q-64.5 64 -64.5 183q0 52 12 113q35 169 139.5 264.5t257.5 95.5q53 0 101 -17t73 -42q5 -5 10 -5q9 0 12 15l9 44h34l-38 -192h-28l1 16q0 67 -46 103t-119 36q-117 0 -199.5 -86t-111.5 -232q-13 -67 -13 -115q0 -97 45.5 -150.5
t137.5 -53.5q41 0 86.5 10.5t80.5 36.5l40 199q2 10 2 14q0 19 -15.5 27.5t-48.5 8.5h-17l4 23h239l-3 -20h-12q-29 0 -41.5 -16.5t-22.5 -64.5l-37 -180q-60 -40 -125 -59.5t-153 -19.5q-125 0 -189.5 64z" />
    <glyph glyph-name="H" unicode="H" horiz-adv-x="742" 
d="M825 700l-5 -27h-28q-57 0 -63 -36l-117 -575q-1 -3 -1 -9q0 -27 49 -27h27l-4 -26h-262l5 26h27q57 0 64 36l59 286h-345l-58 -286q-1 -3 -1 -9q0 -27 49 -27h29l-5 -26h-262l5 26h27q29 0 44.5 8.5t19.5 27.5l117 575q1 3 1 8q0 28 -49 28h-28l5 27h262l-5 -27h-29
q-56 0 -63 -36l-50 -248h344l51 248q3 19 -9 27.5t-40 8.5h-27l5 27h261z" />
    <glyph glyph-name="Hbar" unicode="&#x126;" horiz-adv-x="742" 
d="M825 700l-5 -27h-28q-57 0 -63 -36l-19 -93h52l-7 -40h-53l-90 -442q-1 -3 -1 -9q0 -27 49 -27h27l-4 -26h-262l5 26h27q57 0 64 36l59 286h-345l-58 -286q-1 -3 -1 -9q0 -27 49 -27h29l-5 -26h-262l5 26h27q29 0 44.5 8.5t19.5 27.5l90 442h-63l7 40h64l19 93q1 3 1 8
q0 28 -49 28h-28l5 27h262l-5 -27h-29q-56 0 -63 -36l-19 -93h345l19 93q3 19 -9 27.5t-40 8.5h-27l5 27h261zM608 504h-345l-23 -115h344z" />
    <glyph glyph-name="uni1E2A" unicode="&#x1e2a;" horiz-adv-x="742" 
d="M825 700l-5 -27h-28q-57 0 -63 -36l-117 -575q-1 -3 -1 -9q0 -27 49 -27h27l-4 -26h-262l5 26h27q57 0 64 36l59 286h-345l-58 -286q-1 -3 -1 -9q0 -27 49 -27h29l-5 -26h-262l5 26h27q29 0 44.5 8.5t19.5 27.5l117 575q1 3 1 8q0 28 -49 28h-28l5 27h262l-5 -27h-29
q-56 0 -63 -36l-50 -248h344l51 248q3 19 -9 27.5t-40 8.5h-27l5 27h261zM382.5 -116q32.5 21 44.5 63h32q-15 -60 -56 -95t-108 -35q-118 0 -118 100q0 13 3 30h31q-4 -42 20.5 -63t71.5 -21t79.5 21z" />
    <glyph glyph-name="Hcircumflex" unicode="&#x124;" horiz-adv-x="742" 
d="M365 782l-15 21l145 129h51l92 -129l-22 -21l-86 86q-6 4 -11 7.5t-9 3.5q-10 0 -25 -11zM825 700l-5 -27h-28q-57 0 -63 -36l-117 -575q-1 -3 -1 -9q0 -27 49 -27h27l-4 -26h-262l5 26h27q57 0 64 36l59 286h-345l-58 -286q-1 -3 -1 -9q0 -27 49 -27h29l-5 -26h-262
l5 26h27q29 0 44.5 8.5t19.5 27.5l117 575q1 3 1 8q0 28 -49 28h-28l5 27h262l-5 -27h-29q-56 0 -63 -36l-50 -248h344l51 248q3 19 -9 27.5t-40 8.5h-27l5 27h261z" />
    <glyph glyph-name="uni1E24" unicode="&#x1e24;" horiz-adv-x="742" 
d="M825 700l-5 -27h-28q-57 0 -63 -36l-117 -575q-1 -3 -1 -9q0 -27 49 -27h27l-4 -26h-262l5 26h27q57 0 64 36l59 286h-345l-58 -286q-1 -3 -1 -9q0 -27 49 -27h29l-5 -26h-262l5 26h27q29 0 44.5 8.5t19.5 27.5l117 575q1 3 1 8q0 28 -49 28h-28l5 27h262l-5 -27h-29
q-56 0 -63 -36l-50 -248h344l51 248q3 19 -9 27.5t-40 8.5h-27l5 27h261zM345 -73.5q9 -9.5 9 -25.5q0 -26 -15.5 -43t-38.5 -17q-17 0 -27 9.5t-10 25.5q0 25 16.5 42.5t39.5 17.5q17 0 26 -9.5z" />
    <glyph glyph-name="I" unicode="I" horiz-adv-x="311" 
d="M-9 26h28q55 0 64 36l117 575q6 36 -48 36h-28l5 27h261l-5 -27h-27q-57 0 -64 -36l-117 -575q-1 -3 -1 -9q0 -27 50 -27h26l-4 -26h-261z" />
    <glyph glyph-name="IJ" unicode="&#x132;" horiz-adv-x="648" 
d="M-9 26h28q55 0 64 36l117 575q6 36 -48 36h-28l5 27h261l-5 -27h-27q-57 0 -64 -36l-117 -575q-1 -3 -1 -9q0 -27 50 -27h26l-4 -26h-261zM268 -93q62 13 101.5 60.5t54.5 122.5l112 547q3 19 -8.5 27.5t-39.5 8.5h-28l5 27h262l-5 -27h-29q-56 0 -63 -36l-113 -548
q-19 -98 -86.5 -150.5t-163.5 -52.5z" />
    <glyph glyph-name="Iacute" unicode="&#xcd;" horiz-adv-x="311" 
d="M188 807l133 107q26 23 47 23q13 0 20 -7t7 -17q0 -27 -43 -48l-152 -83zM-9 26h28q55 0 64 36l117 575q6 36 -48 36h-28l5 27h261l-5 -27h-27q-57 0 -64 -36l-117 -575q-1 -3 -1 -9q0 -27 50 -27h26l-4 -26h-261z" />
    <glyph glyph-name="Ibreve" unicode="&#x12c;" horiz-adv-x="311" 
d="M158 879q0 8 2 28h32q-4 -43 20.5 -64t71.5 -21q48 0 80.5 21t44.5 64h32q-16 -60 -56.5 -95.5t-108.5 -35.5q-118 0 -118 103zM-9 26h28q55 0 64 36l117 575q6 36 -48 36h-28l5 27h261l-5 -27h-27q-57 0 -64 -36l-117 -575q-1 -3 -1 -9q0 -27 50 -27h26l-4 -26h-261z
" />
    <glyph glyph-name="uni01CF" unicode="&#x1cf;" horiz-adv-x="311" 
d="M157 911l23 21l86 -85q13 -11 20 -11q9 0 25 11l121 85l13 -21l-145 -129h-50zM-9 26h28q55 0 64 36l117 575q6 36 -48 36h-28l5 27h261l-5 -27h-27q-57 0 -64 -36l-117 -575q-1 -3 -1 -9q0 -27 50 -27h26l-4 -26h-261z" />
    <glyph glyph-name="Icircumflex" unicode="&#xce;" horiz-adv-x="311" 
d="M135 803l145 129h51l92 -129l-22 -21l-86 86q-15 11 -20 11q-10 0 -25 -11l-120 -86zM-9 26h28q55 0 64 36l117 575q6 36 -48 36h-28l5 27h261l-5 -27h-27q-57 0 -64 -36l-117 -575q-1 -3 -1 -9q0 -27 50 -27h26l-4 -26h-261z" />
    <glyph glyph-name="Idieresis" unicode="&#xcf;" horiz-adv-x="311" 
d="M144.5 791q-9.5 10 -9.5 27l1 9q5 21 19.5 34.5t34.5 13.5q17 0 26.5 -10t9.5 -26q0 -25 -15.5 -41.5t-39.5 -16.5q-17 0 -26.5 10zM350.5 790.5q-9.5 9.5 -9.5 25.5q0 25 16.5 42t39.5 17q18 0 27 -9.5t9 -25.5q0 -26 -15.5 -42.5t-39.5 -16.5q-18 0 -27.5 9.5zM-9 26
h28q55 0 64 36l117 575q6 36 -48 36h-28l5 27h261l-5 -27h-27q-57 0 -64 -36l-117 -575q-1 -3 -1 -9q0 -27 50 -27h26l-4 -26h-261z" />
    <glyph glyph-name="Idotaccent" unicode="&#x130;" horiz-adv-x="311" 
d="M248.5 790.5q-9.5 9.5 -9.5 24.5q0 8 1 12q5 21 19.5 34t35.5 13q17 0 26 -9t9 -25q0 -25 -15.5 -42t-38.5 -17q-18 0 -27.5 9.5zM-9 26h28q55 0 64 36l117 575q6 36 -48 36h-28l5 27h261l-5 -27h-27q-57 0 -64 -36l-117 -575q-1 -3 -1 -9q0 -27 50 -27h26l-4 -26h-261z
" />
    <glyph glyph-name="uni1ECA" unicode="&#x1eca;" horiz-adv-x="311" 
d="M-9 26h28q55 0 64 36l117 575q6 36 -48 36h-28l5 27h261l-5 -27h-27q-57 0 -64 -36l-117 -575q-1 -3 -1 -9q0 -27 50 -27h26l-4 -26h-261zM59 -149.5q-10 9.5 -10 25.5q0 25 16.5 42.5t39.5 17.5q17 0 26 -9.5t9 -25.5q0 -26 -16 -43t-39 -17q-16 0 -26 9.5z" />
    <glyph glyph-name="Igrave" unicode="&#xcc;" horiz-adv-x="311" 
d="M230 865q-21 15 -21 35q0 15 11 26t27 11q19 0 38 -24l88 -106l-22 -25zM-9 26h28q55 0 64 36l117 575q6 36 -48 36h-28l5 27h261l-5 -27h-27q-57 0 -64 -36l-117 -575q-1 -3 -1 -9q0 -27 50 -27h26l-4 -26h-261z" />
    <glyph glyph-name="uni1EC8" unicode="&#x1ec8;" horiz-adv-x="311" 
d="M251 817q0 7 1 11q3 15 15 26t35 25q25 16 37.5 28.5t12.5 30.5q0 10 -7 17t-20 7q-12 0 -23 -5t-17 -15q-1 -2 -5 -9.5t-11 -12.5t-17 -5q-18 0 -18 17q0 28 28.5 43.5t67.5 15.5q34 0 53.5 -13t19.5 -38q0 -8 -1 -13q-3 -19 -18 -31.5t-44 -29.5q-20 -12 -30.5 -20
t-12.5 -18q-2 -12 3.5 -18t20.5 -12l-13 -20q-57 0 -57 39zM-9 26h28q55 0 64 36l117 575q6 36 -48 36h-28l5 27h261l-5 -27h-27q-57 0 -64 -36l-117 -575q-1 -3 -1 -9q0 -27 50 -27h26l-4 -26h-261z" />
    <glyph glyph-name="Imacron" unicode="&#x12a;" horiz-adv-x="311" 
d="M101 828h370l-9 -46h-371zM-9 26h28q55 0 64 36l117 575q6 36 -48 36h-28l5 27h261l-5 -27h-27q-57 0 -64 -36l-117 -575q-1 -3 -1 -9q0 -27 50 -27h26l-4 -26h-261z" />
    <glyph glyph-name="Iogonek" unicode="&#x12e;" horiz-adv-x="311" 
d="M390 700l-5 -27h-27q-57 0 -64 -36l-117 -575q-1 -3 -1 -9q0 -27 50 -27h26l-4 -26h-44q-40 -26 -63.5 -58t-23.5 -64q0 -20 13 -30t35 -10q18 0 45 10l2 -20q-40 -24 -80 -24t-57.5 18t-17.5 45q0 40 30 75t77 58h-177l4 26h28q55 0 64 36l117 575q6 36 -48 36h-28l5 27
h261z" />
    <glyph glyph-name="Itilde" unicode="&#x128;" horiz-adv-x="311" 
d="M117 793q18 42 48 69t66 27q16 0 30.5 -6.5t38.5 -20.5q22 -13 37 -19.5t30 -6.5q23 0 40.5 15t34.5 47l18 -11q-18 -44 -48 -72t-68 -28q-16 0 -30.5 6.5t-36.5 20.5q-20 13 -35 20t-32 7q-23 0 -41 -14.5t-34 -44.5zM-9 26h28q55 0 64 36l117 575q6 36 -48 36h-28l5 27
h261l-5 -27h-27q-57 0 -64 -36l-117 -575q-1 -3 -1 -9q0 -27 50 -27h26l-4 -26h-261z" />
    <glyph glyph-name="J" unicode="J" horiz-adv-x="355" 
d="M-25 -93q62 13 101.5 60.5t55.5 122.5l111 547q1 3 1 8q0 28 -49 28h-28l5 27h262l-5 -27h-29q-56 0 -63 -36l-112 -548q-20 -98 -87.5 -150.5t-163.5 -52.5z" />
    <glyph glyph-name="Jcircumflex" unicode="&#x134;" horiz-adv-x="355" 
d="M181 820l145 129h51l92 -129l-22 -21l-86 86q-6 4 -11 7.5t-9 3.5q-10 0 -25 -11l-120 -86zM-25 -93q62 13 101.5 60.5t55.5 122.5l111 547q1 3 1 8q0 28 -49 28h-28l5 27h262l-5 -27h-29q-56 0 -63 -36l-112 -548q-20 -98 -87.5 -150.5t-163.5 -52.5z" />
    <glyph glyph-name="K" unicode="K" horiz-adv-x="673" 
d="M728 700l-5 -27h-19q-18 0 -32.5 -6t-29.5 -18l-342 -268l227 -309q15 -21 30.5 -33.5t38.5 -12.5h28l-5 -26h-153l-239 324h-1l-53 -262q-1 -3 -1 -9q0 -27 49 -27h29l-5 -26h-262l5 26h27q29 0 44.5 8.5t19.5 27.5l117 575q1 3 1 8q0 28 -49 28h-28l5 27h262l-5 -27
h-29q-56 0 -63 -36l-51 -251l329 254q7 6 10 14q3 19 -33 19h-14l5 27h192z" />
    <glyph glyph-name="Kcommaaccent" unicode="&#x136;" horiz-adv-x="673" 
d="M728 700l-5 -27h-19q-18 0 -32.5 -6t-29.5 -18l-342 -268l227 -309q15 -21 30.5 -33.5t38.5 -12.5h28l-5 -26h-153l-239 324h-1l-53 -262q-1 -3 -1 -9q0 -27 49 -27h29l-5 -26h-262l5 26h27q29 0 44.5 8.5t19.5 27.5l117 575q1 3 1 8q0 28 -49 28h-28l5 27h262l-5 -27
h-29q-56 0 -63 -36l-51 -251l329 254q7 6 10 14q3 19 -33 19h-14l5 27h192zM336 -78.5q11 -11.5 11 -34.5q0 -14 -2 -22q-10 -45 -45.5 -88.5t-84.5 -75.5l-12 17q61 52 70 95q1 3 1 9q0 13 -10 29q-11 16 -11 30q0 21 15.5 36.5t38.5 15.5q18 0 29 -11.5z" />
    <glyph glyph-name="L" unicode="L" horiz-adv-x="573" 
d="M-11 26h28q56 0 65 36l117 575q1 3 1 8q0 28 -50 28h-28l5 27h262l-5 -27h-28q-56 0 -63 -36l-113 -556q-1 -4 -1 -10q0 -31 49 -31h182q39 0 70 48.5t46 97.5h27l-54 -186h-514z" />
    <glyph glyph-name="Lacute" unicode="&#x139;" horiz-adv-x="573" 
d="M234 807l133 107q26 23 47 23q15 0 22 -9t4 -21q-4 -23 -42 -42l-152 -83zM-11 26h28q56 0 65 36l117 575q1 3 1 8q0 28 -50 28h-28l5 27h262l-5 -27h-28q-56 0 -63 -36l-113 -556q-1 -4 -1 -10q0 -31 49 -31h182q39 0 70 48.5t46 97.5h27l-54 -186h-514z" />
    <glyph glyph-name="Lcaron" unicode="&#x13d;" horiz-adv-x="573" 
d="M420 492q61 53 69 95q1 4 1 10q0 13 -10 29q-6 10 -8.5 17.5t-0.5 18.5q5 19 19.5 31.5t34.5 12.5q18 0 28.5 -11t10.5 -33q0 -14 -2 -22q-10 -45 -46 -89.5t-85 -75.5zM-11 26h28q56 0 65 36l117 575q1 3 1 8q0 28 -50 28h-28l5 27h262l-5 -27h-28q-56 0 -63 -36
l-113 -556q-1 -4 -1 -10q0 -31 49 -31h182q39 0 70 48.5t46 97.5h27l-54 -186h-514z" />
    <glyph glyph-name="Lcommaaccent" unicode="&#x13b;" horiz-adv-x="573" 
d="M-11 26h28q56 0 65 36l117 575q1 3 1 8q0 28 -50 28h-28l5 27h262l-5 -27h-28q-56 0 -63 -36l-113 -556q-1 -4 -1 -10q0 -31 49 -31h182q39 0 70 48.5t46 97.5h27l-54 -186h-514zM129 -282q61 52 70 95q1 3 1 9q0 13 -10 29q-11 16 -11 30q0 21 15.5 36.5t38.5 15.5
q18 0 29 -11.5t11 -34.5q0 -14 -2 -22q-10 -46 -45.5 -89t-84.5 -75z" />
    <glyph glyph-name="Ldot" unicode="&#x13f;" horiz-adv-x="573" 
d="M-11 26h28q56 0 65 36l117 575q1 3 1 8q0 28 -50 28h-28l5 27h262l-5 -27h-28q-56 0 -63 -36l-113 -556q-1 -4 -1 -10q0 -31 49 -31h182q39 0 70 48.5t46 97.5h27l-54 -186h-514zM369.5 321.5q-9.5 9.5 -9.5 26.5q0 25 16 42t39 17q17 0 26.5 -9.5t9.5 -25.5
q0 -25 -16 -42.5t-39 -17.5q-17 0 -26.5 9.5z" />
    <glyph glyph-name="uni1E36" unicode="&#x1e36;" horiz-adv-x="573" 
d="M-11 26h28q56 0 65 36l117 575q1 3 1 8q0 28 -50 28h-28l5 27h262l-5 -27h-28q-56 0 -63 -36l-113 -556q-1 -4 -1 -10q0 -31 49 -31h182q39 0 70 48.5t46 97.5h27l-54 -186h-514zM212.5 -149.5q-9.5 9.5 -9.5 25.5q0 25 16 42.5t39 17.5q17 0 26.5 -9.5t9.5 -26.5
q0 -25 -16 -42t-39 -17q-17 0 -26.5 9.5z" />
    <glyph glyph-name="uni1E38" unicode="&#x1e38;" horiz-adv-x="573" 
d="M179 833h318l-8 -42h-319zM-11 26h28q56 0 65 36l117 575q1 3 1 8q0 28 -50 28h-28l5 27h262l-5 -27h-28q-56 0 -63 -36l-113 -556q-1 -4 -1 -10q0 -31 49 -31h182q39 0 70 48.5t46 97.5h27l-54 -186h-514zM212.5 -149.5q-9.5 9.5 -9.5 25.5q0 25 16 42.5t39 17.5
q17 0 26.5 -9.5t9.5 -26.5q0 -25 -16 -42t-39 -17q-17 0 -26.5 9.5z" />
    <glyph glyph-name="uni1E3A" unicode="&#x1e3a;" horiz-adv-x="573" 
d="M-11 26h28q56 0 65 36l117 575q1 3 1 8q0 28 -50 28h-28l5 27h262l-5 -27h-28q-56 0 -63 -36l-113 -556q-1 -4 -1 -10q0 -31 49 -31h182q39 0 70 48.5t46 97.5h27l-54 -186h-514zM73 -72h318l-8 -38h-318z" />
    <glyph glyph-name="Lslash" unicode="&#x141;" horiz-adv-x="573" 
d="M553 186l-54 -186h-514l4 26h28q56 0 65 36l42 207l-83 -29l11 52l83 29l64 316q1 3 1 8q0 28 -50 28h-28l5 27h262l-5 -27h-28q-56 0 -63 -36l-57 -281l216 76l-10 -51l-217 -76l-45 -224q-1 -4 -1 -10q0 -31 49 -31h182q39 0 70 48.5t46 97.5h27z" />
    <glyph glyph-name="M" unicode="M" horiz-adv-x="867" 
d="M-12 26h27q29 0 44.5 8.5t19.5 27.5l117 575q1 3 1 8q0 28 -49 28h-28l5 27h183l115 -535l334 535h192l-4 -27h-28q-57 0 -64 -36l-117 -575q-1 -3 -1 -8q0 -28 49 -28h28l-5 -26h-262l5 26h28q55 0 64 36l113 552l-341 -538h-56l-119 536l-112 -550q-1 -3 -1 -9
q0 -27 49 -27h29l-5 -26h-216z" />
    <glyph glyph-name="uni1E42" unicode="&#x1e42;" horiz-adv-x="867" 
d="M-12 26h27q29 0 44.5 8.5t19.5 27.5l117 575q1 3 1 8q0 28 -49 28h-28l5 27h183l115 -535l334 535h192l-4 -27h-28q-57 0 -64 -36l-117 -575q-1 -3 -1 -8q0 -28 49 -28h28l-5 -26h-262l5 26h28q55 0 64 36l113 552l-341 -538h-56l-119 536l-112 -550q-1 -3 -1 -9
q0 -27 49 -27h29l-5 -26h-216zM336 -149.5q-10 9.5 -10 26.5q0 25 16.5 42t39.5 17q17 0 26.5 -10t9.5 -27q0 -25 -16 -41.5t-39 -16.5q-17 0 -27 9.5z" />
    <glyph glyph-name="N" unicode="N" horiz-adv-x="725" 
d="M-12 26h27q29 0 44.5 8.5t19.5 27.5l117 575q1 3 1 8q0 28 -49 28h-28l5 27h187l246 -574l104 511q1 3 1 9q0 14 -12 20.5t-37 6.5h-27l4 27h216l-4 -27h-29q-57 0 -64 -36l-129 -637h-56l-280 642l-118 -580q-1 -3 -1 -9q0 -27 49 -27h29l-5 -26h-216z" />
    <glyph glyph-name="Nacute" unicode="&#x143;" horiz-adv-x="725" 
d="M413 807l132 107q14 11 24 17t23 6q15 0 22 -9t4 -21q-4 -24 -41 -42l-153 -83zM-12 26h27q29 0 44.5 8.5t19.5 27.5l117 575q1 3 1 8q0 28 -49 28h-28l5 27h187l246 -574l104 511q1 3 1 9q0 14 -12 20.5t-37 6.5h-27l4 27h216l-4 -27h-29q-57 0 -64 -36l-129 -637h-56
l-280 642l-118 -580q-1 -3 -1 -9q0 -27 49 -27h29l-5 -26h-216z" />
    <glyph glyph-name="Ncaron" unicode="&#x147;" horiz-adv-x="725" 
d="M364 911l22 21l86 -85q13 -11 20 -11q11 0 25 11l121 85l14 -21l-145 -129h-51zM-12 26h27q29 0 44.5 8.5t19.5 27.5l117 575q1 3 1 8q0 28 -49 28h-28l5 27h187l246 -574l104 511q1 3 1 9q0 14 -12 20.5t-37 6.5h-27l4 27h216l-4 -27h-29q-57 0 -64 -36l-129 -637h-56
l-280 642l-118 -580q-1 -3 -1 -9q0 -27 49 -27h29l-5 -26h-216z" />
    <glyph glyph-name="Ncommaaccent" unicode="&#x145;" horiz-adv-x="725" 
d="M-12 26h27q29 0 44.5 8.5t19.5 27.5l117 575q1 3 1 8q0 28 -49 28h-28l5 27h187l246 -574l104 511q1 3 1 9q0 14 -12 20.5t-37 6.5h-27l4 27h216l-4 -27h-29q-57 0 -64 -36l-129 -637h-56l-280 642l-118 -580q-1 -3 -1 -9q0 -27 49 -27h29l-5 -26h-216zM188 -282
q62 52 70 95q1 3 1 10q0 12 -10 28q-4 7 -7 14t-3 15q0 22 15.5 37.5t38.5 15.5q18 0 29 -11t11 -33q0 -11 -3 -24q-9 -45 -44.5 -88t-84.5 -76z" />
    <glyph glyph-name="uni1E44" unicode="&#x1e44;" horiz-adv-x="725" 
d="M451 774q-9 9 -9 25q0 26 15.5 42.5t39.5 16.5q17 0 26.5 -9.5t9.5 -25.5q0 -25 -16 -41.5t-39 -16.5q-18 0 -27 9zM-12 26h27q29 0 44.5 8.5t19.5 27.5l117 575q1 3 1 8q0 28 -49 28h-28l5 27h187l246 -574l104 511q1 3 1 9q0 14 -12 20.5t-37 6.5h-27l4 27h216l-4 -27
h-29q-57 0 -64 -36l-129 -637h-56l-280 642l-118 -580q-1 -3 -1 -9q0 -27 49 -27h29l-5 -26h-216z" />
    <glyph glyph-name="uni1E46" unicode="&#x1e46;" horiz-adv-x="725" 
d="M-12 26h27q29 0 44.5 8.5t19.5 27.5l117 575q1 3 1 8q0 28 -49 28h-28l5 27h187l246 -574l104 511q1 3 1 9q0 14 -12 20.5t-37 6.5h-27l4 27h216l-4 -27h-29q-57 0 -64 -36l-129 -637h-56l-280 642l-118 -580q-1 -3 -1 -9q0 -27 49 -27h29l-5 -26h-216zM275 -149.5
q-10 9.5 -10 25.5q0 25 16.5 42.5t39.5 17.5q17 0 26 -9.5t9 -25.5q0 -26 -16 -43t-39 -17q-16 0 -26 9.5z" />
    <glyph glyph-name="Eng" unicode="&#x14a;" horiz-adv-x="725" 
d="M318 -243q42 3 82.5 24.5t69.5 58.5t38 84l16 76l-278 647l-119 -585q-1 -3 -1 -9q0 -27 49 -27h29l-5 -26h-216l5 26h27q30 0 44.5 8.5t19.5 27.5l117 575q1 3 1 8q0 28 -49 28h-28l5 27h189l244 -575l104 512q1 3 1 9q0 14 -12 20.5t-37 6.5h-27l4 27h216l-4 -27h-29
q-57 0 -64 -36l-137 -673q-23 -114 -81.5 -169.5t-174.5 -62.5z" />
    <glyph glyph-name="uni1E48" unicode="&#x1e48;" horiz-adv-x="725" 
d="M-12 26h27q29 0 44.5 8.5t19.5 27.5l117 575q1 3 1 8q0 28 -49 28h-28l5 27h187l246 -574l104 511q1 3 1 9q0 14 -12 20.5t-37 6.5h-27l4 27h216l-4 -27h-29q-57 0 -64 -36l-129 -637h-56l-280 642l-118 -580q-1 -3 -1 -9q0 -27 49 -27h29l-5 -26h-216zM149 -72h318
l-8 -38h-318z" />
    <glyph glyph-name="Ntilde" unicode="&#xd1;" horiz-adv-x="725" 
d="M332 791q18 42 48 69t66 27q16 0 30.5 -6.5t38.5 -20.5q22 -13 37 -19.5t30 -6.5q23 0 40.5 15t34.5 47l18 -11q-18 -44 -48 -72t-68 -28q-16 0 -30.5 6.5t-36.5 20.5q-20 13 -35 20t-32 7q-22 0 -40 -14.5t-35 -44.5zM-12 26h27q29 0 44.5 8.5t19.5 27.5l117 575
q1 3 1 8q0 28 -49 28h-28l5 27h187l246 -574l104 511q1 3 1 9q0 14 -12 20.5t-37 6.5h-27l4 27h216l-4 -27h-29q-57 0 -64 -36l-129 -637h-56l-280 642l-118 -580q-1 -3 -1 -9q0 -27 49 -27h29l-5 -26h-216z" />
    <glyph glyph-name="O" unicode="O" horiz-adv-x="725" 
d="M123 54.5q-68 64.5 -68 185.5q0 52 12 110q35 170 138.5 265t262.5 95q131 0 199 -65.5t68 -185.5q0 -50 -12 -109q-35 -171 -138.5 -265.5t-262.5 -94.5q-131 0 -199 64.5zM520.5 116.5q76.5 84.5 107.5 233.5q12 60 12 112q0 98 -45 152t-136 54q-114 0 -190.5 -85
t-106.5 -233q-13 -67 -13 -113q0 -98 45 -151.5t135 -53.5q115 0 191.5 84.5z" />
    <glyph glyph-name="Oacute" unicode="&#xd3;" horiz-adv-x="725" 
d="M396 807l132 107q14 11 24 17t23 6q15 0 22 -9t4 -21q-4 -24 -41 -42l-153 -83zM123 54.5q-68 64.5 -68 185.5q0 52 12 110q35 170 138.5 265t262.5 95q131 0 199 -65.5t68 -185.5q0 -50 -12 -109q-35 -171 -138.5 -265.5t-262.5 -94.5q-131 0 -199 64.5zM520.5 116.5
q76.5 84.5 107.5 233.5q12 60 12 112q0 98 -45 152t-136 54q-114 0 -190.5 -85t-106.5 -233q-13 -67 -13 -113q0 -98 45 -151.5t135 -53.5q115 0 191.5 84.5z" />
    <glyph glyph-name="Obreve" unicode="&#x14e;" horiz-adv-x="725" 
d="M365 876q0 9 2 29h31q-6 -85 93 -85q47 0 79.5 21t44.5 64h32q-15 -60 -56 -95.5t-109 -35.5q-117 0 -117 102zM123 54.5q-68 64.5 -68 185.5q0 52 12 110q35 170 138.5 265t262.5 95q131 0 199 -65.5t68 -185.5q0 -50 -12 -109q-35 -171 -138.5 -265.5t-262.5 -94.5
q-131 0 -199 64.5zM520.5 116.5q76.5 84.5 107.5 233.5q12 60 12 112q0 98 -45 152t-136 54q-114 0 -190.5 -85t-106.5 -233q-13 -67 -13 -113q0 -98 45 -151.5t135 -53.5q115 0 191.5 84.5z" />
    <glyph glyph-name="uni01D1" unicode="&#x1d1;" horiz-adv-x="725" 
d="M365 911l22 21l86 -85q13 -11 20 -11q11 0 25 11l121 85l14 -21l-145 -129h-51zM123 54.5q-68 64.5 -68 185.5q0 52 12 110q35 170 138.5 265t262.5 95q131 0 199 -65.5t68 -185.5q0 -50 -12 -109q-35 -171 -138.5 -265.5t-262.5 -94.5q-131 0 -199 64.5zM520.5 116.5
q76.5 84.5 107.5 233.5q12 60 12 112q0 98 -45 152t-136 54q-114 0 -190.5 -85t-106.5 -233q-13 -67 -13 -113q0 -98 45 -151.5t135 -53.5q115 0 191.5 84.5z" />
    <glyph glyph-name="Ocircumflex" unicode="&#xd4;" horiz-adv-x="725" 
d="M343 803l145 129h51l92 -129l-22 -21l-87 86q-13 11 -20 11q-8 0 -25 -11l-120 -86zM123 54.5q-68 64.5 -68 185.5q0 52 12 110q35 170 138.5 265t262.5 95q131 0 199 -65.5t68 -185.5q0 -50 -12 -109q-35 -171 -138.5 -265.5t-262.5 -94.5q-131 0 -199 64.5z
M520.5 116.5q76.5 84.5 107.5 233.5q12 60 12 112q0 98 -45 152t-136 54q-114 0 -190.5 -85t-106.5 -233q-13 -67 -13 -113q0 -98 45 -151.5t135 -53.5q115 0 191.5 84.5z" />
    <glyph glyph-name="uni1ED0" unicode="&#x1ed0;" horiz-adv-x="725" 
d="M602 914l110 93q14 12 25.5 19t23.5 7q13 0 20.5 -7.5t7.5 -17.5q0 -13 -11.5 -25.5t-32.5 -23.5l-131 -67zM345 802l144 129h49l89 -129l-21 -22l-85 86q-13 11 -20 11q-8 0 -30 -16l-113 -81zM123 54.5q-68 64.5 -68 185.5q0 52 12 110q35 170 138.5 265t262.5 95
q131 0 199 -65.5t68 -185.5q0 -50 -12 -109q-35 -171 -138.5 -265.5t-262.5 -94.5q-131 0 -199 64.5zM520.5 116.5q76.5 84.5 107.5 233.5q12 60 12 112q0 98 -45 152t-136 54q-114 0 -190.5 -85t-106.5 -233q-13 -67 -13 -113q0 -98 45 -151.5t135 -53.5q115 0 191.5 84.5z
" />
    <glyph glyph-name="uni1ED8" unicode="&#x1ed8;" horiz-adv-x="725" 
d="M487 932h51l92 -129l-22 -21l-87 86q-13 11 -20 11q-9 0 -25 -11l-120 -86l-14 21zM67 350q35 170 138.5 265t262.5 95q131 0 199 -65.5t68 -185.5q0 -50 -12 -109q-35 -171 -138.5 -265.5t-262.5 -94.5q-131 0 -199 64.5t-68 185.5q0 52 12 110zM194 85.5
q45 -53.5 135 -53.5q115 0 191.5 84.5t107.5 233.5q12 60 12 112q0 98 -45 152t-136 54q-114 0 -190.5 -85t-106.5 -233q-13 -67 -13 -113q0 -98 45 -151.5zM271.5 -81q16.5 17 39.5 17q17 0 26.5 -10t9.5 -27q0 -25 -16 -41.5t-39 -16.5q-17 0 -27 9.5t-10 26.5
q0 25 16.5 42z" />
    <glyph glyph-name="uni1ED2" unicode="&#x1ed2;" horiz-adv-x="725" 
d="M298 959q-13 7 -20 17t-7 20q0 12 10.5 24.5t27.5 12.5q22 0 40 -26l72 -93l-21 -22zM345 802l144 129h49l89 -129l-21 -22l-85 86q-13 11 -20 11q-8 0 -30 -16l-113 -81zM123 54.5q-68 64.5 -68 185.5q0 52 12 110q35 170 138.5 265t262.5 95q131 0 199 -65.5t68 -185.5
q0 -50 -12 -109q-35 -171 -138.5 -265.5t-262.5 -94.5q-131 0 -199 64.5zM520.5 116.5q76.5 84.5 107.5 233.5q12 60 12 112q0 98 -45 152t-136 54q-114 0 -190.5 -85t-106.5 -233q-13 -67 -13 -113q0 -98 45 -151.5t135 -53.5q115 0 191.5 84.5z" />
    <glyph glyph-name="uni1ED4" unicode="&#x1ed4;" horiz-adv-x="725" 
d="M609 915q0 7 1 10q3 13 13.5 22.5t29.5 21.5q20 12 30.5 21.5t13.5 22.5q2 12 -4 19.5t-19 7.5q-15 0 -23.5 -6t-16.5 -17q-1 -2 -5.5 -6.5t-8.5 -7t-10 -2.5q-8 0 -13 6t-3 15q4 21 28.5 31t52.5 10q29 0 49.5 -11t20.5 -32t-14 -33.5t-43 -29.5q-18 -10 -27.5 -16.5
t-10.5 -14.5q-2 -10 3.5 -16t18.5 -12l-12 -18q-51 0 -51 35zM345 803l144 129h49l89 -129l-21 -22l-85 86q-13 11 -20 11q-10 0 -34 -20l-109 -77zM123 54.5q-68 64.5 -68 185.5q0 52 12 110q35 170 138.5 265t262.5 95q131 0 199 -65.5t68 -185.5q0 -50 -12 -109
q-35 -171 -138.5 -265.5t-262.5 -94.5q-131 0 -199 64.5zM520.5 116.5q76.5 84.5 107.5 233.5q12 60 12 112q0 98 -45 152t-136 54q-114 0 -190.5 -85t-106.5 -233q-13 -67 -13 -113q0 -98 45 -151.5t135 -53.5q115 0 191.5 84.5z" />
    <glyph glyph-name="uni1ED6" unicode="&#x1ed6;" horiz-adv-x="725" 
d="M369 970q16 41 44.5 68t63.5 27q16 0 29.5 -6.5t36.5 -20.5q19 -13 33.5 -19.5t29.5 -6.5q22 0 38.5 15.5t32.5 47.5l18 -12q-18 -43 -46.5 -71t-63.5 -28q-15 0 -29 6.5t-35 20.5q-19 13 -33.5 20t-30.5 7q-22 0 -39.5 -15t-32.5 -45zM345 803l144 129h49l89 -129
l-21 -22l-85 86q-13 11 -20 11q-8 0 -30 -16l-113 -81zM123 54.5q-68 64.5 -68 185.5q0 52 12 110q35 170 138.5 265t262.5 95q131 0 199 -65.5t68 -185.5q0 -50 -12 -109q-35 -171 -138.5 -265.5t-262.5 -94.5q-131 0 -199 64.5zM520.5 116.5q76.5 84.5 107.5 233.5
q12 60 12 112q0 98 -45 152t-136 54q-114 0 -190.5 -85t-106.5 -233q-13 -67 -13 -113q0 -98 45 -151.5t135 -53.5q115 0 191.5 84.5z" />
    <glyph glyph-name="Odieresis" unicode="&#xd6;" horiz-adv-x="725" 
d="M352.5 790.5q-9.5 9.5 -9.5 25.5q0 25 16 42t38 17q18 0 27 -9.5t9 -25.5q0 -26 -15.5 -42.5t-39.5 -16.5q-16 0 -25.5 9.5zM558 790.5q-10 9.5 -10 26.5q0 6 1 10q5 21 20 34.5t36 13.5q17 0 26.5 -9.5t9.5 -25.5q0 -25 -16 -42t-39 -17q-18 0 -28 9.5zM123 54.5
q-68 64.5 -68 185.5q0 52 12 110q35 170 138.5 265t262.5 95q131 0 199 -65.5t68 -185.5q0 -50 -12 -109q-35 -171 -138.5 -265.5t-262.5 -94.5q-131 0 -199 64.5zM520.5 116.5q76.5 84.5 107.5 233.5q12 60 12 112q0 98 -45 152t-136 54q-114 0 -190.5 -85t-106.5 -233
q-13 -67 -13 -113q0 -98 45 -151.5t135 -53.5q115 0 191.5 84.5z" />
    <glyph glyph-name="uni1ECC" unicode="&#x1ecc;" horiz-adv-x="725" 
d="M67 350q35 170 138.5 265t262.5 95q131 0 199 -65.5t68 -185.5q0 -50 -12 -109q-35 -171 -138.5 -265.5t-262.5 -94.5q-131 0 -199 64.5t-68 185.5q0 52 12 110zM194 85.5q45 -53.5 135 -53.5q115 0 191.5 84.5t107.5 233.5q12 60 12 112q0 98 -45 152t-136 54
q-114 0 -190.5 -85t-106.5 -233q-13 -67 -13 -113q0 -98 45 -151.5zM271.5 -81q16.5 17 39.5 17q17 0 26.5 -10t9.5 -27q0 -25 -16 -41.5t-39 -16.5q-17 0 -27 9.5t-10 26.5q0 25 16.5 42z" />
    <glyph glyph-name="Ograve" unicode="&#xd2;" horiz-adv-x="725" 
d="M423 865q-21 15 -21 35q0 15 10.5 26t27.5 11q19 0 38 -24l88 -106l-22 -25zM123 54.5q-68 64.5 -68 185.5q0 52 12 110q35 170 138.5 265t262.5 95q131 0 199 -65.5t68 -185.5q0 -50 -12 -109q-35 -171 -138.5 -265.5t-262.5 -94.5q-131 0 -199 64.5zM520.5 116.5
q76.5 84.5 107.5 233.5q12 60 12 112q0 98 -45 152t-136 54q-114 0 -190.5 -85t-106.5 -233q-13 -67 -13 -113q0 -98 45 -151.5t135 -53.5q115 0 191.5 84.5z" />
    <glyph glyph-name="uni1ECE" unicode="&#x1ece;" horiz-adv-x="725" 
d="M445 819q0 19 13 32t39 29q25 15 37.5 27t12.5 30q0 11 -7.5 18t-19.5 7t-23 -5t-17 -15q-1 -2 -5 -9.5t-11 -12.5t-17 -5q-18 0 -18 17q0 28 28.5 43.5t67.5 15.5q34 0 53.5 -13t19.5 -38q0 -8 -1 -13q-3 -19 -18 -31.5t-44 -29.5q-20 -12 -30.5 -20t-12.5 -18
q-2 -12 3.5 -18t20.5 -12l-13 -20q-58 0 -58 41zM123 54.5q-68 64.5 -68 185.5q0 52 12 110q35 170 138.5 265t262.5 95q131 0 199 -65.5t68 -185.5q0 -50 -12 -109q-35 -171 -138.5 -265.5t-262.5 -94.5q-131 0 -199 64.5zM520.5 116.5q76.5 84.5 107.5 233.5q12 60 12 112
q0 98 -45 152t-136 54q-114 0 -190.5 -85t-106.5 -233q-13 -67 -13 -113q0 -98 45 -151.5t135 -53.5q115 0 191.5 84.5z" />
    <glyph glyph-name="Ohorn" unicode="&#x1a0;" horiz-adv-x="732" 
d="M799.5 637q-32.5 -43 -80.5 -72q17 -48 17 -106q0 -50 -12 -109q-35 -171 -138.5 -265.5t-262.5 -94.5q-131 0 -199 64.5t-68 185.5q0 52 12 110q35 170 138.5 265t262.5 95q90 0 150 -31t90 -90q48 37 48 74q0 8 -3 15t-7 14q-1 2 -5 9.5t-4 17.5q0 21 15 37t38 16
q18 0 29.5 -11.5t11.5 -34.5q0 -46 -32.5 -89zM641 462q0 98 -45 152t-136 54q-114 0 -190.5 -85t-106.5 -233q-13 -67 -13 -113q0 -98 45 -151.5t135 -53.5q115 0 191.5 84.5t107.5 233.5q12 60 12 112z" />
    <glyph glyph-name="uni1EDA" unicode="&#x1eda;" horiz-adv-x="732" 
d="M392 781l-12 25l133 107q26 23 47 23q13 0 20 -7t7 -17q0 -27 -43 -48zM799.5 637q-32.5 -43 -80.5 -72q17 -48 17 -106q0 -50 -12 -109q-35 -171 -138.5 -265.5t-262.5 -94.5q-131 0 -199 64.5t-68 185.5q0 52 12 110q35 170 138.5 265t262.5 95q90 0 150 -31t90 -90
q48 37 48 74q0 8 -3 15t-7 14q-1 2 -5 9.5t-4 17.5q0 21 15 37t38 16q18 0 29.5 -11.5t11.5 -34.5q0 -46 -32.5 -89zM641 462q0 98 -45 152t-136 54q-114 0 -190.5 -85t-106.5 -233q-13 -67 -13 -113q0 -98 45 -151.5t135 -53.5q115 0 191.5 84.5t107.5 233.5q12 60 12 112z
" />
    <glyph glyph-name="uni1EE2" unicode="&#x1ee2;" horiz-adv-x="732" 
d="M799.5 637q-32.5 -43 -80.5 -72q17 -48 17 -106q0 -50 -12 -109q-35 -171 -138.5 -265.5t-262.5 -94.5q-131 0 -199 64.5t-68 185.5q0 52 12 110q35 170 138.5 265t262.5 95q90 0 150 -31t90 -90q48 37 48 74q0 8 -3 15t-7 14q-1 2 -5 9.5t-4 17.5q0 21 15 37t38 16
q18 0 29.5 -11.5t11.5 -34.5q0 -46 -32.5 -89zM641 462q0 98 -45 152t-136 54q-114 0 -190.5 -85t-106.5 -233q-13 -67 -13 -113q0 -98 45 -151.5t135 -53.5q115 0 191.5 84.5t107.5 233.5q12 60 12 112zM327.5 -73.5q9.5 -9.5 9.5 -26.5q0 -25 -16 -42t-39 -17
q-17 0 -26.5 9.5t-9.5 25.5q0 25 16 42.5t39 17.5q17 0 26.5 -9.5z" />
    <glyph glyph-name="uni1EDC" unicode="&#x1edc;" horiz-adv-x="732" 
d="M409 909q0 15 10.5 26t26.5 11q20 0 39 -24l88 -106l-22 -25l-121 83q-21 15 -21 35zM799.5 637q-32.5 -43 -80.5 -72q17 -48 17 -106q0 -50 -12 -109q-35 -171 -138.5 -265.5t-262.5 -94.5q-131 0 -199 64.5t-68 185.5q0 52 12 110q35 170 138.5 265t262.5 95
q90 0 150 -31t90 -90q48 37 48 74q0 8 -3 15t-7 14q-1 2 -5 9.5t-4 17.5q0 21 15 37t38 16q18 0 29.5 -11.5t11.5 -34.5q0 -46 -32.5 -89zM641 462q0 98 -45 152t-136 54q-114 0 -190.5 -85t-106.5 -233q-13 -67 -13 -113q0 -98 45 -151.5t135 -53.5q115 0 191.5 84.5
t107.5 233.5q12 60 12 112z" />
    <glyph glyph-name="uni1EDE" unicode="&#x1ede;" horiz-adv-x="732" 
d="M436 943q0 28 28.5 43.5t67.5 15.5q34 0 53.5 -13t19.5 -38q0 -8 -1 -13q-4 -19 -20 -33t-42 -28q-21 -11 -31.5 -19.5t-12.5 -18.5q-2 -12 4 -18t20 -12l-12 -20q-58 0 -58 40q0 19 13.5 32.5t38.5 29.5q22 14 34 24.5t15 25.5q3 13 -4 22.5t-22 9.5q-12 0 -23.5 -5
t-16.5 -15q-1 -2 -5 -9.5t-11 -12.5t-17 -5q-18 0 -18 17zM799.5 637q-32.5 -43 -80.5 -72q17 -48 17 -106q0 -50 -12 -109q-35 -171 -138.5 -265.5t-262.5 -94.5q-131 0 -199 64.5t-68 185.5q0 52 12 110q35 170 138.5 265t262.5 95q90 0 150 -31t90 -90q48 37 48 74
q0 8 -3 15t-7 14q-1 2 -5 9.5t-4 17.5q0 21 15 37t38 16q18 0 29.5 -11.5t11.5 -34.5q0 -46 -32.5 -89zM641 462q0 98 -45 152t-136 54q-114 0 -190.5 -85t-106.5 -233q-13 -67 -13 -113q0 -98 45 -151.5t135 -53.5q115 0 191.5 84.5t107.5 233.5q12 60 12 112z" />
    <glyph glyph-name="uni1EE0" unicode="&#x1ee0;" horiz-adv-x="732" 
d="M368 834.5q-18 -14.5 -34 -44.5l-18 11q18 42 47.5 69t66.5 27q16 0 30.5 -6.5t38.5 -20.5q20 -13 35.5 -19.5t30.5 -6.5q24 0 40.5 15t34.5 47l19 -11q-19 -44 -48.5 -72t-68.5 -28q-16 0 -29.5 6.5t-36.5 20.5q-20 13 -35 20t-32 7q-23 0 -41 -14.5zM799.5 637
q-32.5 -43 -80.5 -72q17 -48 17 -106q0 -50 -12 -109q-35 -171 -138.5 -265.5t-262.5 -94.5q-131 0 -199 64.5t-68 185.5q0 52 12 110q35 170 138.5 265t262.5 95q90 0 150 -31t90 -90q48 37 48 74q0 8 -3 15t-7 14q-1 2 -5 9.5t-4 17.5q0 21 15 37t38 16q18 0 29.5 -11.5
t11.5 -34.5q0 -46 -32.5 -89zM641 462q0 98 -45 152t-136 54q-114 0 -190.5 -85t-106.5 -233q-13 -67 -13 -113q0 -98 45 -151.5t135 -53.5q115 0 191.5 84.5t107.5 233.5q12 60 12 112z" />
    <glyph glyph-name="Ohungarumlaut" unicode="&#x150;" horiz-adv-x="725" 
d="M352 807l131 106q32 24 52 24q12 0 18 -6t6 -16q0 -27 -43 -51l-152 -82zM505 807l131 106q2 1 16.5 12.5t32.5 11.5q13 0 20 -6.5t7 -16.5q0 -14 -10.5 -26t-31.5 -24l-153 -82zM123 54.5q-68 64.5 -68 185.5q0 52 12 110q35 170 138.5 265t262.5 95q131 0 199 -65.5
t68 -185.5q0 -50 -12 -109q-35 -171 -138.5 -265.5t-262.5 -94.5q-131 0 -199 64.5zM520.5 116.5q76.5 84.5 107.5 233.5q12 60 12 112q0 98 -45 152t-136 54q-114 0 -190.5 -85t-106.5 -233q-13 -67 -13 -113q0 -98 45 -151.5t135 -53.5q115 0 191.5 84.5z" />
    <glyph glyph-name="Omacron" unicode="&#x14c;" horiz-adv-x="725" 
d="M334 835h319l-9 -42h-319zM123 54.5q-68 64.5 -68 185.5q0 52 12 110q35 170 138.5 265t262.5 95q131 0 199 -65.5t68 -185.5q0 -50 -12 -109q-35 -171 -138.5 -265.5t-262.5 -94.5q-131 0 -199 64.5zM520.5 116.5q76.5 84.5 107.5 233.5q12 60 12 112q0 98 -45 152
t-136 54q-114 0 -190.5 -85t-106.5 -233q-13 -67 -13 -113q0 -98 45 -151.5t135 -53.5q115 0 191.5 84.5z" />
    <glyph glyph-name="Oslash" unicode="&#xd8;" horiz-adv-x="725" 
d="M681 630q54 -63 54 -171q0 -50 -12 -109q-35 -171 -138.5 -265.5t-262.5 -94.5q-131 0 -198 64l-74 -76l-32 26l79 81q-42 60 -42 155q0 52 12 110q35 170 138.5 265t262.5 95q116 0 183 -52l65 67l32 -26zM160 151l441 455q-46 62 -142 62q-114 0 -190.5 -85
t-106.5 -233q-13 -67 -13 -113q0 -47 11 -86zM622 569l-445 -459q45 -78 152 -78q115 0 191.5 84.5t107.5 233.5q12 60 12 112q0 62 -18 107z" />
    <glyph glyph-name="Oslashacute" unicode="&#x1fe;" horiz-adv-x="725" 
d="M412 782l-12 25l133 107q26 23 47 23q15 0 22 -9t4 -21q-4 -23 -42 -42zM681 630q54 -63 54 -171q0 -50 -12 -109q-35 -171 -138.5 -265.5t-262.5 -94.5q-131 0 -198 64l-74 -76l-32 26l79 81q-42 60 -42 155q0 52 12 110q35 170 138.5 265t262.5 95q116 0 183 -52l65 67
l32 -26zM160 151l441 455q-46 62 -142 62q-114 0 -190.5 -85t-106.5 -233q-13 -67 -13 -113q0 -47 11 -86zM622 569l-445 -459q45 -78 152 -78q115 0 191.5 84.5t107.5 233.5q12 60 12 112q0 62 -18 107z" />
    <glyph glyph-name="Otilde" unicode="&#xd5;" horiz-adv-x="725" 
d="M320 791q18 42 47.5 69t66.5 27q16 0 30.5 -6.5t38.5 -20.5q20 -13 35.5 -19.5t30.5 -6.5q24 0 40.5 15t34.5 47l18 -11q-19 -44 -48 -72t-68 -28q-16 0 -29.5 6.5t-36.5 20.5q-20 13 -35 20t-32 7q-23 0 -41 -14.5t-34 -44.5zM123 54.5q-68 64.5 -68 185.5q0 52 12 110
q35 170 138.5 265t262.5 95q131 0 199 -65.5t68 -185.5q0 -50 -12 -109q-35 -171 -138.5 -265.5t-262.5 -94.5q-131 0 -199 64.5zM520.5 116.5q76.5 84.5 107.5 233.5q12 60 12 112q0 98 -45 152t-136 54q-114 0 -190.5 -85t-106.5 -233q-13 -67 -13 -113q0 -98 45 -151.5
t135 -53.5q115 0 191.5 84.5z" />
    <glyph glyph-name="OE" unicode="&#x152;" horiz-adv-x="1002" 
d="M1055 700l-35 -173h-24q3 36 3 47q0 85 -60 85h-213l-56 -271h167q28 0 42 24t28 73h22l-48 -234h-22q4 34 4 49q0 23 -7.5 35.5t-27.5 12.5h-166l-63 -308h227q70 0 115 139h25l-53 -179h-416l10 48q-87 -58 -192 -58q-127 0 -193.5 65.5t-66.5 185.5q0 51 12 109
q35 169 138.5 264.5t256.5 95.5q107 0 167 -58l10 48h416zM615 582q-20 42 -59 64t-94 22q-115 0 -192.5 -85.5t-107.5 -232.5q-12 -60 -12 -111q0 -99 46 -153.5t136 -54.5q111 0 189 86z" />
    <glyph glyph-name="P" unicode="P" horiz-adv-x="575" 
d="M-12 26h27q29 0 44.5 8.5t19.5 27.5l117 575q1 3 1 8q0 28 -49 28h-28l5 27h328q172 0 172 -145q0 -30 -8 -68q-43 -213 -250 -213h-151l-43 -212q-1 -3 -1 -9q0 -27 49 -27h29l-5 -26h-262zM357 314q69 0 110 45.5t58 127.5q7 32 7 64q0 108 -104 108h-133l-71 -345h133
z" />
    <glyph glyph-name="Thorn" unicode="&#xde;" horiz-adv-x="575" 
d="M-12 26h27q29 0 44.5 8.5t19.5 27.5l117 575q1 3 1 8q0 28 -49 28h-28l5 27h177l-23 -112h151q172 0 172 -144q0 -29 -8 -69q-43 -213 -250 -213h-151l-20 -100q-1 -3 -1 -9q0 -27 49 -27h29l-5 -26h-262zM335 203q132 0 167 172q8 38 8 65q0 108 -105 108h-133l-70 -345
h133z" />
    <glyph glyph-name="Q" unicode="Q" horiz-adv-x="725" 
d="M300 -9q-31 -16 -46 -26h12q28 0 52 -8.5t62 -26.5q35 -17 60 -26t52 -9q33 0 57 18.5t42 57.5h19q0 -6 -2 -18q-11 -50 -55.5 -86t-95.5 -36q-38 0 -67.5 15t-69.5 44q-31 23 -50.5 33.5t-41.5 10.5q-46 0 -96 -29l-5 14q63 49 127 76q-98 16 -148.5 78.5t-50.5 166.5
q0 52 12 110q35 170 138.5 265t262.5 95q131 0 199 -65.5t68 -185.5q0 -50 -12 -109q-35 -171 -138.5 -265.5t-262.5 -94.5q-15 0 -22 1zM194 85.5q45 -53.5 135 -53.5q115 0 191.5 84.5t107.5 233.5q12 60 12 112q0 98 -45 152t-136 54q-114 0 -190.5 -85t-106.5 -233
q-13 -67 -13 -113q0 -98 45 -151.5z" />
    <glyph glyph-name="R" unicode="R" horiz-adv-x="640" 
d="M560 367.5q-40 -49.5 -110 -67.5q25 -17 32.5 -46.5t10.5 -78.5t8.5 -78t22.5 -49.5t50 -21.5l-5 -26h-77q-46 0 -67 25.5t-26 76.5q-2 34 -2 53q0 51 -5 83.5t-23 51.5h-3h-147l-46 -228q-1 -3 -1 -9q0 -27 49 -27h29l-5 -26h-262l5 26h27q29 0 44.5 8.5t19.5 27.5
l117 575q1 3 1 8q0 28 -49 28h-28l5 27h324q91 0 133 -36t42 -105q0 -32 -7 -64q-17 -78 -57 -127.5zM532 554q0 105 -109 105h-128l-67 -328h128q136 0 169 164q7 39 7 59z" />
    <glyph glyph-name="Racute" unicode="&#x154;" horiz-adv-x="640" 
d="M370 782l-12 25l133 107q26 23 47 23q13 0 20 -7t7 -17q0 -27 -43 -48zM560 367.5q-40 -49.5 -110 -67.5q25 -17 32.5 -46.5t10.5 -78.5t8.5 -78t22.5 -49.5t50 -21.5l-5 -26h-77q-46 0 -67 25.5t-26 76.5q-2 34 -2 53q0 51 -5 83.5t-23 51.5h-3h-147l-46 -228
q-1 -3 -1 -9q0 -27 49 -27h29l-5 -26h-262l5 26h27q29 0 44.5 8.5t19.5 27.5l117 575q1 3 1 8q0 28 -49 28h-28l5 27h324q91 0 133 -36t42 -105q0 -32 -7 -64q-17 -78 -57 -127.5zM532 554q0 105 -109 105h-128l-67 -328h128q136 0 169 164q7 39 7 59z" />
    <glyph glyph-name="Rcaron" unicode="&#x158;" horiz-adv-x="640" 
d="M420 782l-93 129l22 21l87 -85q13 -11 20 -11q9 0 25 11l121 85l13 -21l-145 -129h-50zM560 367.5q-40 -49.5 -110 -67.5q25 -17 32.5 -46.5t10.5 -78.5t8.5 -78t22.5 -49.5t50 -21.5l-5 -26h-77q-46 0 -67 25.5t-26 76.5q-2 34 -2 53q0 51 -5 83.5t-23 51.5h-3h-147
l-46 -228q-1 -3 -1 -9q0 -27 49 -27h29l-5 -26h-262l5 26h27q29 0 44.5 8.5t19.5 27.5l117 575q1 3 1 8q0 28 -49 28h-28l5 27h324q91 0 133 -36t42 -105q0 -32 -7 -64q-17 -78 -57 -127.5zM532 554q0 105 -109 105h-128l-67 -328h128q136 0 169 164q7 39 7 59z" />
    <glyph glyph-name="Rcommaaccent" unicode="&#x156;" horiz-adv-x="640" 
d="M560 367.5q-40 -49.5 -110 -67.5q25 -17 32.5 -46.5t10.5 -78.5t8.5 -78t22.5 -49.5t50 -21.5l-5 -26h-77q-46 0 -67 25.5t-26 76.5q-2 34 -2 53q0 51 -5 83.5t-23 51.5h-3h-147l-46 -228q-1 -3 -1 -9q0 -27 49 -27h29l-5 -26h-262l5 26h27q29 0 44.5 8.5t19.5 27.5
l117 575q1 3 1 8q0 28 -49 28h-28l5 27h324q91 0 133 -36t42 -105q0 -32 -7 -64q-17 -78 -57 -127.5zM532 554q0 105 -109 105h-128l-67 -328h128q136 0 169 164q7 39 7 59zM306 -78.5q11 -11.5 11 -34.5q0 -14 -2 -22q-10 -46 -45.5 -89t-84.5 -75l-12 17q60 50 70 95
q1 3 1 10q0 12 -10 28q-4 7 -7 14t-3 15q0 21 15.5 37t37.5 16q18 0 29 -11.5z" />
    <glyph glyph-name="uni1E5A" unicode="&#x1e5a;" horiz-adv-x="640" 
d="M560 367.5q-40 -49.5 -110 -67.5q25 -17 32.5 -46.5t10.5 -78.5t8.5 -78t22.5 -49.5t50 -21.5l-5 -26h-77q-46 0 -67 25.5t-26 76.5q-2 34 -2 53q0 51 -5 83.5t-23 51.5h-3h-147l-46 -228q-1 -3 -1 -9q0 -27 49 -27h29l-5 -26h-262l5 26h27q29 0 44.5 8.5t19.5 27.5
l117 575q1 3 1 8q0 28 -49 28h-28l5 27h324q91 0 133 -36t42 -105q0 -32 -7 -64q-17 -78 -57 -127.5zM532 554q0 105 -109 105h-128l-67 -328h128q136 0 169 164q7 39 7 59zM310.5 -74q9.5 -10 9.5 -27q0 -25 -16 -41.5t-39 -16.5q-17 0 -27 9.5t-10 26.5q0 25 16.5 42
t39.5 17q17 0 26.5 -10z" />
    <glyph glyph-name="uni1E5C" unicode="&#x1e5c;" horiz-adv-x="640" 
d="M568 779h-318l8 42h319zM560 367.5q-40 -49.5 -110 -67.5q25 -17 32.5 -46.5t10.5 -78.5t8.5 -78t22.5 -49.5t50 -21.5l-5 -26h-77q-46 0 -67 25.5t-26 76.5q-2 34 -2 53q0 51 -5 83.5t-23 51.5h-3h-147l-46 -228q-1 -3 -1 -9q0 -27 49 -27h29l-5 -26h-262l5 26h27
q29 0 44.5 8.5t19.5 27.5l117 575q1 3 1 8q0 28 -49 28h-28l5 27h324q91 0 133 -36t42 -105q0 -32 -7 -64q-17 -78 -57 -127.5zM532 554q0 105 -109 105h-128l-67 -328h128q136 0 169 164q7 39 7 59zM310.5 -74q9.5 -10 9.5 -27q0 -25 -16 -41.5t-39 -16.5q-17 0 -27 9.5
t-10 26.5q0 25 16.5 42t39.5 17q17 0 26.5 -10z" />
    <glyph glyph-name="uni1E5E" unicode="&#x1e5e;" horiz-adv-x="640" 
d="M560 367.5q-40 -49.5 -110 -67.5q25 -17 32.5 -46.5t10.5 -78.5t8.5 -78t22.5 -49.5t50 -21.5l-5 -26h-77q-46 0 -67 25.5t-26 76.5q-2 34 -2 53q0 51 -5 83.5t-23 51.5h-3h-147l-46 -228q-1 -3 -1 -9q0 -27 49 -27h29l-5 -26h-262l5 26h27q29 0 44.5 8.5t19.5 27.5
l117 575q1 3 1 8q0 28 -49 28h-28l5 27h324q91 0 133 -36t42 -105q0 -32 -7 -64q-17 -78 -57 -127.5zM532 554q0 105 -109 105h-128l-67 -328h128q136 0 169 164q7 39 7 59zM91 -72h318l-8 -38h-317z" />
    <glyph glyph-name="S" unicode="S" horiz-adv-x="559" 
d="M153 6q-38 16 -73 40q-21 14 -26 14q-9 0 -12 -17l-8 -43h-35l38 190h28q-4 -47 18 -83t60.5 -56t84.5 -20q74 0 126.5 36t66.5 103q3 14 3 25q0 33 -19 58t-47 42t-77 41q-53 26 -85.5 46.5t-55 51.5t-22.5 73q0 19 4 36q17 81 86 124t169 43q49 0 84 -14t64 -34
q17 -10 20 -10q6 0 8 9l10 45h35l-39 -191h-28q1 6 1 19q0 63 -39.5 98.5t-103.5 35.5q-69 0 -114 -30.5t-56 -82.5q-2 -7 -2 -21q0 -29 18 -51t44.5 -37.5t72.5 -36.5q57 -27 90.5 -47.5t57.5 -54t24 -81.5q0 -17 -5 -42q-19 -92 -94.5 -143t-178.5 -51q-55 0 -93 16z" />
    <glyph glyph-name="Sacute" unicode="&#x15a;" horiz-adv-x="559" 
d="M312 807l132 107q14 11 24.5 17t23.5 6q15 0 21.5 -9t3.5 -21q-3 -23 -41 -42l-152 -83zM153 6q-38 16 -73 40q-21 14 -26 14q-9 0 -12 -17l-8 -43h-35l38 190h28q-4 -47 18 -83t60.5 -56t84.5 -20q74 0 126.5 36t66.5 103q3 14 3 25q0 33 -19 58t-47 42t-77 41
q-53 26 -85.5 46.5t-55 51.5t-22.5 73q0 19 4 36q17 81 86 124t169 43q49 0 84 -14t64 -34q17 -10 20 -10q6 0 8 9l10 45h35l-39 -191h-28q1 6 1 19q0 63 -39.5 98.5t-103.5 35.5q-69 0 -114 -30.5t-56 -82.5q-2 -7 -2 -21q0 -29 18 -51t44.5 -37.5t72.5 -36.5
q57 -27 90.5 -47.5t57.5 -54t24 -81.5q0 -17 -5 -42q-19 -92 -94.5 -143t-178.5 -51q-55 0 -93 16z" />
    <glyph glyph-name="Scaron" unicode="&#x160;" horiz-adv-x="559" 
d="M275 911l22 21l86 -85q13 -11 20 -11q11 0 25 11l121 85l14 -21l-145 -129h-51zM153 6q-38 16 -73 40q-21 14 -26 14q-9 0 -12 -17l-8 -43h-35l38 190h28q-4 -47 18 -83t60.5 -56t84.5 -20q74 0 126.5 36t66.5 103q3 14 3 25q0 33 -19 58t-47 42t-77 41
q-53 26 -85.5 46.5t-55 51.5t-22.5 73q0 19 4 36q17 81 86 124t169 43q49 0 84 -14t64 -34q17 -10 20 -10q6 0 8 9l10 45h35l-39 -191h-28q1 6 1 19q0 63 -39.5 98.5t-103.5 35.5q-69 0 -114 -30.5t-56 -82.5q-2 -7 -2 -21q0 -29 18 -51t44.5 -37.5t72.5 -36.5
q57 -27 90.5 -47.5t57.5 -54t24 -81.5q0 -17 -5 -42q-19 -92 -94.5 -143t-178.5 -51q-55 0 -93 16z" />
    <glyph glyph-name="Scedilla" unicode="&#x15e;" horiz-adv-x="559" 
d="M598 706l-39 -191h-28q1 6 1 19q0 63 -39.5 98.5t-103.5 35.5q-69 0 -114 -30.5t-56 -82.5q-2 -7 -2 -21q0 -29 18 -51t44.5 -37.5t72.5 -36.5q57 -27 90.5 -47.5t57.5 -54t24 -81.5q0 -17 -5 -42q-19 -92 -94.5 -143t-178.5 -51h-4l-31 -45q33 0 58.5 -13.5t25.5 -43.5
q0 -9 -1 -14q-10 -48 -52.5 -68t-98.5 -20q-23 0 -46 5l11 29q9 -2 30 -2q84 0 94 54q5 23 -18.5 31.5t-51.5 8.5l-8 16l49 65q-39 6 -66.5 19.5t-56.5 33.5q-2 2 -11.5 8t-14.5 6q-9 0 -12 -17l-8 -43h-35l38 190h28q-4 -47 18 -83t60.5 -56t84.5 -20q74 0 126.5 36
t66.5 103q3 14 3 25q0 33 -19 58t-47 42t-77 41q-53 26 -85.5 46.5t-55 51.5t-22.5 73q0 19 4 36q17 81 86 124t169 43q49 0 84 -14t64 -34q17 -10 20 -10q6 0 8 9l10 45h35z" />
    <glyph glyph-name="Scircumflex" unicode="&#x15c;" horiz-adv-x="559" 
d="M252 803l145 129h51l92 -129l-22 -21l-86 86q-6 4 -11 7.5t-9 3.5q-8 0 -25 -11l-120 -86zM153 6q-38 16 -73 40q-21 14 -26 14q-9 0 -12 -17l-8 -43h-35l38 190h28q-4 -47 18 -83t60.5 -56t84.5 -20q74 0 126.5 36t66.5 103q3 14 3 25q0 33 -19 58t-47 42t-77 41
q-53 26 -85.5 46.5t-55 51.5t-22.5 73q0 19 4 36q17 81 86 124t169 43q49 0 84 -14t64 -34q17 -10 20 -10q6 0 8 9l10 45h35l-39 -191h-28q1 6 1 19q0 63 -39.5 98.5t-103.5 35.5q-69 0 -114 -30.5t-56 -82.5q-2 -7 -2 -21q0 -29 18 -51t44.5 -37.5t72.5 -36.5
q57 -27 90.5 -47.5t57.5 -54t24 -81.5q0 -17 -5 -42q-19 -92 -94.5 -143t-178.5 -51q-55 0 -93 16z" />
    <glyph glyph-name="Scommaaccent" unicode="&#x218;" horiz-adv-x="559" 
d="M153 6q-38 16 -73 40q-21 14 -26 14q-9 0 -12 -17l-8 -43h-35l38 190h28q-4 -47 18 -83t60.5 -56t84.5 -20q74 0 126.5 36t66.5 103q3 14 3 25q0 33 -19 58t-47 42t-77 41q-53 26 -85.5 46.5t-55 51.5t-22.5 73q0 19 4 36q17 81 86 124t169 43q49 0 84 -14t64 -34
q17 -10 20 -10q6 0 8 9l10 45h35l-39 -191h-28q1 6 1 19q0 63 -39.5 98.5t-103.5 35.5q-69 0 -114 -30.5t-56 -82.5q-2 -7 -2 -21q0 -29 18 -51t44.5 -37.5t72.5 -36.5q57 -27 90.5 -47.5t57.5 -54t24 -81.5q0 -17 -5 -42q-19 -92 -94.5 -143t-178.5 -51q-55 0 -93 16z
M98 -270q61 52 71 96q1 3 1 9q0 14 -11 29q-10 16 -10 28q0 6 1 9q5 19 19.5 31.5t34.5 12.5q18 0 29 -11t11 -33q0 -50 -37.5 -98t-95.5 -89z" />
    <glyph glyph-name="uni1E60" unicode="&#x1e60;" horiz-adv-x="559" 
d="M377 791q-9 9 -9 25q0 25 16 42t39 17q17 0 26.5 -9.5t9.5 -25.5q0 -25 -16 -41.5t-39 -16.5q-18 0 -27 9zM153 6q-38 16 -73 40q-21 14 -26 14q-9 0 -12 -17l-8 -43h-35l38 190h28q-4 -47 18 -83t60.5 -56t84.5 -20q74 0 126.5 36t66.5 103q3 14 3 25q0 33 -19 58
t-47 42t-77 41q-53 26 -85.5 46.5t-55 51.5t-22.5 73q0 19 4 36q17 81 86 124t169 43q49 0 84 -14t64 -34q17 -10 20 -10q6 0 8 9l10 45h35l-39 -191h-28q1 6 1 19q0 63 -39.5 98.5t-103.5 35.5q-69 0 -114 -30.5t-56 -82.5q-2 -7 -2 -21q0 -29 18 -51t44.5 -37.5
t72.5 -36.5q57 -27 90.5 -47.5t57.5 -54t24 -81.5q0 -17 -5 -42q-19 -92 -94.5 -143t-178.5 -51q-55 0 -93 16z" />
    <glyph glyph-name="uni1E62" unicode="&#x1e62;" horiz-adv-x="559" 
d="M153 6q-38 16 -73 40q-21 14 -26 14q-9 0 -12 -17l-8 -43h-35l38 190h28q-4 -47 18 -83t60.5 -56t84.5 -20q74 0 126.5 36t66.5 103q3 14 3 25q0 33 -19 58t-47 42t-77 41q-53 26 -85.5 46.5t-55 51.5t-22.5 73q0 19 4 36q17 81 86 124t169 43q49 0 84 -14t64 -34
q17 -10 20 -10q6 0 8 9l10 45h35l-39 -191h-28q1 6 1 19q0 63 -39.5 98.5t-103.5 35.5q-69 0 -114 -30.5t-56 -82.5q-2 -7 -2 -21q0 -29 18 -51t44.5 -37.5t72.5 -36.5q57 -27 90.5 -47.5t57.5 -54t24 -81.5q0 -17 -5 -42q-19 -92 -94.5 -143t-178.5 -51q-55 0 -93 16z
M182.5 -149.5q-9.5 9.5 -9.5 25.5q0 25 16 42.5t39 17.5q17 0 26.5 -9.5t9.5 -26.5q0 -25 -16 -42t-39 -17q-17 0 -26.5 9.5z" />
    <glyph glyph-name="uni1E9E" unicode="&#x1e9e;" horiz-adv-x="675" 
d="M229 14l9 42q58 -27 132 -27q72 0 122 47.5t66 126.5q4 19 4 39q0 56 -34.5 87.5t-103.5 31.5h-59l6 26l182 168q-5 50 -35.5 81.5t-87.5 31.5q-72 0 -121.5 -46t-65.5 -127l-88 -432q-1 -3 -1 -9q0 -12 8 -20t22 -8h27l-5 -26h-240l5 26h27q57 0 64 36l83 408
q23 112 99.5 176t200.5 64q62 0 105 -23t65.5 -59t25.5 -75l-172 -155q90 -8 137.5 -48t47.5 -106q0 -22 -4 -41q-20 -94 -90.5 -153.5t-194.5 -59.5q-80 0 -136 24z" />
    <glyph glyph-name="uni018F" unicode="&#x18f;" horiz-adv-x="664" 
d="M607 641.5q67 -68.5 67 -190.5q0 -54 -11 -105q-35 -170 -135 -263t-252 -93q-118 0 -174.5 60t-56.5 161q0 46 10 92l5 30h505l2 8q11 57 11 103q0 99 -48.5 157.5t-147.5 58.5q-75 0 -139 -39t-99 -121h-41q19 60 63.5 107.5t109 75t140.5 27.5q124 0 191 -68.5z
M448 108q70 69 104 175h-406q-7 -38 -7 -70q0 -75 34 -124.5t110 -49.5q95 0 165 69z" />
    <glyph glyph-name="T" unicode="T" horiz-adv-x="626" 
d="M149 26h27q55 0 64 36l122 597h-134q-38 0 -63.5 -50t-37.5 -101h-26l39 192h553l-39 -192h-26q6 30 6 67q0 84 -45 84h-133l-122 -597q-1 -3 -1 -9q0 -27 49 -27h28l-5 -26h-261z" />
    <glyph glyph-name="Tbar" unicode="&#x166;" horiz-adv-x="626" 
d="M693 700l-39 -192h-26q6 30 6 67q0 84 -45 84h-133l-60 -296h139l-10 -46h-139l-52 -255q-1 -3 -1 -9q0 -27 49 -27h28l-5 -26h-261l5 26h27q55 0 64 36l52 255h-137l9 46h138l60 296h-134q-38 0 -63.5 -50t-37.5 -101h-26l39 192h553z" />
    <glyph glyph-name="Tcaron" unicode="&#x164;" horiz-adv-x="626" 
d="M315 911l22 21l86 -85q13 -11 21 -11q10 0 24 11l121 85l14 -21l-145 -129h-51zM149 26h27q55 0 64 36l122 597h-134q-38 0 -63.5 -50t-37.5 -101h-26l39 192h553l-39 -192h-26q6 30 6 67q0 84 -45 84h-133l-122 -597q-1 -3 -1 -9q0 -27 49 -27h28l-5 -26h-261z" />
    <glyph glyph-name="uni0162" unicode="&#x162;" horiz-adv-x="626" 
d="M693 700l-39 -192h-26q6 30 6 67q0 84 -45 84h-133l-122 -597q-1 -3 -1 -9q0 -27 49 -27h28l-5 -26h-113l-39 -55q34 0 59.5 -13t25.5 -44q0 -9 -1 -14q-10 -48 -52.5 -68t-99.5 -20q-21 0 -46 5l12 29q8 -2 29 -2q84 0 96 54q5 23 -19 31.5t-53 8.5l-8 16l54 72h-106
l5 26h27q55 0 64 36l122 597h-134q-38 0 -63.5 -50t-37.5 -101h-26l39 192h553z" />
    <glyph glyph-name="uni021A" unicode="&#x21a;" horiz-adv-x="626" 
d="M149 26h27q55 0 64 36l122 597h-134q-38 0 -63.5 -50t-37.5 -101h-26l39 192h553l-39 -192h-26q6 30 6 67q0 84 -45 84h-133l-122 -597q-1 -3 -1 -9q0 -27 49 -27h28l-5 -26h-261zM146 -282q60 50 70 95q1 3 1 10q0 12 -10 28q-4 7 -7 14t-3 15q0 22 15.5 37.5t38.5 15.5
q18 0 29 -11t11 -34q0 -10 -3 -23q-9 -45 -44.5 -88.5t-85.5 -75.5z" />
    <glyph glyph-name="uni1E6C" unicode="&#x1e6c;" horiz-adv-x="626" 
d="M149 26h27q55 0 64 36l122 597h-134q-38 0 -63.5 -50t-37.5 -101h-26l39 192h553l-39 -192h-26q6 30 6 67q0 84 -45 84h-133l-122 -597q-1 -3 -1 -9q0 -27 49 -27h28l-5 -26h-261zM216 -149.5q-10 9.5 -10 26.5q0 25 16.5 42t39.5 17q17 0 26.5 -10t9.5 -27
q0 -25 -16 -41.5t-39 -16.5q-17 0 -27 9.5z" />
    <glyph glyph-name="uni1E6E" unicode="&#x1e6e;" horiz-adv-x="626" 
d="M149 26h27q55 0 64 36l122 597h-134q-38 0 -63.5 -50t-37.5 -101h-26l39 192h553l-39 -192h-26q6 30 6 67q0 84 -45 84h-133l-122 -597q-1 -3 -1 -9q0 -27 49 -27h28l-5 -26h-261zM100 -72h318l-8 -38h-318z" />
    <glyph glyph-name="U" unicode="U" horiz-adv-x="712" 
d="M154 26q-57 36 -57 117q0 30 7 61l88 433q4 18 -8 27t-36 9h-22l5 27h241l-4 -27h-22q-24 0 -40 -9t-20 -27l-90 -440q-5 -22 -5 -49q0 -65 41.5 -91t115.5 -26q78 0 137.5 37.5t78.5 128.5l90 440q4 18 -8 27t-36 9h-22l5 27h195l-5 -27h-22q-23 0 -39 -9t-20 -27
l-89 -433q-23 -111 -97.5 -162.5t-196.5 -51.5q-108 0 -165 36z" />
    <glyph glyph-name="Uacute" unicode="&#xda;" horiz-adv-x="712" 
d="M402 807l133 107q26 23 47 23q15 0 22 -9t4 -21q-4 -23 -42 -42l-152 -83zM154 26q-57 36 -57 117q0 30 7 61l88 433q4 18 -8 27t-36 9h-22l5 27h241l-4 -27h-22q-24 0 -40 -9t-20 -27l-90 -440q-5 -22 -5 -49q0 -65 41.5 -91t115.5 -26q78 0 137.5 37.5t78.5 128.5
l90 440q4 18 -8 27t-36 9h-22l5 27h195l-5 -27h-22q-23 0 -39 -9t-20 -27l-89 -433q-23 -111 -97.5 -162.5t-196.5 -51.5q-108 0 -165 36z" />
    <glyph glyph-name="Ubreve" unicode="&#x16c;" horiz-adv-x="712" 
d="M370 877q0 8 2 28h32q-4 -43 20.5 -64t71.5 -21q48 0 80.5 21t44.5 64h32q-15 -60 -56 -95.5t-109 -35.5q-118 0 -118 103zM154 26q-57 36 -57 117q0 30 7 61l88 433q4 18 -8 27t-36 9h-22l5 27h241l-4 -27h-22q-24 0 -40 -9t-20 -27l-90 -440q-5 -22 -5 -49
q0 -65 41.5 -91t115.5 -26q78 0 137.5 37.5t78.5 128.5l90 440q4 18 -8 27t-36 9h-22l5 27h195l-5 -27h-22q-23 0 -39 -9t-20 -27l-89 -433q-23 -111 -97.5 -162.5t-196.5 -51.5q-108 0 -165 36z" />
    <glyph glyph-name="uni01D3" unicode="&#x1d3;" horiz-adv-x="712" 
d="M358 911l22 21l87 -85q11 -11 20 -11t25 11l121 85l13 -21l-145 -129h-51zM154 26q-57 36 -57 117q0 30 7 61l88 433q4 18 -8 27t-36 9h-22l5 27h241l-4 -27h-22q-24 0 -40 -9t-20 -27l-90 -440q-5 -22 -5 -49q0 -65 41.5 -91t115.5 -26q78 0 137.5 37.5t78.5 128.5
l90 440q4 18 -8 27t-36 9h-22l5 27h195l-5 -27h-22q-23 0 -39 -9t-20 -27l-89 -433q-23 -111 -97.5 -162.5t-196.5 -51.5q-108 0 -165 36z" />
    <glyph glyph-name="Ucircumflex" unicode="&#xdb;" horiz-adv-x="712" 
d="M348 803l145 129h51l92 -129l-22 -21l-86 86q-6 4 -11 7.5t-9 3.5q-8 0 -25 -11l-120 -86zM154 26q-57 36 -57 117q0 30 7 61l88 433q4 18 -8 27t-36 9h-22l5 27h241l-4 -27h-22q-24 0 -40 -9t-20 -27l-90 -440q-5 -22 -5 -49q0 -65 41.5 -91t115.5 -26q78 0 137.5 37.5
t78.5 128.5l90 440q4 18 -8 27t-36 9h-22l5 27h195l-5 -27h-22q-23 0 -39 -9t-20 -27l-89 -433q-23 -111 -97.5 -162.5t-196.5 -51.5q-108 0 -165 36z" />
    <glyph glyph-name="Udieresis" unicode="&#xdc;" horiz-adv-x="712" 
d="M357.5 791q-9.5 10 -9.5 27l1 9q5 21 19.5 34.5t34.5 13.5q18 0 27 -9.5t9 -25.5q0 -26 -15.5 -42.5t-39.5 -16.5q-17 0 -26.5 10zM564 790.5q-10 9.5 -10 26.5q0 6 1 10q5 21 20 34.5t36 13.5q17 0 26 -9.5t9 -25.5q0 -26 -15.5 -42.5t-39.5 -16.5q-17 0 -27 9.5z
M154 26q-57 36 -57 117q0 30 7 61l88 433q4 18 -8 27t-36 9h-22l5 27h241l-4 -27h-22q-24 0 -40 -9t-20 -27l-90 -440q-5 -22 -5 -49q0 -65 41.5 -91t115.5 -26q78 0 137.5 37.5t78.5 128.5l90 440q4 18 -8 27t-36 9h-22l5 27h195l-5 -27h-22q-23 0 -39 -9t-20 -27l-89 -433
q-23 -111 -97.5 -162.5t-196.5 -51.5q-108 0 -165 36z" />
    <glyph glyph-name="uni01D7" unicode="&#x1d7;" horiz-adv-x="712" 
d="M479 924l106 89q27 24 49 24q24 0 24 -22q0 -26 -38 -46l-128 -70zM346 789.5q-10 9.5 -10 25.5q0 25 16 42.5t39 17.5q18 0 27.5 -9.5t9.5 -26.5q0 -25 -16.5 -42t-39.5 -17q-16 0 -26 9.5zM553 789.5q-10 9.5 -10 26.5q0 25 16.5 42t39.5 17q17 0 27 -10t10 -27
q0 -25 -16.5 -41.5t-39.5 -16.5q-17 0 -27 9.5zM154 26q-57 36 -57 117q0 30 7 61l88 433q4 18 -8 27t-36 9h-22l5 27h241l-4 -27h-22q-24 0 -40 -9t-20 -27l-90 -440q-5 -22 -5 -49q0 -65 41.5 -91t115.5 -26q78 0 137.5 37.5t78.5 128.5l90 440q4 18 -8 27t-36 9h-22l5 27
h195l-5 -27h-22q-23 0 -39 -9t-20 -27l-89 -433q-23 -111 -97.5 -162.5t-196.5 -51.5q-108 0 -165 36z" />
    <glyph glyph-name="uni01D9" unicode="&#x1d9;" horiz-adv-x="712" 
d="M391 1035l21 21l81 -78q17 -15 24 -15q8 0 18.5 7t12.5 8l112 78l14 -21l-143 -124h-49zM350.5 789.5q-9.5 9.5 -9.5 25.5q0 25 16 42.5t39 17.5q17 0 27 -10t10 -26q0 -26 -16.5 -42.5t-40.5 -16.5q-16 0 -25.5 9.5zM558 789.5q-10 9.5 -10 25.5q0 25 16.5 42.5
t39.5 17.5q17 0 26.5 -9.5t9.5 -26.5q0 -25 -16 -42t-39 -17q-17 0 -27 9.5zM154 26q-57 36 -57 117q0 30 7 61l88 433q4 18 -8 27t-36 9h-22l5 27h241l-4 -27h-22q-24 0 -40 -9t-20 -27l-90 -440q-5 -22 -5 -49q0 -65 41.5 -91t115.5 -26q78 0 137.5 37.5t78.5 128.5
l90 440q4 18 -8 27t-36 9h-22l5 27h195l-5 -27h-22q-23 0 -39 -9t-20 -27l-89 -433q-23 -111 -97.5 -162.5t-196.5 -51.5q-108 0 -165 36z" />
    <glyph glyph-name="uni01DB" unicode="&#x1db;" horiz-adv-x="712" 
d="M414 969q-23 15 -23 33q0 14 10 24t27 10q23 0 39 -23l69 -89l-22 -25zM350.5 789.5q-9.5 9.5 -9.5 25.5q0 25 16 42.5t39 17.5q17 0 27 -10t10 -26q0 -26 -16.5 -42.5t-40.5 -16.5q-16 0 -25.5 9.5zM558 789.5q-10 9.5 -10 25.5q0 25 16.5 42.5t39.5 17.5
q17 0 26.5 -9.5t9.5 -26.5q0 -25 -16 -42t-39 -17q-17 0 -27 9.5zM154 26q-57 36 -57 117q0 30 7 61l88 433q4 18 -8 27t-36 9h-22l5 27h241l-4 -27h-22q-24 0 -40 -9t-20 -27l-90 -440q-5 -22 -5 -49q0 -65 41.5 -91t115.5 -26q78 0 137.5 37.5t78.5 128.5l90 440
q4 18 -8 27t-36 9h-22l5 27h195l-5 -27h-22q-23 0 -39 -9t-20 -27l-89 -433q-23 -111 -97.5 -162.5t-196.5 -51.5q-108 0 -165 36z" />
    <glyph glyph-name="uni01D5" unicode="&#x1d5;" horiz-adv-x="712" 
d="M355 970h319l-9 -42h-318zM346 791q-10 10 -10 26q0 6 1 10q5 21 19.5 34.5t34.5 13.5q17 0 26.5 -9.5t9.5 -25.5q0 -25 -16 -42t-39 -17q-16 0 -26 10zM551 791q-10 10 -10 27l1 9q5 21 20 34.5t36 13.5q17 0 26.5 -10t9.5 -26q0 -25 -15.5 -41.5t-39.5 -16.5
q-18 0 -28 10zM154 26q-57 36 -57 117q0 30 7 61l88 433q4 18 -8 27t-36 9h-22l5 27h241l-4 -27h-22q-24 0 -40 -9t-20 -27l-90 -440q-5 -22 -5 -49q0 -65 41.5 -91t115.5 -26q78 0 137.5 37.5t78.5 128.5l90 440q4 18 -8 27t-36 9h-22l5 27h195l-5 -27h-22q-23 0 -39 -9
t-20 -27l-89 -433q-23 -111 -97.5 -162.5t-196.5 -51.5q-108 0 -165 36z" />
    <glyph glyph-name="uni1EE4" unicode="&#x1ee4;" horiz-adv-x="712" 
d="M154 26q-57 36 -57 117q0 30 7 61l88 433q4 18 -8 27t-36 9h-22l5 27h241l-4 -27h-22q-24 0 -40 -9t-20 -27l-90 -440q-5 -22 -5 -49q0 -65 41.5 -91t115.5 -26q78 0 137.5 37.5t78.5 128.5l90 440q4 18 -8 27t-36 9h-22l5 27h195l-5 -27h-22q-23 0 -39 -9t-20 -27
l-89 -433q-23 -111 -97.5 -162.5t-196.5 -51.5q-108 0 -165 36zM265 -149.5q-10 9.5 -10 26.5q0 25 16.5 42t39.5 17q17 0 26.5 -10t9.5 -27q0 -25 -16 -41.5t-39 -16.5q-17 0 -27 9.5z" />
    <glyph glyph-name="Ugrave" unicode="&#xd9;" horiz-adv-x="712" 
d="M444 865q-22 14 -22 36q0 15 11 25.5t27 10.5q22 0 38 -24l89 -106l-23 -25zM154 26q-57 36 -57 117q0 30 7 61l88 433q4 18 -8 27t-36 9h-22l5 27h241l-4 -27h-22q-24 0 -40 -9t-20 -27l-90 -440q-5 -22 -5 -49q0 -65 41.5 -91t115.5 -26q78 0 137.5 37.5t78.5 128.5
l90 440q4 18 -8 27t-36 9h-22l5 27h195l-5 -27h-22q-23 0 -39 -9t-20 -27l-89 -433q-23 -111 -97.5 -162.5t-196.5 -51.5q-108 0 -165 36z" />
    <glyph glyph-name="uni1EE6" unicode="&#x1ee6;" horiz-adv-x="712" 
d="M470 819q0 19 13 32t39 29q25 15 37.5 27t12.5 30q0 11 -7.5 18t-19.5 7t-23 -5t-17 -15q-1 -2 -5 -9.5t-11 -12.5t-17 -5q-18 0 -18 17q0 28 28.5 43.5t67.5 15.5q34 0 53.5 -13t19.5 -38q0 -8 -1 -13q-3 -19 -18 -31.5t-44 -29.5q-22 -13 -33 -22t-11 -20
q0 -10 6 -15.5t18 -10.5l-12 -20q-58 0 -58 41zM154 26q-57 36 -57 117q0 30 7 61l88 433q4 18 -8 27t-36 9h-22l5 27h241l-4 -27h-22q-24 0 -40 -9t-20 -27l-90 -440q-5 -22 -5 -49q0 -65 41.5 -91t115.5 -26q78 0 137.5 37.5t78.5 128.5l90 440q4 18 -8 27t-36 9h-22l5 27
h195l-5 -27h-22q-23 0 -39 -9t-20 -27l-89 -433q-23 -111 -97.5 -162.5t-196.5 -51.5q-108 0 -165 36z" />
    <glyph glyph-name="Uhorn" unicode="&#x1af;" horiz-adv-x="712" 
d="M154 26q-57 36 -57 117q0 30 7 61l88 433q4 18 -8 27t-36 9h-22l5 27h241l-4 -27h-22q-24 0 -40 -9t-20 -27l-90 -440q-5 -22 -5 -49q0 -65 41.5 -91t115.5 -26q78 0 137.5 37.5t78.5 128.5l90 440q4 18 -8 27t-36 9h-22l5 27h164q33 0 53 18.5t26 46.5q1 3 1 8
q0 12 -9 26q-1 2 -5 9.5t-4 17.5q0 7 1 10q5 19 19.5 31.5t34.5 12.5q18 0 29 -11.5t11 -33.5q0 -11 -3 -23q-11 -56 -51.5 -96t-93.5 -42q-57 -2 -64 -37l-89 -433q-23 -111 -97.5 -162.5t-196.5 -51.5q-108 0 -165 36z" />
    <glyph glyph-name="uni1EE8" unicode="&#x1ee8;" horiz-adv-x="712" 
d="M440 805l132 107q14 11 24 17t23 6q15 0 22 -9t4 -21q-4 -24 -41 -42l-153 -83zM154 26q-57 36 -57 117q0 30 7 61l88 433q4 18 -8 27t-36 9h-22l5 27h241l-4 -27h-22q-24 0 -40 -9t-20 -27l-90 -440q-5 -22 -5 -49q0 -65 41.5 -91t115.5 -26q78 0 137.5 37.5t78.5 128.5
l90 440q4 18 -8 27t-36 9h-22l5 27h164q33 0 53 18.5t26 46.5q1 3 1 8q0 12 -9 26q-1 2 -5 9.5t-4 17.5q0 7 1 10q5 19 19.5 31.5t34.5 12.5q18 0 29 -11.5t11 -33.5q0 -11 -3 -23q-11 -56 -51.5 -96t-93.5 -42q-57 -2 -64 -37l-89 -433q-23 -111 -97.5 -162.5t-196.5 -51.5
q-108 0 -165 36z" />
    <glyph glyph-name="uni1EF0" unicode="&#x1ef0;" horiz-adv-x="712" 
d="M154 26q-57 36 -57 117q0 30 7 61l88 433q4 18 -8 27t-36 9h-22l5 27h241l-4 -27h-22q-24 0 -40 -9t-20 -27l-90 -440q-5 -22 -5 -49q0 -65 41.5 -91t115.5 -26q78 0 137.5 37.5t78.5 128.5l90 440q4 18 -8 27t-36 9h-22l5 27h164q33 0 53 18.5t26 46.5q1 3 1 8
q0 12 -9 26q-1 2 -5 9.5t-4 17.5q0 7 1 10q5 19 19.5 31.5t34.5 12.5q18 0 29 -11.5t11 -33.5q0 -11 -3 -23q-11 -56 -51.5 -96t-93.5 -42q-57 -2 -64 -37l-89 -433q-23 -111 -97.5 -162.5t-196.5 -51.5q-108 0 -165 36zM277.5 -149.5q-9.5 9.5 -9.5 25.5q0 25 16.5 42.5
t39.5 17.5q16 0 25.5 -9.5t9.5 -26.5q0 -25 -16 -42t-39 -17q-17 0 -26.5 9.5z" />
    <glyph glyph-name="uni1EEA" unicode="&#x1eea;" horiz-adv-x="712" 
d="M444 863q-21 15 -21 35q0 15 11 26t27 11q19 0 38 -24l89 -106l-23 -25zM154 26q-57 36 -57 117q0 30 7 61l88 433q4 18 -8 27t-36 9h-22l5 27h241l-4 -27h-22q-24 0 -40 -9t-20 -27l-90 -440q-5 -22 -5 -49q0 -65 41.5 -91t115.5 -26q78 0 137.5 37.5t78.5 128.5l90 440
q4 18 -8 27t-36 9h-22l5 27h164q33 0 53 18.5t26 46.5q1 3 1 8q0 12 -9 26q-1 2 -5 9.5t-4 17.5q0 7 1 10q5 19 19.5 31.5t34.5 12.5q18 0 29 -11.5t11 -33.5q0 -11 -3 -23q-11 -56 -51.5 -96t-93.5 -42q-57 -2 -64 -37l-89 -433q-23 -111 -97.5 -162.5t-196.5 -51.5
q-108 0 -165 36z" />
    <glyph glyph-name="uni1EEC" unicode="&#x1eec;" horiz-adv-x="712" 
d="M479 818q0 19 13.5 32.5t38.5 29.5q22 14 34 24.5t15 25.5q3 13 -4 22.5t-22 9.5q-12 0 -23.5 -5t-16.5 -15q-1 -2 -5 -9.5t-11 -12.5t-17 -5q-18 0 -18 17q0 28 28.5 43.5t67.5 15.5q35 0 54 -13.5t19 -38.5q0 -8 -1 -12q-4 -19 -20 -33t-42 -28q-21 -11 -31.5 -19.5
t-12.5 -18.5q-2 -12 4 -18t20 -12l-12 -20q-58 0 -58 40zM154 26q-57 36 -57 117q0 30 7 61l88 433q4 18 -8 27t-36 9h-22l5 27h241l-4 -27h-22q-24 0 -40 -9t-20 -27l-90 -440q-5 -22 -5 -49q0 -65 41.5 -91t115.5 -26q78 0 137.5 37.5t78.5 128.5l90 440q4 18 -8 27t-36 9
h-22l5 27h164q33 0 53 18.5t26 46.5q1 3 1 8q0 12 -9 26q-1 2 -5 9.5t-4 17.5q0 7 1 10q5 19 19.5 31.5t34.5 12.5q18 0 29 -11.5t11 -33.5q0 -11 -3 -23q-11 -56 -51.5 -96t-93.5 -42q-57 -2 -64 -37l-89 -433q-23 -111 -97.5 -162.5t-196.5 -51.5q-108 0 -165 36z" />
    <glyph glyph-name="uni1EEE" unicode="&#x1eee;" horiz-adv-x="712" 
d="M339 785q18 42 47.5 69t66.5 27q16 0 30.5 -6.5t38.5 -20.5q20 -13 35.5 -19.5t30.5 -6.5q24 0 40.5 15t34.5 47l19 -11q-18 -44 -48 -72t-69 -28q-16 0 -29.5 6.5t-36.5 20.5q-20 13 -35 20t-32 7q-23 0 -41 -14.5t-34 -44.5zM154 26q-57 36 -57 117q0 30 7 61l88 433
q4 18 -8 27t-36 9h-22l5 27h241l-4 -27h-22q-24 0 -40 -9t-20 -27l-90 -440q-5 -22 -5 -49q0 -65 41.5 -91t115.5 -26q78 0 137.5 37.5t78.5 128.5l90 440q4 18 -8 27t-36 9h-22l5 27h164q33 0 53 18.5t26 46.5q1 3 1 8q0 12 -9 26q-1 2 -5 9.5t-4 17.5q0 7 1 10
q5 19 19.5 31.5t34.5 12.5q18 0 29 -11.5t11 -33.5q0 -11 -3 -23q-11 -56 -51.5 -96t-93.5 -42q-57 -2 -64 -37l-89 -433q-23 -111 -97.5 -162.5t-196.5 -51.5q-108 0 -165 36z" />
    <glyph glyph-name="Uhungarumlaut" unicode="&#x170;" horiz-adv-x="712" 
d="M339 807l130 106q32 24 52 24q12 0 18 -6t6 -16q0 -27 -43 -51l-152 -82zM492 807l131 106q2 1 16.5 12.5t32.5 11.5q13 0 20 -6.5t7 -16.5q0 -26 -42 -50l-153 -82zM154 26q-57 36 -57 117q0 30 7 61l88 433q4 18 -8 27t-36 9h-22l5 27h241l-4 -27h-22q-24 0 -40 -9
t-20 -27l-90 -440q-5 -22 -5 -49q0 -65 41.5 -91t115.5 -26q78 0 137.5 37.5t78.5 128.5l90 440q4 18 -8 27t-36 9h-22l5 27h195l-5 -27h-22q-23 0 -39 -9t-20 -27l-89 -433q-23 -111 -97.5 -162.5t-196.5 -51.5q-108 0 -165 36z" />
    <glyph glyph-name="Umacron" unicode="&#x16a;" horiz-adv-x="712" 
d="M337 824h319l-9 -42h-319zM154 26q-57 36 -57 117q0 30 7 61l88 433q4 18 -8 27t-36 9h-22l5 27h241l-4 -27h-22q-24 0 -40 -9t-20 -27l-90 -440q-5 -22 -5 -49q0 -65 41.5 -91t115.5 -26q78 0 137.5 37.5t78.5 128.5l90 440q4 18 -8 27t-36 9h-22l5 27h195l-5 -27h-22
q-23 0 -39 -9t-20 -27l-89 -433q-23 -111 -97.5 -162.5t-196.5 -51.5q-108 0 -165 36z" />
    <glyph glyph-name="Uogonek" unicode="&#x172;" horiz-adv-x="712" 
d="M788 700l-5 -27h-22q-23 0 -39 -9t-20 -27l-89 -433q-36 -175 -206 -206q-37 -26 -58.5 -56.5t-21.5 -60.5q0 -21 13 -31t35 -10q18 0 45 10l2 -20q-38 -24 -79 -24t-58.5 18.5t-17.5 45.5q0 35 23.5 66t63.5 55q-12 -1 -35 -1q-108 0 -165 36t-57 117q0 30 7 61l88 433
q4 18 -8 27t-36 9h-22l5 27h241l-4 -27h-22q-24 0 -40 -9t-20 -27l-90 -440q-5 -22 -5 -49q0 -65 41.5 -91t115.5 -26q78 0 137.5 37.5t78.5 128.5l90 440q4 18 -8 27t-36 9h-22l5 27h195z" />
    <glyph glyph-name="Uring" unicode="&#x16e;" horiz-adv-x="712" 
d="M430.5 785q-20.5 18 -20.5 49q0 48 32.5 79.5t78.5 31.5q34 0 54 -18.5t20 -49.5q0 -14 -2 -21q-8 -40 -37.5 -64.5t-69.5 -24.5q-35 0 -55.5 18zM537 822q19 19 19 47q0 19 -11.5 30t-29.5 11q-23 0 -40 -14.5t-22 -39.5q-2 -10 -2 -14q0 -18 11 -28.5t30 -10.5
q26 0 45 19zM154 26q-57 36 -57 117q0 30 7 61l88 433q4 18 -8 27t-36 9h-22l5 27h241l-4 -27h-22q-24 0 -40 -9t-20 -27l-90 -440q-5 -22 -5 -49q0 -65 41.5 -91t115.5 -26q78 0 137.5 37.5t78.5 128.5l90 440q4 18 -8 27t-36 9h-22l5 27h195l-5 -27h-22q-23 0 -39 -9
t-20 -27l-89 -433q-23 -111 -97.5 -162.5t-196.5 -51.5q-108 0 -165 36z" />
    <glyph glyph-name="Utilde" unicode="&#x168;" horiz-adv-x="712" 
d="M328 791q18 42 48 69t67 27q16 0 30.5 -6.5t38.5 -20.5q20 -13 35.5 -19.5t30.5 -6.5q24 0 40.5 15t34.5 47l18 -11q-19 -44 -48 -72t-68 -28q-16 0 -30.5 6.5t-36.5 20.5q-20 13 -35 20t-32 7q-22 0 -40 -14.5t-34 -44.5zM154 26q-57 36 -57 117q0 30 7 61l88 433
q4 18 -8 27t-36 9h-22l5 27h241l-4 -27h-22q-24 0 -40 -9t-20 -27l-90 -440q-5 -22 -5 -49q0 -65 41.5 -91t115.5 -26q78 0 137.5 37.5t78.5 128.5l90 440q4 18 -8 27t-36 9h-22l5 27h195l-5 -27h-22q-23 0 -39 -9t-20 -27l-89 -433q-23 -111 -97.5 -162.5t-196.5 -51.5
q-108 0 -165 36z" />
    <glyph glyph-name="V" unicode="V" horiz-adv-x="695" 
d="M177 638q-2 16 -14 25.5t-29 9.5h-26l5 27h242l-5 -27h-28q-19 0 -32 -10t-12 -26l69 -532l286 529q5 10 5 17q0 11 -8.5 16.5t-20.5 5.5h-33l5 27h208l-5 -27h-30q-18 0 -33.5 -10t-24.5 -27l-353 -640h-70z" />
    <glyph glyph-name="W" unicode="W" horiz-adv-x="971" 
d="M1065 700l-5 -27h-27q-19 0 -36 -9.5t-25 -26.5l-307 -641h-58l-54 481l-259 -481h-69l-48 642q-1 16 -14.5 25.5t-31.5 9.5h-23l5 27h242l-5 -27h-22q-23 0 -37 -10.5t-13 -26.5l21 -528l244 455l-8 75q-2 16 -17.5 25.5t-33.5 9.5h-17l4 27h232l-5 -27h-23
q-19 0 -35 -10t-15 -24l46 -531l239 528q3 8 3 13q0 11 -10 17.5t-24 6.5h-27l4 27h209z" />
    <glyph glyph-name="Wacute" unicode="&#x1e82;" horiz-adv-x="971" 
d="M555 782l-12 25l133 107q26 23 47 23q15 0 22 -9t4 -21q-4 -24 -41 -42zM1065 700l-5 -27h-27q-19 0 -36 -9.5t-25 -26.5l-307 -641h-58l-54 481l-259 -481h-69l-48 642q-1 16 -14.5 25.5t-31.5 9.5h-23l5 27h242l-5 -27h-22q-23 0 -37 -10.5t-13 -26.5l21 -528l244 455
l-8 75q-2 16 -17.5 25.5t-33.5 9.5h-17l4 27h232l-5 -27h-23q-19 0 -35 -10t-15 -24l46 -531l239 528q3 8 3 13q0 11 -10 17.5t-24 6.5h-27l4 27h209z" />
    <glyph glyph-name="Wcircumflex" unicode="&#x174;" horiz-adv-x="971" 
d="M504 782l-14 21l145 129h50l93 -129l-22 -21l-87 86q-6 4 -11 7.5t-9 3.5q-8 0 -25 -11zM1065 700l-5 -27h-27q-19 0 -36 -9.5t-25 -26.5l-307 -641h-58l-54 481l-259 -481h-69l-48 642q-1 16 -14.5 25.5t-31.5 9.5h-23l5 27h242l-5 -27h-22q-23 0 -37 -10.5t-13 -26.5
l21 -528l244 455l-8 75q-2 16 -17.5 25.5t-33.5 9.5h-17l4 27h232l-5 -27h-23q-19 0 -35 -10t-15 -24l46 -531l239 528q3 8 3 13q0 11 -10 17.5t-24 6.5h-27l4 27h209z" />
    <glyph glyph-name="Wdieresis" unicode="&#x1e84;" horiz-adv-x="971" 
d="M499.5 790.5q-9.5 9.5 -9.5 25.5q0 25 15.5 42t38.5 17q18 0 27 -9.5t9 -25.5q0 -26 -15.5 -42.5t-39.5 -16.5q-16 0 -25.5 9.5zM705 790.5q-10 9.5 -10 26.5q0 6 1 10q5 21 20 34.5t36 13.5q17 0 26.5 -9.5t9.5 -25.5q0 -25 -16 -42t-40 -17q-17 0 -27 9.5zM1065 700
l-5 -27h-27q-19 0 -36 -9.5t-25 -26.5l-307 -641h-58l-54 481l-259 -481h-69l-48 642q-1 16 -14.5 25.5t-31.5 9.5h-23l5 27h242l-5 -27h-22q-23 0 -37 -10.5t-13 -26.5l21 -528l244 455l-8 75q-2 16 -17.5 25.5t-33.5 9.5h-17l4 27h232l-5 -27h-23q-19 0 -35 -10t-15 -24
l46 -531l239 528q3 8 3 13q0 11 -10 17.5t-24 6.5h-27l4 27h209z" />
    <glyph glyph-name="Wgrave" unicode="&#x1e80;" horiz-adv-x="971" 
d="M564 901q0 15 11 25.5t27 10.5q22 0 38 -24l89 -106l-22 -25l-121 83q-22 14 -22 36zM1065 700l-5 -27h-27q-19 0 -36 -9.5t-25 -26.5l-307 -641h-58l-54 481l-259 -481h-69l-48 642q-1 16 -14.5 25.5t-31.5 9.5h-23l5 27h242l-5 -27h-22q-23 0 -37 -10.5t-13 -26.5
l21 -528l244 455l-8 75q-2 16 -17.5 25.5t-33.5 9.5h-17l4 27h232l-5 -27h-23q-19 0 -35 -10t-15 -24l46 -531l239 528q3 8 3 13q0 11 -10 17.5t-24 6.5h-27l4 27h209z" />
    <glyph glyph-name="X" unicode="X" horiz-adv-x="679" 
d="M745 700l-5 -27h-31q-14 0 -24.5 -7.5t-20 -17l-12.5 -12.5l-235 -255l150 -319q17 -35 43 -35h26l-5 -27h-242l5 27h28q20 0 35 11t9 25l-115 245l-223 -242q-8 -8 -8 -16q0 -9 10 -16t22 -7h32l-4 -27h-209l5 27h31q14 0 24.5 7.5t20 17l12.5 12.5l265 289l-134 285
q-8 17 -17.5 26t-24.5 9h-26l5 27h241l-4 -27h-29q-17 0 -31 -8t-14 -20q0 -2 2 -8l99 -212l192 209q9 9 9 17q0 9 -10.5 15.5t-22.5 6.5h-32l5 27h208z" />
    <glyph glyph-name="Y" unicode="Y" horiz-adv-x="661" 
d="M159 26h27q56 0 65 36l47 230l-121 346q-5 16 -17 25.5t-28 9.5h-24l5 27h236l-4 -27h-25q-21 0 -36 -11.5t-11 -24.5l97 -299l230 296q6 9 6 15q0 11 -11.5 17.5t-25.5 6.5h-26l5 27h208l-5 -27h-21q-18 0 -36.5 -10.5t-30.5 -25.5l-272 -346l-46 -229q-1 -3 -1 -9
q0 -27 49 -27h27l-4 -26h-261z" />
    <glyph glyph-name="Yacute" unicode="&#xdd;" horiz-adv-x="661" 
d="M388 824l132 107q14 11 24 17t23 6q15 0 22 -9t4 -21q-4 -24 -41 -42l-153 -83zM159 26h27q56 0 65 36l47 230l-121 346q-5 16 -17 25.5t-28 9.5h-24l5 27h236l-4 -27h-25q-21 0 -36 -11.5t-11 -24.5l97 -299l230 296q6 9 6 15q0 11 -11.5 17.5t-25.5 6.5h-26l5 27h208
l-5 -27h-21q-18 0 -36.5 -10.5t-30.5 -25.5l-272 -346l-46 -229q-1 -3 -1 -9q0 -27 49 -27h27l-4 -26h-261z" />
    <glyph glyph-name="Ycircumflex" unicode="&#x176;" horiz-adv-x="661" 
d="M310 820l145 129h51l92 -129l-22 -21l-86 86q-15 11 -21 11q-8 0 -25 -11l-120 -86zM159 26h27q56 0 65 36l47 230l-121 346q-5 16 -17 25.5t-28 9.5h-24l5 27h236l-4 -27h-25q-21 0 -36 -11.5t-11 -24.5l97 -299l230 296q6 9 6 15q0 11 -11.5 17.5t-25.5 6.5h-26l5 27
h208l-5 -27h-21q-18 0 -36.5 -10.5t-30.5 -25.5l-272 -346l-46 -229q-1 -3 -1 -9q0 -27 49 -27h27l-4 -26h-261z" />
    <glyph glyph-name="Ydieresis" unicode="&#x178;" horiz-adv-x="661" 
d="M335.5 808q-9.5 10 -9.5 27l1 9q5 21 19.5 34.5t34.5 13.5q17 0 26.5 -10t9.5 -26q0 -25 -15.5 -41.5t-39.5 -16.5q-17 0 -26.5 10zM541.5 807.5q-9.5 9.5 -9.5 25.5q0 25 16.5 42t39.5 17q18 0 27 -9.5t9 -25.5q0 -26 -15.5 -42.5t-39.5 -16.5q-18 0 -27.5 9.5zM159 26
h27q56 0 65 36l47 230l-121 346q-5 16 -17 25.5t-28 9.5h-24l5 27h236l-4 -27h-25q-21 0 -36 -11.5t-11 -24.5l97 -299l230 296q6 9 6 15q0 11 -11.5 17.5t-25.5 6.5h-26l5 27h208l-5 -27h-21q-18 0 -36.5 -10.5t-30.5 -25.5l-272 -346l-46 -229q-1 -3 -1 -9q0 -27 49 -27
h27l-4 -26h-261z" />
    <glyph glyph-name="uni1E8E" unicode="&#x1e8e;" horiz-adv-x="661" 
d="M415.5 774.5q-9.5 9.5 -9.5 24.5q0 8 1 12q5 21 19.5 34t35.5 13q17 0 26 -9t9 -25q0 -25 -15.5 -42t-38.5 -17q-18 0 -27.5 9.5zM159 26h27q56 0 65 36l47 230l-121 346q-5 16 -17 25.5t-28 9.5h-24l5 27h236l-4 -27h-25q-21 0 -36 -11.5t-11 -24.5l97 -299l230 296
q6 9 6 15q0 11 -11.5 17.5t-25.5 6.5h-26l5 27h208l-5 -27h-21q-18 0 -36.5 -10.5t-30.5 -25.5l-272 -346l-46 -229q-1 -3 -1 -9q0 -27 49 -27h27l-4 -26h-261z" />
    <glyph glyph-name="uni1EF4" unicode="&#x1ef4;" horiz-adv-x="661" 
d="M159 26h27q56 0 65 36l47 230l-121 346q-5 16 -17 25.5t-28 9.5h-24l5 27h236l-4 -27h-25q-21 0 -36 -11.5t-11 -24.5l97 -299l230 296q6 9 6 15q0 11 -11.5 17.5t-25.5 6.5h-26l5 27h208l-5 -27h-21q-18 0 -36.5 -10.5t-30.5 -25.5l-272 -346l-46 -229q-1 -3 -1 -9
q0 -27 49 -27h27l-4 -26h-261zM228 -149.5q-10 9.5 -10 25.5q0 25 16.5 42.5t39.5 17.5q16 0 25.5 -9.5t9.5 -26.5q0 -25 -16 -42t-39 -17q-16 0 -26 9.5z" />
    <glyph glyph-name="Ygrave" unicode="&#x1ef2;" horiz-adv-x="661" 
d="M397 882q-21 15 -21 35q0 15 11 26t27 11q19 0 38 -24l88 -106l-22 -25zM159 26h27q56 0 65 36l47 230l-121 346q-5 16 -17 25.5t-28 9.5h-24l5 27h236l-4 -27h-25q-21 0 -36 -11.5t-11 -24.5l97 -299l230 296q6 9 6 15q0 11 -11.5 17.5t-25.5 6.5h-26l5 27h208l-5 -27
h-21q-18 0 -36.5 -10.5t-30.5 -25.5l-272 -346l-46 -229q-1 -3 -1 -9q0 -27 49 -27h27l-4 -26h-261z" />
    <glyph glyph-name="uni1EF6" unicode="&#x1ef6;" horiz-adv-x="661" 
d="M444 823q0 19 13 32t39 29q24 15 37 27.5t13 30.5q0 10 -7 17t-20 7q-12 0 -23 -5t-17 -15q-1 -2 -5 -9.5t-11 -12.5t-17 -5q-18 0 -18 17q0 28 28.5 43.5t67.5 15.5q34 0 53.5 -13t19.5 -38q0 -8 -1 -13q-3 -19 -18 -31.5t-44 -29.5q-20 -12 -30.5 -20t-12.5 -18
q-2 -12 3.5 -18t20.5 -12l-13 -20q-58 0 -58 41zM159 26h27q56 0 65 36l47 230l-121 346q-5 16 -17 25.5t-28 9.5h-24l5 27h236l-4 -27h-25q-21 0 -36 -11.5t-11 -24.5l97 -299l230 296q6 9 6 15q0 11 -11.5 17.5t-25.5 6.5h-26l5 27h208l-5 -27h-21q-18 0 -36.5 -10.5
t-30.5 -25.5l-272 -346l-46 -229q-1 -3 -1 -9q0 -27 49 -27h27l-4 -26h-261z" />
    <glyph glyph-name="uni1EF8" unicode="&#x1ef8;" horiz-adv-x="661" 
d="M294 791q18 42 47.5 69t66.5 27q16 0 30.5 -6.5t38.5 -20.5q20 -13 35.5 -19.5t30.5 -6.5q24 0 40.5 15t34.5 47l18 -11q-19 -44 -48 -72t-68 -28q-16 0 -29.5 6.5t-36.5 20.5q-20 13 -35 20t-32 7q-23 0 -41 -14.5t-34 -44.5zM159 26h27q56 0 65 36l47 230l-121 346
q-5 16 -17 25.5t-28 9.5h-24l5 27h236l-4 -27h-25q-21 0 -36 -11.5t-11 -24.5l97 -299l230 296q6 9 6 15q0 11 -11.5 17.5t-25.5 6.5h-26l5 27h208l-5 -27h-21q-18 0 -36.5 -10.5t-30.5 -25.5l-272 -346l-46 -229q-1 -3 -1 -9q0 -27 49 -27h27l-4 -26h-261z" />
    <glyph glyph-name="Z" unicode="Z" horiz-adv-x="548" 
d="M-12 25l523 634h-248q-47 0 -72.5 -41t-37.5 -91h-25l34 173h458l-4 -20l-523 -640h280q70 0 115 138h25l-52 -178h-477z" />
    <glyph glyph-name="Zacute" unicode="&#x179;" horiz-adv-x="548" 
d="M350 807l133 107q14 11 24 17t23 6q15 0 22 -9t4 -21q-4 -24 -41 -42l-153 -83zM-12 25l523 634h-248q-47 0 -72.5 -41t-37.5 -91h-25l34 173h458l-4 -20l-523 -640h280q70 0 115 138h25l-52 -178h-477z" />
    <glyph glyph-name="Zcaron" unicode="&#x17d;" horiz-adv-x="548" 
d="M283 911l22 21l87 -85q11 -11 20 -11t25 11l121 85l13 -21l-145 -129h-51zM-12 25l523 634h-248q-47 0 -72.5 -41t-37.5 -91h-25l34 173h458l-4 -20l-523 -640h280q70 0 115 138h25l-52 -178h-477z" />
    <glyph glyph-name="Zdotaccent" unicode="&#x17b;" horiz-adv-x="548" 
d="M367.5 774.5q-9.5 9.5 -9.5 24.5q0 8 1 12q5 21 19.5 34t35.5 13q17 0 26 -9t9 -25q0 -25 -15.5 -42t-38.5 -17q-18 0 -27.5 9.5zM-12 25l523 634h-248q-47 0 -72.5 -41t-37.5 -91h-25l34 173h458l-4 -20l-523 -640h280q70 0 115 138h25l-52 -178h-477z" />
    <glyph glyph-name="uni1E92" unicode="&#x1e92;" horiz-adv-x="548" 
d="M-12 25l523 634h-248q-47 0 -72.5 -41t-37.5 -91h-25l34 173h458l-4 -20l-523 -640h280q70 0 115 138h25l-52 -178h-477zM172 -149.5q-10 9.5 -10 25.5q0 25 16.5 42.5t39.5 17.5q17 0 26 -9.5t9 -25.5q0 -26 -15.5 -43t-38.5 -17q-17 0 -27 9.5z" />
    <glyph glyph-name="a" unicode="a" horiz-adv-x="547" 
d="M68.5 30.5q-29.5 40.5 -29.5 108.5q0 42 9 85q17 82 59.5 140t98 87t112.5 29q42 0 71 -9.5t43 -35.5l7 35h90l-84 -412q-1 -5 -1 -13q0 -10 4 -14t13 -4q14 0 36 8l-4 -18q-17 -12 -42 -19t-48 -7q-24 0 -38.5 10t-14.5 31q0 6 1 10l19 88q-58 -71 -113.5 -105.5
t-94.5 -34.5q-64 0 -93.5 40.5zM261 69q38 29 73 69t51 68l34 162q-10 69 -95 69q-30 0 -68.5 -21.5t-73 -72.5t-51.5 -132q-6 -31 -6 -56q0 -53 22 -84t50 -31q26 0 64 29z" />
    <glyph glyph-name="aacute" unicode="&#xe1;" horiz-adv-x="547" 
d="M276 572l133 107q14 11 24 17t23 6q15 0 22 -9t4 -21q-4 -24 -41 -42l-153 -83zM68.5 30.5q-29.5 40.5 -29.5 108.5q0 42 9 85q17 82 59.5 140t98 87t112.5 29q42 0 71 -9.5t43 -35.5l7 35h90l-84 -412q-1 -5 -1 -13q0 -10 4 -14t13 -4q14 0 36 8l-4 -18q-17 -12 -42 -19
t-48 -7q-24 0 -38.5 10t-14.5 31q0 6 1 10l19 88q-58 -71 -113.5 -105.5t-94.5 -34.5q-64 0 -93.5 40.5zM261 69q38 29 73 69t51 68l34 162q-10 69 -95 69q-30 0 -68.5 -21.5t-73 -72.5t-51.5 -132q-6 -31 -6 -56q0 -53 22 -84t50 -31q26 0 64 29z" />
    <glyph glyph-name="abreve" unicode="&#x103;" horiz-adv-x="547" 
d="M239 641q0 8 2 28h32q-4 -43 20.5 -64t71.5 -21q48 0 80.5 21t44.5 64h32q-16 -60 -56.5 -95.5t-108.5 -35.5q-118 0 -118 103zM68.5 30.5q-29.5 40.5 -29.5 108.5q0 42 9 85q17 82 59.5 140t98 87t112.5 29q42 0 71 -9.5t43 -35.5l7 35h90l-84 -412q-1 -5 -1 -13
q0 -10 4 -14t13 -4q14 0 36 8l-4 -18q-17 -12 -42 -19t-48 -7q-24 0 -38.5 10t-14.5 31q0 6 1 10l19 88q-58 -71 -113.5 -105.5t-94.5 -34.5q-64 0 -93.5 40.5zM261 69q38 29 73 69t51 68l34 162q-10 69 -95 69q-30 0 -68.5 -21.5t-73 -72.5t-51.5 -132q-6 -31 -6 -56
q0 -53 22 -84t50 -31q26 0 64 29z" />
    <glyph glyph-name="uni1EAF" unicode="&#x1eaf;" horiz-adv-x="547" 
d="M344 680l110 93q14 12 26 19t24 7t19.5 -8t7.5 -18q0 -27 -44 -48l-131 -67zM238 636q0 15 3 33h31q-1 -5 -1 -14q0 -35 24 -52.5t68 -17.5q98 0 126 84h30q-14 -60 -55.5 -95.5t-110.5 -35.5q-115 0 -115 98zM68.5 30.5q-29.5 40.5 -29.5 108.5q0 42 9 85
q17 82 59.5 140t98 87t112.5 29q42 0 71 -9.5t43 -35.5l7 35h90l-84 -412q-1 -5 -1 -13q0 -10 4 -14t13 -4q14 0 36 8l-4 -18q-17 -12 -42 -19t-48 -7q-24 0 -38.5 10t-14.5 31q0 6 1 10l19 88q-58 -71 -113.5 -105.5t-94.5 -34.5q-64 0 -93.5 40.5zM261 69q38 29 73 69
t51 68l34 162q-10 69 -95 69q-30 0 -68.5 -21.5t-73 -72.5t-51.5 -132q-6 -31 -6 -56q0 -53 22 -84t50 -31q26 0 64 29z" />
    <glyph glyph-name="uni1EB7" unicode="&#x1eb7;" horiz-adv-x="547" 
d="M239 668h32q-7 -85 92 -85q47 0 79.5 21t45.5 64h31q-15 -60 -56 -95.5t-109 -35.5q-117 0 -117 102q0 9 2 29zM48 224q17 82 59.5 140t98 87t112.5 29q42 0 71 -9.5t43 -35.5l7 35h90l-84 -412q-1 -5 -1 -13q0 -10 4 -14t13 -4q14 0 36 8l-4 -18q-17 -12 -42 -19t-48 -7
q-24 0 -38.5 10t-14.5 31q0 6 1 10l19 88q-58 -71 -113.5 -105.5t-94.5 -34.5q-64 0 -93.5 40.5t-29.5 108.5q0 42 9 85zM147 71q22 -31 50 -31q26 0 64 29t73 69t51 68l34 162q-10 69 -95 69q-30 0 -68.5 -21.5t-73 -72.5t-51.5 -132q-6 -31 -6 -56q0 -53 22 -84z
M152.5 -81q16.5 17 39.5 17q17 0 26.5 -10t9.5 -27q0 -25 -16 -41.5t-39 -16.5q-17 0 -27 9.5t-10 26.5q0 25 16.5 42z" />
    <glyph glyph-name="uni1EB1" unicode="&#x1eb1;" horiz-adv-x="547" 
d="M289 724q-14 9 -21 20.5t-4 22.5q3 12 12.5 21.5t24.5 9.5q13 0 22.5 -7.5t17.5 -18.5l73 -92l-21 -23zM238 636q0 15 3 33h31q-1 -5 -1 -14q0 -35 24 -52.5t68 -17.5q47 0 79.5 21t46.5 63h30q-14 -60 -55.5 -95.5t-110.5 -35.5q-115 0 -115 98zM68.5 30.5
q-29.5 40.5 -29.5 108.5q0 42 9 85q17 82 59.5 140t98 87t112.5 29q42 0 71 -9.5t43 -35.5l7 35h90l-84 -412q-1 -5 -1 -13q0 -10 4 -14t13 -4q14 0 36 8l-4 -18q-17 -12 -42 -19t-48 -7q-24 0 -38.5 10t-14.5 31q0 6 1 10l19 88q-58 -71 -113.5 -105.5t-94.5 -34.5
q-64 0 -93.5 40.5zM261 69q38 29 73 69t51 68l34 162q-10 69 -95 69q-30 0 -68.5 -21.5t-73 -72.5t-51.5 -132q-6 -31 -6 -56q0 -53 22 -84t50 -31q26 0 64 29z" />
    <glyph glyph-name="uni1EB3" unicode="&#x1eb3;" horiz-adv-x="547" 
d="M343 676q0 3 2 11q2 13 12.5 22.5t31.5 21.5q21 13 32.5 24t11.5 26q0 9 -6 15t-18 6q-15 0 -23.5 -6t-16.5 -17q-6 -8 -11 -12t-13 -4t-13 6t-4 15q5 21 29.5 31t52.5 10q30 0 50.5 -11t20.5 -33q0 -21 -15 -34t-42 -27q-20 -11 -28.5 -17.5t-9.5 -14.5q-2 -10 3 -16
t19 -12l-12 -18q-53 0 -53 34zM238 636q0 15 3 33h31q-1 -5 -1 -14q0 -35 24 -52.5t68 -17.5q98 0 126 84h30q-14 -60 -55.5 -95.5t-110.5 -35.5q-115 0 -115 98zM68.5 30.5q-29.5 40.5 -29.5 108.5q0 42 9 85q17 82 59.5 140t98 87t112.5 29q42 0 71 -9.5t43 -35.5l7 35h90
l-84 -412q-1 -5 -1 -13q0 -10 4 -14t13 -4q14 0 36 8l-4 -18q-17 -12 -42 -19t-48 -7q-24 0 -38.5 10t-14.5 31q0 6 1 10l19 88q-58 -71 -113.5 -105.5t-94.5 -34.5q-64 0 -93.5 40.5zM261 69q38 29 73 69t51 68l34 162q-10 69 -95 69q-30 0 -68.5 -21.5t-73 -72.5
t-51.5 -132q-6 -31 -6 -56q0 -53 22 -84t50 -31q26 0 64 29z" />
    <glyph glyph-name="uni1EB5" unicode="&#x1eb5;" horiz-adv-x="547" 
d="M237 735q16 41 45 68t64 27q16 0 30 -7t35 -20q22 -13 35 -19.5t28 -6.5q23 0 39 15.5t32 47.5l19 -12q-20 -43 -48 -71t-63 -28q-15 0 -29 6.5t-35 20.5q-19 13 -33.5 20t-30.5 7q-21 0 -38.5 -15t-33.5 -45zM238 636q0 15 3 33h31q-1 -5 -1 -14q0 -35 24 -52.5
t68 -17.5q98 0 126 84h30q-14 -60 -55.5 -95.5t-110.5 -35.5q-115 0 -115 98zM68.5 30.5q-29.5 40.5 -29.5 108.5q0 42 9 85q17 82 59.5 140t98 87t112.5 29q42 0 71 -9.5t43 -35.5l7 35h90l-84 -412q-1 -5 -1 -13q0 -10 4 -14t13 -4q14 0 36 8l-4 -18q-17 -12 -42 -19
t-48 -7q-24 0 -38.5 10t-14.5 31q0 6 1 10l19 88q-58 -71 -113.5 -105.5t-94.5 -34.5q-64 0 -93.5 40.5zM261 69q38 29 73 69t51 68l34 162q-10 69 -95 69q-30 0 -68.5 -21.5t-73 -72.5t-51.5 -132q-6 -31 -6 -56q0 -53 22 -84t50 -31q26 0 64 29z" />
    <glyph glyph-name="uni01CE" unicode="&#x1ce;" horiz-adv-x="547" 
d="M236 683l23 22l85 -84q11 -11 20 -11q7 0 23 11l120 84l12 -22l-144 -132h-49zM68.5 30.5q-29.5 40.5 -29.5 108.5q0 42 9 85q17 82 59.5 140t98 87t112.5 29q42 0 71 -9.5t43 -35.5l7 35h90l-84 -412q-1 -5 -1 -13q0 -10 4 -14t13 -4q14 0 36 8l-4 -18q-17 -12 -42 -19
t-48 -7q-24 0 -38.5 10t-14.5 31q0 6 1 10l19 88q-58 -71 -113.5 -105.5t-94.5 -34.5q-64 0 -93.5 40.5zM261 69q38 29 73 69t51 68l34 162q-10 69 -95 69q-30 0 -68.5 -21.5t-73 -72.5t-51.5 -132q-6 -31 -6 -56q0 -53 22 -84t50 -31q26 0 64 29z" />
    <glyph glyph-name="acircumflex" unicode="&#xe2;" horiz-adv-x="547" 
d="M210 568l145 129h51l92 -129l-22 -21l-86 86q-15 11 -20 11q-10 0 -25 -11l-120 -86zM68.5 30.5q-29.5 40.5 -29.5 108.5q0 42 9 85q17 82 59.5 140t98 87t112.5 29q42 0 71 -9.5t43 -35.5l7 35h90l-84 -412q-1 -5 -1 -13q0 -10 4 -14t13 -4q14 0 36 8l-4 -18
q-17 -12 -42 -19t-48 -7q-24 0 -38.5 10t-14.5 31q0 6 1 10l19 88q-58 -71 -113.5 -105.5t-94.5 -34.5q-64 0 -93.5 40.5zM261 69q38 29 73 69t51 68l34 162q-10 69 -95 69q-30 0 -68.5 -21.5t-73 -72.5t-51.5 -132q-6 -31 -6 -56q0 -53 22 -84t50 -31q26 0 64 29z" />
    <glyph glyph-name="uni1EA5" unicode="&#x1ea5;" horiz-adv-x="547" 
d="M481 680l110 93q14 12 25.5 19t23.5 7q13 0 20.5 -7.5t7.5 -17.5q0 -13 -11.5 -25.5t-32.5 -23.5l-131 -67zM224 568l144 129h49l89 -129l-21 -22l-85 86q-13 11 -20 11q-8 0 -30 -16l-113 -81zM68.5 30.5q-29.5 40.5 -29.5 108.5q0 42 9 85q17 82 59.5 140t98 87
t112.5 29q42 0 71 -9.5t43 -35.5l7 35h90l-84 -412q-1 -5 -1 -13q0 -10 4 -14t13 -4q14 0 36 8l-4 -18q-17 -12 -42 -19t-48 -7q-24 0 -38.5 10t-14.5 31q0 6 1 10l19 88q-58 -71 -113.5 -105.5t-94.5 -34.5q-64 0 -93.5 40.5zM261 69q38 29 73 69t51 68l34 162
q-10 69 -95 69q-30 0 -68.5 -21.5t-73 -72.5t-51.5 -132q-6 -31 -6 -56q0 -53 22 -84t50 -31q26 0 64 29z" />
    <glyph glyph-name="uni1EAD" unicode="&#x1ead;" horiz-adv-x="547" 
d="M365 697h51l92 -129l-22 -21l-87 86q-13 11 -20 11q-8 0 -25 -11l-120 -86l-14 21zM48 224q17 82 59.5 140t98 87t112.5 29q42 0 71 -9.5t43 -35.5l7 35h90l-84 -412q-1 -5 -1 -13q0 -10 4 -14t13 -4q14 0 36 8l-4 -18q-17 -12 -42 -19t-48 -7q-24 0 -38.5 10t-14.5 31
q0 6 1 10l19 88q-58 -71 -113.5 -105.5t-94.5 -34.5q-64 0 -93.5 40.5t-29.5 108.5q0 42 9 85zM147 71q22 -31 50 -31q26 0 64 29t73 69t51 68l34 162q-10 69 -95 69q-30 0 -68.5 -21.5t-73 -72.5t-51.5 -132q-6 -31 -6 -56q0 -53 22 -84zM161.5 -81.5q16.5 17.5 39.5 17.5
q17 0 26 -9.5t9 -25.5q0 -26 -16 -43t-39 -17q-16 0 -26 9.5t-10 25.5q0 25 16.5 42.5z" />
    <glyph glyph-name="uni1EA7" unicode="&#x1ea7;" horiz-adv-x="547" 
d="M177 725q-13 7 -20 17t-7 20q0 12 10.5 24.5t27.5 12.5q22 0 40 -26l72 -93l-21 -22zM224 568l144 129h49l89 -129l-21 -22l-85 86q-13 11 -20 11q-8 0 -30 -16l-113 -81zM68.5 30.5q-29.5 40.5 -29.5 108.5q0 42 9 85q17 82 59.5 140t98 87t112.5 29q42 0 71 -9.5
t43 -35.5l7 35h90l-84 -412q-1 -5 -1 -13q0 -10 4 -14t13 -4q14 0 36 8l-4 -18q-17 -12 -42 -19t-48 -7q-24 0 -38.5 10t-14.5 31q0 6 1 10l19 88q-58 -71 -113.5 -105.5t-94.5 -34.5q-64 0 -93.5 40.5zM261 69q38 29 73 69t51 68l34 162q-10 69 -95 69q-30 0 -68.5 -21.5
t-73 -72.5t-51.5 -132q-6 -31 -6 -56q0 -53 22 -84t50 -31q26 0 64 29z" />
    <glyph glyph-name="uni1EA9" unicode="&#x1ea9;" horiz-adv-x="547" 
d="M488 680q0 7 1 10q3 13 13.5 22.5t29.5 21.5q20 12 30.5 21.5t13.5 22.5q2 12 -4 19.5t-19 7.5q-15 0 -23.5 -6t-16.5 -17q-6 -8 -11 -12t-13 -4t-13 6t-3 15q4 21 28.5 31t52.5 10q29 0 49.5 -11t20.5 -32t-14 -33.5t-43 -29.5q-18 -10 -27.5 -16.5t-10.5 -14.5
q-2 -10 3.5 -16t18.5 -12l-11 -18q-52 0 -52 35zM224 568l144 129h49l89 -129l-21 -22l-85 86q-13 11 -20 11q-10 0 -34 -20l-109 -77zM68.5 30.5q-29.5 40.5 -29.5 108.5q0 42 9 85q17 82 59.5 140t98 87t112.5 29q42 0 71 -9.5t43 -35.5l7 35h90l-84 -412q-1 -5 -1 -13
q0 -10 4 -14t13 -4q14 0 36 8l-4 -18q-17 -12 -42 -19t-48 -7q-24 0 -38.5 10t-14.5 31q0 6 1 10l19 88q-58 -71 -113.5 -105.5t-94.5 -34.5q-64 0 -93.5 40.5zM261 69q38 29 73 69t51 68l34 162q-10 69 -95 69q-30 0 -68.5 -21.5t-73 -72.5t-51.5 -132q-6 -31 -6 -56
q0 -53 22 -84t50 -31q26 0 64 29z" />
    <glyph glyph-name="uni1EAB" unicode="&#x1eab;" horiz-adv-x="547" 
d="M248 735q16 41 44.5 68t63.5 27q16 0 29.5 -6.5t36.5 -20.5q19 -13 33.5 -19.5t29.5 -6.5q22 0 38.5 15.5t32.5 47.5l18 -12q-18 -43 -46.5 -71t-63.5 -28q-15 0 -29 6.5t-35 20.5q-19 13 -33.5 20t-30.5 7q-22 0 -39.5 -15t-32.5 -45zM224 568l144 129h49l89 -129
l-21 -22l-85 86q-13 11 -20 11q-8 0 -30 -16l-113 -81zM68.5 30.5q-29.5 40.5 -29.5 108.5q0 42 9 85q17 82 59.5 140t98 87t112.5 29q42 0 71 -9.5t43 -35.5l7 35h90l-84 -412q-1 -5 -1 -13q0 -10 4 -14t13 -4q14 0 36 8l-4 -18q-17 -12 -42 -19t-48 -7q-24 0 -38.5 10
t-14.5 31q0 6 1 10l19 88q-58 -71 -113.5 -105.5t-94.5 -34.5q-64 0 -93.5 40.5zM261 69q38 29 73 69t51 68l34 162q-10 69 -95 69q-30 0 -68.5 -21.5t-73 -72.5t-51.5 -132q-6 -31 -6 -56q0 -53 22 -84t50 -31q26 0 64 29z" />
    <glyph glyph-name="adieresis" unicode="&#xe4;" horiz-adv-x="547" 
d="M216.5 556q-9.5 10 -9.5 27l1 9q5 21 19.5 34.5t34.5 13.5q17 0 26.5 -10t9.5 -26q0 -25 -15.5 -41.5t-39.5 -16.5q-17 0 -26.5 10zM422.5 555.5q-9.5 9.5 -9.5 25.5q0 25 16.5 42t39.5 17q18 0 27 -9.5t9 -25.5q0 -26 -15.5 -42.5t-39.5 -16.5q-18 0 -27.5 9.5z
M68.5 30.5q-29.5 40.5 -29.5 108.5q0 42 9 85q17 82 59.5 140t98 87t112.5 29q42 0 71 -9.5t43 -35.5l7 35h90l-84 -412q-1 -5 -1 -13q0 -10 4 -14t13 -4q14 0 36 8l-4 -18q-17 -12 -42 -19t-48 -7q-24 0 -38.5 10t-14.5 31q0 6 1 10l19 88q-58 -71 -113.5 -105.5
t-94.5 -34.5q-64 0 -93.5 40.5zM261 69q38 29 73 69t51 68l34 162q-10 69 -95 69q-30 0 -68.5 -21.5t-73 -72.5t-51.5 -132q-6 -31 -6 -56q0 -53 22 -84t50 -31q26 0 64 29z" />
    <glyph glyph-name="uni1EA1" unicode="&#x1ea1;" horiz-adv-x="547" 
d="M48 224q17 82 59.5 140t98 87t112.5 29q42 0 71 -9.5t43 -35.5l7 35h90l-84 -412q-1 -5 -1 -13q0 -10 4 -14t13 -4q14 0 36 8l-4 -18q-17 -12 -42 -19t-48 -7q-24 0 -38.5 10t-14.5 31q0 6 1 10l19 88q-58 -71 -113.5 -105.5t-94.5 -34.5q-64 0 -93.5 40.5t-29.5 108.5
q0 42 9 85zM147 71q22 -31 50 -31q26 0 64 29t73 69t51 68l34 162q-10 69 -95 69q-30 0 -68.5 -21.5t-73 -72.5t-51.5 -132q-6 -31 -6 -56q0 -53 22 -84zM156.5 -81.5q16.5 17.5 39.5 17.5q17 0 26 -9.5t9 -25.5q0 -26 -15.5 -43t-38.5 -17q-17 0 -27 9.5t-10 25.5
q0 25 16.5 42.5z" />
    <glyph glyph-name="agrave" unicode="&#xe0;" horiz-adv-x="547" 
d="M303 630q-21 15 -21 35q0 15 10.5 26t27.5 11q19 0 38 -24l88 -106l-22 -25zM68.5 30.5q-29.5 40.5 -29.5 108.5q0 42 9 85q17 82 59.5 140t98 87t112.5 29q42 0 71 -9.5t43 -35.5l7 35h90l-84 -412q-1 -5 -1 -13q0 -10 4 -14t13 -4q14 0 36 8l-4 -18q-17 -12 -42 -19
t-48 -7q-24 0 -38.5 10t-14.5 31q0 6 1 10l19 88q-58 -71 -113.5 -105.5t-94.5 -34.5q-64 0 -93.5 40.5zM261 69q38 29 73 69t51 68l34 162q-10 69 -95 69q-30 0 -68.5 -21.5t-73 -72.5t-51.5 -132q-6 -31 -6 -56q0 -53 22 -84t50 -31q26 0 64 29z" />
    <glyph glyph-name="uni1EA3" unicode="&#x1ea3;" horiz-adv-x="547" 
d="M323 588q0 19 13 32t39 29q24 15 37 27.5t13 30.5q0 10 -7 17t-20 7q-12 0 -23 -5t-17 -15q-1 -2 -5 -9.5t-11 -12.5t-17 -5q-18 0 -18 17q0 28 28.5 43.5t67.5 15.5q34 0 53.5 -13t19.5 -38q0 -8 -1 -13q-3 -19 -18 -31.5t-44 -29.5q-20 -12 -30.5 -20t-12.5 -18
q-2 -12 3.5 -18t20.5 -12l-13 -20q-58 0 -58 41zM68.5 30.5q-29.5 40.5 -29.5 108.5q0 42 9 85q17 82 59.5 140t98 87t112.5 29q42 0 71 -9.5t43 -35.5l7 35h90l-84 -412q-1 -5 -1 -13q0 -10 4 -14t13 -4q14 0 36 8l-4 -18q-17 -12 -42 -19t-48 -7q-24 0 -38.5 10t-14.5 31
q0 6 1 10l19 88q-58 -71 -113.5 -105.5t-94.5 -34.5q-64 0 -93.5 40.5zM261 69q38 29 73 69t51 68l34 162q-10 69 -95 69q-30 0 -68.5 -21.5t-73 -72.5t-51.5 -132q-6 -31 -6 -56q0 -53 22 -84t50 -31q26 0 64 29z" />
    <glyph glyph-name="uni0251" unicode="&#x251;" horiz-adv-x="545" 
d="M65 26.5q-42 36.5 -42 115.5q0 41 10 88q16 80 61 136.5t107 85t129 28.5q70 0 119 -21.5t70 -55.5l-70 -345l-2 -13q0 -19 18 -19q14 0 36 8l-4 -17q-37 -27 -87 -27q-24 0 -40 8.5t-16 28.5q0 7 1 10l7 32q-62 -79 -171 -79q-84 0 -126 36.5zM295 48q34 20 56.5 52.5
t29.5 68.5l47 229q-35 43 -109 43q-44 0 -84 -25.5t-69.5 -73t-42.5 -111.5q-10 -52 -10 -85q0 -118 108 -118q40 0 74 20z" />
    <glyph glyph-name="amacron" unicode="&#x101;" horiz-adv-x="547" 
d="M197 589h319l-9 -42h-319zM68.5 30.5q-29.5 40.5 -29.5 108.5q0 42 9 85q17 82 59.5 140t98 87t112.5 29q42 0 71 -9.5t43 -35.5l7 35h90l-84 -412q-1 -5 -1 -13q0 -10 4 -14t13 -4q14 0 36 8l-4 -18q-17 -12 -42 -19t-48 -7q-24 0 -38.5 10t-14.5 31q0 6 1 10l19 88
q-58 -71 -113.5 -105.5t-94.5 -34.5q-64 0 -93.5 40.5zM261 69q38 29 73 69t51 68l34 162q-10 69 -95 69q-30 0 -68.5 -21.5t-73 -72.5t-51.5 -132q-6 -31 -6 -56q0 -53 22 -84t50 -31q26 0 64 29z" />
    <glyph glyph-name="aogonek" unicode="&#x105;" horiz-adv-x="547" 
d="M448 31q4 -4 13 -4q14 0 36 8l-4 -18q-16 -12 -38 -18q-36 -26 -57 -55.5t-21 -59.5q0 -21 13 -31t35 -10q18 0 45 10l2 -20q-40 -24 -79 -24q-41 0 -58.5 18.5t-17.5 45.5q0 34 22 64t60 54q-22 1 -35.5 11t-13.5 30q0 6 1 10l19 88q-58 -71 -113.5 -105.5t-94.5 -34.5
q-64 0 -93.5 40.5t-29.5 108.5q0 42 9 85q17 82 59.5 140t98 87t112.5 29q42 0 71 -9.5t43 -35.5l7 35h90l-84 -412q-1 -5 -1 -13q0 -10 4 -14zM261 69q38 29 73 69t51 68l34 162q-10 69 -95 69q-30 0 -68.5 -21.5t-73 -72.5t-51.5 -132q-6 -31 -6 -56q0 -53 22 -84t50 -31
q26 0 64 29z" />
    <glyph glyph-name="aring" unicode="&#xe5;" horiz-adv-x="547" 
d="M298.5 547.5q-20.5 18.5 -20.5 49.5q0 7 2 21q8 40 38.5 64.5t70.5 24.5q34 0 54 -18.5t20 -50.5q0 -6 -2 -20q-9 -40 -38.5 -64.5t-69.5 -24.5q-34 0 -54.5 18.5zM405 584q19 19 19 48q0 19 -11.5 29.5t-30.5 10.5q-26 0 -44.5 -19t-18.5 -49q0 -18 11 -28.5t30 -10.5
q26 0 45 19zM68.5 30.5q-29.5 40.5 -29.5 108.5q0 42 9 85q17 82 59.5 140t98 87t112.5 29q42 0 71 -9.5t43 -35.5l7 35h90l-84 -412q-1 -5 -1 -13q0 -10 4 -14t13 -4q14 0 36 8l-4 -18q-17 -12 -42 -19t-48 -7q-24 0 -38.5 10t-14.5 31q0 6 1 10l19 88
q-58 -71 -113.5 -105.5t-94.5 -34.5q-64 0 -93.5 40.5zM261 69q38 29 73 69t51 68l34 162q-10 69 -95 69q-30 0 -68.5 -21.5t-73 -72.5t-51.5 -132q-6 -31 -6 -56q0 -53 22 -84t50 -31q26 0 64 29z" />
    <glyph glyph-name="aringacute" unicode="&#x1fb;" horiz-adv-x="547" 
d="M309 777l133 107q26 23 47 23q13 0 20 -7t7 -17q0 -27 -43 -48l-152 -83zM298.5 547.5q-20.5 18.5 -20.5 49.5q0 7 2 21q8 40 38.5 64.5t70.5 24.5q34 0 54 -18.5t20 -50.5q0 -6 -2 -20q-9 -40 -38.5 -64.5t-69.5 -24.5q-34 0 -54.5 18.5zM405 584q19 19 19 48
q0 19 -11.5 29.5t-30.5 10.5q-26 0 -44.5 -19t-18.5 -49q0 -18 11 -28.5t30 -10.5q26 0 45 19zM68.5 30.5q-29.5 40.5 -29.5 108.5q0 42 9 85q17 82 59.5 140t98 87t112.5 29q42 0 71 -9.5t43 -35.5l7 35h90l-84 -412q-1 -5 -1 -13q0 -10 4 -14t13 -4q14 0 36 8l-4 -18
q-17 -12 -42 -19t-48 -7q-24 0 -38.5 10t-14.5 31q0 6 1 10l19 88q-58 -71 -113.5 -105.5t-94.5 -34.5q-64 0 -93.5 40.5zM261 69q38 29 73 69t51 68l34 162q-10 69 -95 69q-30 0 -68.5 -21.5t-73 -72.5t-51.5 -132q-6 -31 -6 -56q0 -53 22 -84t50 -31q26 0 64 29z" />
    <glyph glyph-name="atilde" unicode="&#xe3;" horiz-adv-x="547" 
d="M186 559q18 42 48 69t66 27q16 0 30.5 -6.5t38.5 -20.5q22 -13 37 -19.5t30 -6.5q23 0 40.5 15t34.5 47l18 -11q-18 -44 -48 -72t-68 -28q-16 0 -30.5 6.5t-36.5 20.5q-20 13 -35 20t-32 7q-22 0 -40 -14.5t-35 -44.5zM68.5 30.5q-29.5 40.5 -29.5 108.5q0 42 9 85
q17 82 59.5 140t98 87t112.5 29q42 0 71 -9.5t43 -35.5l7 35h90l-84 -412q-1 -5 -1 -13q0 -10 4 -14t13 -4q14 0 36 8l-4 -18q-17 -12 -42 -19t-48 -7q-24 0 -38.5 10t-14.5 31q0 6 1 10l19 88q-58 -71 -113.5 -105.5t-94.5 -34.5q-64 0 -93.5 40.5zM261 69q38 29 73 69
t51 68l34 162q-10 69 -95 69q-30 0 -68.5 -21.5t-73 -72.5t-51.5 -132q-6 -31 -6 -56q0 -53 22 -84t50 -31q26 0 64 29z" />
    <glyph glyph-name="ae" unicode="&#xe6;" horiz-adv-x="775" 
d="M35 11q-29 21 -29 59q0 13 3 26q14 70 92.5 116.5t225.5 69.5q13 37 32 68q1 5 1 13q0 38 -25.5 57.5t-68.5 19.5q-36 0 -70 -15t-38 -32q-1 -4 -1 -14t-1 -15q-2 -13 -13.5 -24t-31.5 -11q-13 0 -21 8t-8 23q0 5 2 15q10 50 70.5 77.5t139.5 27.5q47 0 80.5 -15
t48.5 -42q35 28 80 42.5t95 14.5q93 0 137 -30t44 -80q0 -13 -3 -28q-19 -96 -131 -136t-246 -45q2 -63 33.5 -98.5t86.5 -35.5q64 0 112.5 34.5t75.5 106.5h28q-23 -80 -83.5 -129t-151.5 -49q-63 0 -106.5 21t-66.5 62q-46 -43 -100 -63t-106 -20q-57 0 -86 21zM599 238
q86 34 100 103q2 8 2 22q0 35 -25 56.5t-80 22.5q-73 0 -122.5 -59.5t-67.5 -147.5q-3 -13 -4 -22.5t-2 -16.5q113 8 199 42zM244.5 51.5q43.5 21.5 71.5 49.5q-9 28 -9 64q0 30 8 70l3 11q-107 -25 -164 -67.5t-57 -94.5q0 -26 18 -40t49 -14q37 0 80.5 21.5z" />
    <glyph glyph-name="aeacute" unicode="&#x1fd;" horiz-adv-x="775" 
d="M444 572l133 107q14 11 24 17t23 6q15 0 22 -9t4 -21q-4 -24 -41 -42l-153 -83zM35 11q-29 21 -29 59q0 13 3 26q14 70 92.5 116.5t225.5 69.5q13 37 32 68q1 5 1 13q0 38 -25.5 57.5t-68.5 19.5q-36 0 -70 -15t-38 -32q-1 -4 -1 -14t-1 -15q-2 -13 -13.5 -24t-31.5 -11
q-13 0 -21 8t-8 23q0 5 2 15q10 50 70.5 77.5t139.5 27.5q47 0 80.5 -15t48.5 -42q35 28 80 42.5t95 14.5q93 0 137 -30t44 -80q0 -13 -3 -28q-19 -96 -131 -136t-246 -45q2 -63 33.5 -98.5t86.5 -35.5q64 0 112.5 34.5t75.5 106.5h28q-23 -80 -83.5 -129t-151.5 -49
q-63 0 -106.5 21t-66.5 62q-46 -43 -100 -63t-106 -20q-57 0 -86 21zM599 238q86 34 100 103q2 8 2 22q0 35 -25 56.5t-80 22.5q-73 0 -122.5 -59.5t-67.5 -147.5q-3 -13 -4 -22.5t-2 -16.5q113 8 199 42zM244.5 51.5q43.5 21.5 71.5 49.5q-9 28 -9 64q0 30 8 70l3 11
q-107 -25 -164 -67.5t-57 -94.5q0 -26 18 -40t49 -14q37 0 80.5 21.5z" />
    <glyph glyph-name="b" unicode="b" horiz-adv-x="560" 
d="M171 11.5q-38 21.5 -51 58.5l-37 -70h-44l130 636q1 2 1 7q0 8 -5 11.5t-12 3.5q-6 0 -16 -3.5t-13 -4.5l-3 22l130 45h25l-65 -317q30 40 77 60t92 20q79 0 123 -42.5t44 -123.5q0 -29 -8 -71q-28 -135 -96.5 -194t-172.5 -59q-61 0 -99 21.5zM448 238q9 44 9 79
q0 61 -27.5 92.5t-83.5 31.5q-34 0 -67 -19.5t-57.5 -54t-33.5 -78.5l-24 -116q-3 -16 -3 -32q0 -47 27.5 -79.5t78.5 -32.5q138 0 181 209z" />
    <glyph glyph-name="c" unicode="c" horiz-adv-x="490" 
d="M77.5 34.5q-49.5 44.5 -49.5 129.5q0 29 8 71q23 113 99 179t186 66q82 0 122.5 -27t40.5 -73q0 -15 -2 -23q-2 -13 -13.5 -25t-25.5 -12t-21 7t-7 18q0 5 1 8q0 5 4.5 15t4.5 16q0 12 -10 25.5t-30.5 23t-50.5 9.5q-80 0 -133.5 -57t-73.5 -150q-7 -34 -7 -66
q0 -66 31 -104t87 -38q132 0 184 141h29q-24 -80 -83 -129t-149 -49q-92 0 -141.5 44.5z" />
    <glyph glyph-name="cacute" unicode="&#x107;" horiz-adv-x="490" 
d="M275 572l132 107q14 11 24 17t23 6q15 0 22 -9t4 -21q-4 -24 -41 -42l-153 -83zM77.5 34.5q-49.5 44.5 -49.5 129.5q0 29 8 71q23 113 99 179t186 66q82 0 122.5 -27t40.5 -73q0 -15 -2 -23q-2 -13 -13.5 -25t-25.5 -12t-21 7t-7 18q0 5 1 8q0 5 4.5 15t4.5 16
q0 12 -10 25.5t-30.5 23t-50.5 9.5q-80 0 -133.5 -57t-73.5 -150q-7 -34 -7 -66q0 -66 31 -104t87 -38q132 0 184 141h29q-24 -80 -83 -129t-149 -49q-92 0 -141.5 44.5z" />
    <glyph glyph-name="ccaron" unicode="&#x10d;" horiz-adv-x="490" 
d="M211 676l22 21l87 -85q11 -11 20 -11t25 11l121 85l13 -21l-145 -129h-51zM77.5 34.5q-49.5 44.5 -49.5 129.5q0 29 8 71q23 113 99 179t186 66q82 0 122.5 -27t40.5 -73q0 -15 -2 -23q-2 -13 -13.5 -25t-25.5 -12t-21 7t-7 18q0 5 1 8q0 5 4.5 15t4.5 16q0 12 -10 25.5
t-30.5 23t-50.5 9.5q-80 0 -133.5 -57t-73.5 -150q-7 -34 -7 -66q0 -66 31 -104t87 -38q132 0 184 141h29q-24 -80 -83 -129t-149 -49q-92 0 -141.5 44.5z" />
    <glyph glyph-name="ccedilla" unicode="&#xe7;" horiz-adv-x="490" 
d="M443.5 453q40.5 -27 40.5 -73q0 -15 -2 -23q-2 -13 -13.5 -25t-25.5 -12t-21 7t-7 18q0 5 1 8q0 5 4.5 15t4.5 16q0 12 -10 25.5t-30.5 23t-50.5 9.5q-80 0 -133.5 -57t-73.5 -150q-7 -34 -7 -66q0 -66 31 -104t87 -38q132 0 184 141h29q-24 -79 -82 -128t-146 -50
l-35 -51q33 0 58.5 -13.5t25.5 -43.5q0 -9 -1 -14q-10 -48 -52.5 -68t-98.5 -20q-23 0 -46 5l11 29q9 -2 30 -2q84 0 94 54q5 23 -18.5 31.5t-51.5 8.5l-8 16l53 70q-76 8 -116 52t-40 120q0 29 8 71q23 113 99 179t186 66q82 0 122.5 -27z" />
    <glyph glyph-name="ccircumflex" unicode="&#x109;" horiz-adv-x="490" 
d="M192 568l145 129h51l92 -129l-22 -21l-86 86q-15 11 -21 11q-8 0 -25 -11l-120 -86zM77.5 34.5q-49.5 44.5 -49.5 129.5q0 29 8 71q23 113 99 179t186 66q82 0 122.5 -27t40.5 -73q0 -15 -2 -23q-2 -13 -13.5 -25t-25.5 -12t-21 7t-7 18q0 5 1 8q0 5 4.5 15t4.5 16
q0 12 -10 25.5t-30.5 23t-50.5 9.5q-80 0 -133.5 -57t-73.5 -150q-7 -34 -7 -66q0 -66 31 -104t87 -38q132 0 184 141h29q-24 -80 -83 -129t-149 -49q-92 0 -141.5 44.5z" />
    <glyph glyph-name="cdotaccent" unicode="&#x10b;" horiz-adv-x="490" 
d="M309.5 554.5q-9.5 9.5 -9.5 25.5q0 7 1 11q5 21 19.5 34t35.5 13q17 0 26.5 -9.5t9.5 -26.5q0 -25 -16 -41t-39 -16q-18 0 -27.5 9.5zM77.5 34.5q-49.5 44.5 -49.5 129.5q0 29 8 71q23 113 99 179t186 66q82 0 122.5 -27t40.5 -73q0 -15 -2 -23q-2 -13 -13.5 -25
t-25.5 -12t-21 7t-7 18q0 5 1 8q0 5 4.5 15t4.5 16q0 12 -10 25.5t-30.5 23t-50.5 9.5q-80 0 -133.5 -57t-73.5 -150q-7 -34 -7 -66q0 -66 31 -104t87 -38q132 0 184 141h29q-24 -80 -83 -129t-149 -49q-92 0 -141.5 44.5z" />
    <glyph glyph-name="d" unicode="d" horiz-adv-x="563" 
d="M68.5 30.5q-29.5 40.5 -29.5 108.5q0 42 9 85q17 82 59.5 140t98 87t112.5 29q98 0 122 -45l41 201q1 3 1 7q0 15 -17 15q-5 0 -29 -8l-3 22l131 45h24l-135 -659q-2 -10 -2 -14q0 -17 17 -17q15 0 37 8l-4 -18q-17 -12 -42 -19t-48 -7q-24 0 -38.5 9.5t-14.5 30.5
q0 7 1 11l18 88q-57 -70 -116 -105t-99 -35q-64 0 -93.5 40.5zM263 69.5q40 29.5 77.5 69.5t52.5 67l33 162q-4 35 -32 52t-70 17q-30 0 -68.5 -21.5t-73 -72.5t-51.5 -132q-6 -31 -6 -56q0 -53 22 -84t50 -31q26 0 66 29.5z" />
    <glyph glyph-name="eth" unicode="&#xf0;" horiz-adv-x="566" 
d="M445 668q52 -61 80 -137t28 -155q0 -47 -8 -84q-29 -143 -108.5 -222.5t-206.5 -79.5q-91 0 -138 53t-47 138q0 35 7 67q13 62 50.5 120.5t98.5 96t140 37.5q41 0 76.5 -17t53.5 -51q-5 52 -25.5 105.5t-55.5 99.5l-175 -93l-7 45l29 16q69 36 123 66q-39 41 -90 67
l33 36q63 -31 110 -75l109 60l30 17l20 -43zM453 318q0 62 -31 103t-85 41q-43 0 -83 -27.5t-69.5 -76t-42.5 -110.5q-8 -40 -8 -73q0 -65 27 -106t79 -41q75 0 131 69.5t77 172.5q5 27 5 48z" />
    <glyph glyph-name="dcaron" unicode="&#x10f;" horiz-adv-x="659" 
d="M68.5 30.5q-29.5 40.5 -29.5 108.5q0 42 9 85q17 82 59.5 140t98 87t112.5 29q98 0 122 -45l41 201q1 3 1 7q0 15 -17 15q-5 0 -29 -8l-3 22l131 45h24l-135 -659q-2 -10 -2 -14q0 -17 17 -17q15 0 37 8l-4 -18q-17 -12 -42 -19t-48 -7q-24 0 -38.5 9.5t-14.5 30.5
q0 7 1 11l18 88q-57 -70 -116 -105t-99 -35q-64 0 -93.5 40.5zM598 499q60 50 70 95q1 3 1 10q0 8 -3 15t-7 14q-10 16 -10 28q0 22 15.5 37.5t38.5 15.5q18 0 29 -11t11 -33q0 -10 -3 -24q-9 -45 -44.5 -88t-84.5 -76zM263 69.5q40 29.5 77.5 69.5t52.5 67l33 162
q-4 35 -32 52t-70 17q-30 0 -68.5 -21.5t-73 -72.5t-51.5 -132q-6 -31 -6 -56q0 -53 22 -84t50 -31q26 0 66 29.5z" />
    <glyph glyph-name="dcroat" unicode="&#x111;" horiz-adv-x="562" 
d="M453 58q-2 -10 -2 -14q0 -17 17 -17q15 0 37 8l-4 -18q-17 -12 -42 -19t-48 -7q-24 0 -38.5 9.5t-14.5 30.5q0 7 1 11l18 88q-57 -70 -116 -105t-99 -35q-64 0 -93.5 40.5t-29.5 108.5q0 42 9 85q17 82 59.5 140t98 87t112.5 29q98 0 122 -45l25 124h-141l7 35h141l9 42
q1 3 1 7q0 15 -17 15q-5 0 -29 -8l-3 22l131 45h24l-25 -123h56l-7 -35h-56zM426 368q-4 35 -32 52t-70 17q-30 0 -68.5 -21.5t-73 -72.5t-51.5 -132q-6 -31 -6 -56q0 -53 22 -84t50 -31q26 0 66 29.5t77.5 69.5t52.5 67z" />
    <glyph glyph-name="uni1E0D" unicode="&#x1e0d;" horiz-adv-x="562" 
d="M48 224q17 82 59.5 140t98 87t112.5 29q98 0 122 -45l41 201q1 3 1 7q0 15 -17 15q-5 0 -29 -8l-3 22l131 45h24l-135 -659q-2 -10 -2 -14q0 -17 17 -17q15 0 37 8l-4 -18q-17 -12 -42 -19t-48 -7q-24 0 -38.5 9.5t-14.5 30.5q0 7 1 11l18 88q-57 -70 -116 -105t-99 -35
q-64 0 -93.5 40.5t-29.5 108.5q0 42 9 85zM147 71q22 -31 50 -31q26 0 66 29.5t77.5 69.5t52.5 67l33 162q-4 35 -32 52t-70 17q-30 0 -68.5 -21.5t-73 -72.5t-51.5 -132q-6 -31 -6 -56q0 -53 22 -84zM187.5 -81.5q16.5 17.5 39.5 17.5q16 0 25.5 -9.5t9.5 -26.5
q0 -25 -16 -42t-39 -17q-17 0 -26.5 9.5t-9.5 25.5q0 25 16.5 42.5z" />
    <glyph glyph-name="uni1E0F" unicode="&#x1e0f;" horiz-adv-x="562" 
d="M68.5 30.5q-29.5 40.5 -29.5 108.5q0 42 9 85q17 82 59.5 140t98 87t112.5 29q98 0 122 -45l41 201q1 3 1 7q0 15 -17 15q-5 0 -29 -8l-3 22l131 45h24l-135 -659q-2 -10 -2 -14q0 -17 17 -17q15 0 37 8l-4 -18q-17 -12 -42 -19t-48 -7q-24 0 -38.5 9.5t-14.5 30.5
q0 7 1 11l18 88q-57 -70 -116 -105t-99 -35q-64 0 -93.5 40.5zM263 69.5q40 29.5 77.5 69.5t52.5 67l33 162q-4 35 -32 52t-70 17q-30 0 -68.5 -21.5t-73 -72.5t-51.5 -132q-6 -31 -6 -56q0 -53 22 -84t50 -31q26 0 66 29.5zM68 -72h318l-8 -38h-318z" />
    <glyph glyph-name="e" unicode="e" horiz-adv-x="494" 
d="M365.5 207q-111.5 -40 -245.5 -46q2 -63 34 -98.5t86 -35.5q64 0 112.5 34.5t74.5 106.5h29q-24 -80 -84 -129t-151 -49q-93 0 -143 45t-50 130q0 30 8 70q23 114 98.5 179.5t184.5 65.5q92 0 136 -29.5t44 -79.5q0 -14 -3 -29q-19 -95 -130.5 -135zM422 363
q0 35 -25 56.5t-80 22.5q-74 0 -123 -59.5t-67 -147.5q-5 -19 -6 -39q112 8 198 42t101 103q2 8 2 22z" />
    <glyph glyph-name="eacute" unicode="&#xe9;" horiz-adv-x="494" 
d="M264 547l-12 25l133 107q14 11 24 17t23 6q15 0 22 -9t4 -21q-4 -24 -41 -42zM365.5 207q-111.5 -40 -245.5 -46q2 -63 34 -98.5t86 -35.5q64 0 112.5 34.5t74.5 106.5h29q-24 -80 -84 -129t-151 -49q-93 0 -143 45t-50 130q0 30 8 70q23 114 98.5 179.5t184.5 65.5
q92 0 136 -29.5t44 -79.5q0 -14 -3 -29q-19 -95 -130.5 -135zM422 363q0 35 -25 56.5t-80 22.5q-74 0 -123 -59.5t-67 -147.5q-5 -19 -6 -39q112 8 198 42t101 103q2 8 2 22z" />
    <glyph glyph-name="ebreve" unicode="&#x115;" horiz-adv-x="494" 
d="M203 644q0 8 2 28h32q-4 -43 20.5 -64t71.5 -21q48 0 80.5 21t44.5 64h32q-15 -60 -56 -95.5t-109 -35.5q-118 0 -118 103zM365.5 207q-111.5 -40 -245.5 -46q2 -63 34 -98.5t86 -35.5q64 0 112.5 34.5t74.5 106.5h29q-24 -80 -84 -129t-151 -49q-93 0 -143 45t-50 130
q0 30 8 70q23 114 98.5 179.5t184.5 65.5q92 0 136 -29.5t44 -79.5q0 -14 -3 -29q-19 -95 -130.5 -135zM422 363q0 35 -25 56.5t-80 22.5q-74 0 -123 -59.5t-67 -147.5q-5 -19 -6 -39q112 8 198 42t101 103q2 8 2 22z" />
    <glyph glyph-name="ecaron" unicode="&#x11b;" horiz-adv-x="494" 
d="M303 547l-92 129l22 21l87 -85q11 -11 20 -11t25 11l121 85l13 -21l-145 -129h-51zM455 450.5q44 -29.5 44 -79.5q0 -14 -3 -29q-19 -95 -130.5 -135t-245.5 -46q2 -63 34 -98.5t86 -35.5q64 0 112.5 34.5t74.5 106.5h29q-24 -80 -84 -129t-151 -49q-93 0 -143 45
t-50 130q0 30 8 70q23 114 98.5 179.5t184.5 65.5q92 0 136 -29.5zM422 363q0 35 -25 56.5t-80 22.5q-74 0 -123 -59.5t-67 -147.5q-5 -19 -6 -39q112 8 198 42t101 103q2 8 2 22z" />
    <glyph glyph-name="ecircumflex" unicode="&#xea;" horiz-adv-x="494" 
d="M203 547l-15 21l145 129h51l92 -129l-22 -21l-86 86q-15 11 -20 11q-10 0 -25 -11zM365.5 207q-111.5 -40 -245.5 -46q2 -63 34 -98.5t86 -35.5q64 0 112.5 34.5t74.5 106.5h29q-24 -80 -84 -129t-151 -49q-93 0 -143 45t-50 130q0 30 8 70q23 114 98.5 179.5t184.5 65.5
q92 0 136 -29.5t44 -79.5q0 -14 -3 -29q-19 -95 -130.5 -135zM422 363q0 35 -25 56.5t-80 22.5q-74 0 -123 -59.5t-67 -147.5q-5 -19 -6 -39q112 8 198 42t101 103q2 8 2 22z" />
    <glyph glyph-name="uni1EBF" unicode="&#x1ebf;" horiz-adv-x="493" 
d="M635.5 791.5q7.5 -7.5 7.5 -17.5q0 -13 -11.5 -25.5t-32.5 -23.5l-131 -67l-12 22l110 93q14 12 25.5 19t23.5 7q13 0 20.5 -7.5zM212 546l-13 22l144 129h49l89 -129l-21 -22l-85 86q-13 11 -20 11q-8 0 -30 -16zM455 450.5q44 -29.5 44 -79.5q0 -14 -3 -29
q-19 -95 -130.5 -135t-245.5 -46q2 -63 34 -98.5t86 -35.5q64 0 112.5 34.5t74.5 106.5h29q-24 -80 -84 -129t-151 -49q-93 0 -143 45t-50 130q0 30 8 70q23 114 98.5 179.5t184.5 65.5q92 0 136 -29.5zM422 363q0 35 -25 56.5t-80 22.5q-74 0 -123 -59.5t-67 -147.5
q-5 -19 -6 -39q112 8 198 42t101 103q2 8 2 22z" />
    <glyph glyph-name="uni1EC7" unicode="&#x1ec7;" horiz-adv-x="493" 
d="M210 547l-14 21l145 129h51l92 -129l-22 -21l-87 86q-13 11 -20 11q-8 0 -25 -11zM365.5 207q-111.5 -40 -245.5 -46q2 -63 34 -98.5t86 -35.5q64 0 112.5 34.5t74.5 106.5h29q-24 -80 -84 -129t-151 -49q-93 0 -143 45t-50 130q0 30 8 70q23 114 98.5 179.5t184.5 65.5
q92 0 136 -29.5t44 -79.5q0 -14 -3 -29q-19 -95 -130.5 -135zM422 363q0 35 -25 56.5t-80 22.5q-74 0 -123 -59.5t-67 -147.5q-5 -19 -6 -39q112 8 198 42t101 103q2 8 2 22zM241.5 -74q9.5 -10 9.5 -27q0 -25 -16 -41.5t-39 -16.5q-17 0 -27 9.5t-10 26.5q0 25 16.5 42
t39.5 17q17 0 26.5 -10z" />
    <glyph glyph-name="uni1EC1" unicode="&#x1ec1;" horiz-adv-x="493" 
d="M132 742q-7 10 -7 20q0 13 10.5 25t27.5 12q20 0 41 -26l72 -93l-22 -22l-102 67q-13 7 -20 17zM199 568l144 129h49l89 -129l-21 -22l-85 86q-13 11 -20 11q-8 0 -30 -16l-113 -81zM365.5 207q-111.5 -40 -245.5 -46q2 -63 34 -98.5t86 -35.5q64 0 112.5 34.5
t74.5 106.5h29q-24 -80 -84 -129t-151 -49q-93 0 -143 45t-50 130q0 30 8 70q23 114 98.5 179.5t184.5 65.5q92 0 136 -29.5t44 -79.5q0 -14 -3 -29q-19 -95 -130.5 -135zM422 363q0 35 -25 56.5t-80 22.5q-74 0 -123 -59.5t-67 -147.5q-5 -19 -6 -39q112 8 198 42t101 103
q2 8 2 22z" />
    <glyph glyph-name="uni1EC3" unicode="&#x1ec3;" horiz-adv-x="493" 
d="M585 751.5q-14 -12.5 -43 -29.5q-18 -10 -27.5 -16.5t-10.5 -14.5q-2 -10 3.5 -16t18.5 -12l-11 -18q-52 0 -52 35q0 7 1 10q3 13 13.5 22.5t29.5 21.5q20 12 30.5 21.5t13.5 22.5q2 12 -4 19.5t-19 7.5q-15 0 -23.5 -6t-16.5 -17q-6 -8 -11 -12t-13 -4t-13 6t-3 15
q4 21 28.5 31t52.5 10q29 0 49.5 -11t20.5 -32t-14 -33.5zM212 546l-13 22l144 129h49l89 -129l-21 -22l-85 86q-13 11 -20 11q-10 0 -34 -20zM455 450.5q44 -29.5 44 -79.5q0 -14 -3 -29q-19 -95 -130.5 -135t-245.5 -46q2 -63 34 -98.5t86 -35.5q64 0 112.5 34.5
t74.5 106.5h29q-24 -80 -84 -129t-151 -49q-93 0 -143 45t-50 130q0 30 8 70q23 114 98.5 179.5t184.5 65.5q92 0 136 -29.5zM422 363q0 35 -25 56.5t-80 22.5q-74 0 -123 -59.5t-67 -147.5q-5 -19 -6 -39q112 8 198 42t101 103q2 8 2 22z" />
    <glyph glyph-name="uni1EC5" unicode="&#x1ec5;" horiz-adv-x="493" 
d="M549 828q-18 -43 -46.5 -71t-63.5 -28q-15 0 -29 6.5t-35 20.5q-19 13 -33.5 20t-30.5 7q-22 0 -39.5 -15t-32.5 -45l-16 12q16 41 44.5 68t63.5 27q16 0 29.5 -6.5t36.5 -20.5q19 -13 33.5 -19.5t29.5 -6.5q22 0 38.5 15.5t32.5 47.5zM325 627l-113 -81l-13 22l144 129
h49l89 -129l-21 -22l-85 86q-13 11 -20 11q-8 0 -30 -16zM455 450.5q44 -29.5 44 -79.5q0 -14 -3 -29q-19 -95 -130.5 -135t-245.5 -46q2 -63 34 -98.5t86 -35.5q64 0 112.5 34.5t74.5 106.5h29q-24 -80 -84 -129t-151 -49q-93 0 -143 45t-50 130q0 30 8 70
q23 114 98.5 179.5t184.5 65.5q92 0 136 -29.5zM422 363q0 35 -25 56.5t-80 22.5q-74 0 -123 -59.5t-67 -147.5q-5 -19 -6 -39q112 8 198 42t101 103q2 8 2 22z" />
    <glyph glyph-name="edieresis" unicode="&#xeb;" horiz-adv-x="494" 
d="M200 556q-10 10 -10 26q0 6 1 10q5 21 19.5 34.5t34.5 13.5q17 0 26.5 -9.5t9.5 -25.5q0 -25 -16 -42t-39 -17q-16 0 -26 10zM405 556q-10 10 -10 27l1 9q5 21 20 34.5t36 13.5q17 0 26.5 -10t9.5 -26q0 -25 -15.5 -41.5t-39.5 -16.5q-18 0 -28 10zM365.5 207
q-111.5 -40 -245.5 -46q2 -63 34 -98.5t86 -35.5q64 0 112.5 34.5t74.5 106.5h29q-24 -80 -84 -129t-151 -49q-93 0 -143 45t-50 130q0 30 8 70q23 114 98.5 179.5t184.5 65.5q92 0 136 -29.5t44 -79.5q0 -14 -3 -29q-19 -95 -130.5 -135zM422 363q0 35 -25 56.5t-80 22.5
q-74 0 -123 -59.5t-67 -147.5q-5 -19 -6 -39q112 8 198 42t101 103q2 8 2 22z" />
    <glyph glyph-name="edotaccent" unicode="&#x117;" horiz-adv-x="494" 
d="M305 554q-9 9 -9 25q0 25 16 42t39 17q17 0 26.5 -9.5t9.5 -25.5q0 -25 -16 -41.5t-39 -16.5q-18 0 -27 9zM365.5 207q-111.5 -40 -245.5 -46q2 -63 34 -98.5t86 -35.5q64 0 112.5 34.5t74.5 106.5h29q-24 -80 -84 -129t-151 -49q-93 0 -143 45t-50 130q0 30 8 70
q23 114 98.5 179.5t184.5 65.5q92 0 136 -29.5t44 -79.5q0 -14 -3 -29q-19 -95 -130.5 -135zM422 363q0 35 -25 56.5t-80 22.5q-74 0 -123 -59.5t-67 -147.5q-5 -19 -6 -39q112 8 198 42t101 103q2 8 2 22z" />
    <glyph glyph-name="uni1EB9" unicode="&#x1eb9;" horiz-adv-x="493" 
d="M365.5 207q-111.5 -40 -245.5 -46q2 -63 34 -98.5t86 -35.5q64 0 112.5 34.5t74.5 106.5h29q-24 -80 -84 -129t-151 -49q-93 0 -143 45t-50 130q0 30 8 70q23 114 98.5 179.5t184.5 65.5q92 0 136 -29.5t44 -79.5q0 -14 -3 -29q-19 -95 -130.5 -135zM422 363
q0 35 -25 56.5t-80 22.5q-74 0 -123 -59.5t-67 -147.5q-5 -19 -6 -39q112 8 198 42t101 103q2 8 2 22zM234.5 -73.5q9.5 -9.5 9.5 -26.5q0 -25 -16 -42t-39 -17q-17 0 -26.5 9.5t-9.5 25.5q0 25 16 42.5t39 17.5q17 0 26.5 -9.5z" />
    <glyph glyph-name="egrave" unicode="&#xe8;" horiz-adv-x="494" 
d="M262 665q0 15 10.5 26t27.5 11q19 0 38 -24l88 -106l-22 -25l-121 83q-21 15 -21 35zM365.5 207q-111.5 -40 -245.5 -46q2 -63 34 -98.5t86 -35.5q64 0 112.5 34.5t74.5 106.5h29q-24 -80 -84 -129t-151 -49q-93 0 -143 45t-50 130q0 30 8 70q23 114 98.5 179.5
t184.5 65.5q92 0 136 -29.5t44 -79.5q0 -14 -3 -29q-19 -95 -130.5 -135zM422 363q0 35 -25 56.5t-80 22.5q-74 0 -123 -59.5t-67 -147.5q-5 -19 -6 -39q112 8 198 42t101 103q2 8 2 22z" />
    <glyph glyph-name="uni1EBB" unicode="&#x1ebb;" horiz-adv-x="493" 
d="M295 701q0 28 28.5 43.5t67.5 15.5q35 0 54 -13.5t19 -38.5q0 -8 -1 -12q-4 -19 -20 -33t-42 -28q-21 -11 -31.5 -19.5t-12.5 -18.5q-2 -12 4 -18t20 -12l-12 -20q-58 0 -58 40q0 19 13.5 32.5t38.5 29.5q22 14 34 24.5t15 25.5q3 13 -4 22.5t-22 9.5q-12 0 -23.5 -5
t-16.5 -15q-1 -2 -5 -9.5t-11 -12.5t-17 -5q-18 0 -18 17zM365.5 207q-111.5 -40 -245.5 -46q2 -63 34 -98.5t86 -35.5q64 0 112.5 34.5t74.5 106.5h29q-24 -80 -84 -129t-151 -49q-93 0 -143 45t-50 130q0 30 8 70q23 114 98.5 179.5t184.5 65.5q92 0 136 -29.5t44 -79.5
q0 -14 -3 -29q-19 -95 -130.5 -135zM422 363q0 35 -25 56.5t-80 22.5q-74 0 -123 -59.5t-67 -147.5q-5 -19 -6 -39q112 8 198 42t101 103q2 8 2 22z" />
    <glyph glyph-name="emacron" unicode="&#x113;" horiz-adv-x="494" 
d="M484 547h-319l9 42h318zM365.5 207q-111.5 -40 -245.5 -46q2 -63 34 -98.5t86 -35.5q64 0 112.5 34.5t74.5 106.5h29q-24 -80 -84 -129t-151 -49q-93 0 -143 45t-50 130q0 30 8 70q23 114 98.5 179.5t184.5 65.5q92 0 136 -29.5t44 -79.5q0 -14 -3 -29
q-19 -95 -130.5 -135zM422 363q0 35 -25 56.5t-80 22.5q-74 0 -123 -59.5t-67 -147.5q-5 -19 -6 -39q112 8 198 42t101 103q2 8 2 22z" />
    <glyph glyph-name="eogonek" unicode="&#x119;" horiz-adv-x="494" 
d="M365.5 207q-111.5 -40 -245.5 -46q2 -63 34 -98.5t86 -35.5q64 0 112.5 34.5t74.5 106.5h29q-15 -49 -44.5 -88t-71.5 -62q-29 -23 -46 -50t-17 -53q0 -21 13 -31t35 -10q18 0 46 10l1 -20q-38 -24 -79 -24t-58.5 18.5t-17.5 45.5q0 47 44 89q-20 -3 -40 -3
q-93 0 -143 45t-50 130q0 30 8 70q23 114 98.5 179.5t184.5 65.5q92 0 136 -29.5t44 -79.5q0 -14 -3 -29q-19 -95 -130.5 -135zM422 363q0 35 -25 56.5t-80 22.5q-74 0 -123 -59.5t-67 -147.5q-5 -19 -6 -39q112 8 198 42t101 103q2 8 2 22z" />
    <glyph glyph-name="uni1EBD" unicode="&#x1ebd;" horiz-adv-x="493" 
d="M221 589.5q-18 -14.5 -34 -44.5l-18 11q18 42 47.5 69t66.5 27q16 0 30.5 -6.5t38.5 -20.5q22 -13 37 -19.5t30 -6.5q23 0 39.5 15t34.5 47l19 -11q-18 -44 -48 -72t-68 -28q-16 0 -30.5 6.5t-36.5 20.5q-20 13 -35 20t-32 7q-23 0 -41 -14.5zM455 450.5
q44 -29.5 44 -79.5q0 -14 -3 -29q-19 -95 -130.5 -135t-245.5 -46q2 -63 34 -98.5t86 -35.5q64 0 112.5 34.5t74.5 106.5h29q-24 -80 -84 -129t-151 -49q-93 0 -143 45t-50 130q0 30 8 70q23 114 98.5 179.5t184.5 65.5q92 0 136 -29.5zM422 363q0 35 -25 56.5t-80 22.5
q-74 0 -123 -59.5t-67 -147.5q-5 -19 -6 -39q112 8 198 42t101 103q2 8 2 22z" />
    <glyph glyph-name="f" unicode="f" horiz-adv-x="384" 
d="M459.5 701.5q30.5 -21.5 30.5 -59.5q0 -34 -14.5 -49t-35.5 -15q-30 0 -30 22q0 6 1 9q2 8 9 18t8 16q4 18 -13.5 29.5t-41.5 11.5q-75 0 -95 -99l-23 -115h137l-8 -38h-137l-117 -576l-93 -7l119 583h-85l8 38h85l22 106q14 70 62.5 108.5t119.5 38.5q61 0 91.5 -21.5z
" />
    <glyph glyph-name="g" unicode="g" horiz-adv-x="487" 
d="M548.5 468.5q14.5 -11.5 11.5 -29.5q-4 -16 -14 -25t-26 -9q-10 0 -14 4t-7 12q-4 9 -9.5 13.5t-19.5 4.5q-13 0 -39 -12q21 -28 21 -69q0 -19 -4 -36q-15 -74 -74.5 -115t-151.5 -41q-61 0 -100 18q-39 -27 -39 -54q0 -16 15 -25.5t43 -9.5h155q51 0 83.5 -21t32.5 -62
q0 -15 -2 -23q-14 -71 -83 -108t-176 -37q-81 0 -126.5 25t-45.5 72q0 70 81 108q-20 8 -29.5 22.5t-9.5 32.5q0 53 74 96q-40 31 -40 86q0 19 4 36q15 75 75.5 116.5t151.5 41.5q83 0 126 -34q46 34 95 34q27 0 41.5 -11.5zM363 356q0 39 -21.5 62.5t-64.5 23.5
q-52 0 -85.5 -33.5t-43.5 -86.5q-4 -16 -4 -36q0 -38 21 -61t63 -23q52 0 86.5 34t44.5 86q4 24 4 34zM68 4q-18 -20 -22 -41q-2 -10 -2 -15q0 -33 31.5 -50t86.5 -17q69 0 113 23.5t53 68.5q2 10 2 14q0 23 -20.5 34.5t-64.5 11.5h-122q-37 -9 -55 -29z" />
    <glyph glyph-name="gbreve" unicode="&#x11f;" horiz-adv-x="487" 
d="M183 644q0 8 2 28h32q-4 -43 20.5 -64t71.5 -21q48 0 80.5 21t44.5 64h32q-16 -60 -57 -95.5t-109 -35.5q-117 0 -117 103zM548.5 468.5q14.5 -11.5 11.5 -29.5q-4 -16 -14 -25t-26 -9q-10 0 -14 4t-7 12q-4 9 -9.5 13.5t-19.5 4.5q-13 0 -39 -12q21 -28 21 -69
q0 -19 -4 -36q-15 -74 -74.5 -115t-151.5 -41q-61 0 -100 18q-39 -27 -39 -54q0 -16 15 -25.5t43 -9.5h155q51 0 83.5 -21t32.5 -62q0 -15 -2 -23q-14 -71 -83 -108t-176 -37q-81 0 -126.5 25t-45.5 72q0 70 81 108q-20 8 -29.5 22.5t-9.5 32.5q0 53 74 96q-40 31 -40 86
q0 19 4 36q15 75 75.5 116.5t151.5 41.5q83 0 126 -34q46 34 95 34q27 0 41.5 -11.5zM363 356q0 39 -21.5 62.5t-64.5 23.5q-52 0 -85.5 -33.5t-43.5 -86.5q-4 -16 -4 -36q0 -38 21 -61t63 -23q52 0 86.5 34t44.5 86q4 24 4 34zM68 4q-18 -20 -22 -41q-2 -10 -2 -15
q0 -33 31.5 -50t86.5 -17q69 0 113 23.5t53 68.5q2 10 2 14q0 23 -20.5 34.5t-64.5 11.5h-122q-37 -9 -55 -29z" />
    <glyph glyph-name="gcaron" unicode="&#x1e7;" horiz-adv-x="487" 
d="M281 547l-92 129l22 21l87 -85q11 -11 20 -11t25 11l121 85l13 -21l-145 -129h-51zM548.5 468.5q14.5 -11.5 11.5 -29.5q-4 -16 -14 -25t-26 -9q-10 0 -14 4t-7 12q-4 9 -9.5 13.5t-19.5 4.5q-13 0 -39 -12q21 -28 21 -69q0 -19 -4 -36q-15 -74 -74.5 -115t-151.5 -41
q-61 0 -100 18q-39 -27 -39 -54q0 -16 15 -25.5t43 -9.5h155q51 0 83.5 -21t32.5 -62q0 -15 -2 -23q-14 -71 -83 -108t-176 -37q-81 0 -126.5 25t-45.5 72q0 70 81 108q-20 8 -29.5 22.5t-9.5 32.5q0 53 74 96q-40 31 -40 86q0 19 4 36q15 75 75.5 116.5t151.5 41.5
q83 0 126 -34q46 34 95 34q27 0 41.5 -11.5zM363 356q0 39 -21.5 62.5t-64.5 23.5q-52 0 -85.5 -33.5t-43.5 -86.5q-4 -16 -4 -36q0 -38 21 -61t63 -23q52 0 86.5 34t44.5 86q4 24 4 34zM68 4q-18 -20 -22 -41q-2 -10 -2 -15q0 -33 31.5 -50t86.5 -17q69 0 113 23.5t53 68.5
q2 10 2 14q0 23 -20.5 34.5t-64.5 11.5h-122q-37 -9 -55 -29z" />
    <glyph glyph-name="gcircumflex" unicode="&#x11d;" horiz-adv-x="487" 
d="M181 547l-14 21l145 129h51l92 -129l-22 -21l-86 86q-15 11 -21 11q-9 0 -25 -11zM548.5 468.5q14.5 -11.5 11.5 -29.5q-4 -16 -14 -25t-26 -9q-10 0 -14 4t-7 12q-4 9 -9.5 13.5t-19.5 4.5q-13 0 -39 -12q21 -28 21 -69q0 -19 -4 -36q-15 -74 -74.5 -115t-151.5 -41
q-61 0 -100 18q-39 -27 -39 -54q0 -16 15 -25.5t43 -9.5h155q51 0 83.5 -21t32.5 -62q0 -15 -2 -23q-14 -71 -83 -108t-176 -37q-81 0 -126.5 25t-45.5 72q0 70 81 108q-20 8 -29.5 22.5t-9.5 32.5q0 53 74 96q-40 31 -40 86q0 19 4 36q15 75 75.5 116.5t151.5 41.5
q83 0 126 -34q46 34 95 34q27 0 41.5 -11.5zM363 356q0 39 -21.5 62.5t-64.5 23.5q-52 0 -85.5 -33.5t-43.5 -86.5q-4 -16 -4 -36q0 -38 21 -61t63 -23q52 0 86.5 34t44.5 86q4 24 4 34zM68 4q-18 -20 -22 -41q-2 -10 -2 -15q0 -33 31.5 -50t86.5 -17q69 0 113 23.5t53 68.5
q2 10 2 14q0 23 -20.5 34.5t-64.5 11.5h-122q-37 -9 -55 -29z" />
    <glyph glyph-name="gcommaaccent" unicode="&#x123;" horiz-adv-x="487" 
d="M277 557q-11 11 -11 33q0 11 3 24q9 45 44.5 88t84.5 76l13 -17q-62 -52 -70 -95q-1 -3 -1 -10q0 -12 10 -28q4 -7 7 -14t3 -15q0 -22 -15.5 -37.5t-38.5 -15.5q-18 0 -29 11zM548.5 468.5q14.5 -11.5 11.5 -29.5q-4 -16 -14 -25t-26 -9q-10 0 -14 4t-7 12
q-4 9 -9.5 13.5t-19.5 4.5q-13 0 -39 -12q21 -28 21 -69q0 -19 -4 -36q-15 -74 -74.5 -115t-151.5 -41q-61 0 -100 18q-39 -27 -39 -54q0 -16 15 -25.5t43 -9.5h155q51 0 83.5 -21t32.5 -62q0 -15 -2 -23q-14 -71 -83 -108t-176 -37q-81 0 -126.5 25t-45.5 72q0 70 81 108
q-20 8 -29.5 22.5t-9.5 32.5q0 53 74 96q-40 31 -40 86q0 19 4 36q15 75 75.5 116.5t151.5 41.5q83 0 126 -34q46 34 95 34q27 0 41.5 -11.5zM363 356q0 39 -21.5 62.5t-64.5 23.5q-52 0 -85.5 -33.5t-43.5 -86.5q-4 -16 -4 -36q0 -38 21 -61t63 -23q52 0 86.5 34t44.5 86
q4 24 4 34zM68 4q-18 -20 -22 -41q-2 -10 -2 -15q0 -33 31.5 -50t86.5 -17q69 0 113 23.5t53 68.5q2 10 2 14q0 23 -20.5 34.5t-64.5 11.5h-122q-37 -9 -55 -29z" />
    <glyph glyph-name="gdotaccent" unicode="&#x121;" horiz-adv-x="487" 
d="M277 554q-9 9 -9 25q0 25 16 42t40 17q16 0 25.5 -9.5t9.5 -25.5q0 -25 -16 -41.5t-39 -16.5q-18 0 -27 9zM548.5 468.5q14.5 -11.5 11.5 -29.5q-4 -16 -14 -25t-26 -9q-10 0 -14 4t-7 12q-4 9 -9.5 13.5t-19.5 4.5q-13 0 -39 -12q21 -28 21 -69q0 -19 -4 -36
q-15 -74 -74.5 -115t-151.5 -41q-61 0 -100 18q-39 -27 -39 -54q0 -16 15 -25.5t43 -9.5h155q51 0 83.5 -21t32.5 -62q0 -15 -2 -23q-14 -71 -83 -108t-176 -37q-81 0 -126.5 25t-45.5 72q0 70 81 108q-20 8 -29.5 22.5t-9.5 32.5q0 53 74 96q-40 31 -40 86q0 19 4 36
q15 75 75.5 116.5t151.5 41.5q83 0 126 -34q46 34 95 34q27 0 41.5 -11.5zM363 356q0 39 -21.5 62.5t-64.5 23.5q-52 0 -85.5 -33.5t-43.5 -86.5q-4 -16 -4 -36q0 -38 21 -61t63 -23q52 0 86.5 34t44.5 86q4 24 4 34zM68 4q-18 -20 -22 -41q-2 -10 -2 -15q0 -33 31.5 -50
t86.5 -17q69 0 113 23.5t53 68.5q2 10 2 14q0 23 -20.5 34.5t-64.5 11.5h-122q-37 -9 -55 -29z" />
    <glyph glyph-name="uni1E21" unicode="&#x1e21;" horiz-adv-x="487" 
d="M468 547h-318l8 42h319zM548.5 468.5q14.5 -11.5 11.5 -29.5q-4 -16 -14 -25t-26 -9q-10 0 -14 4t-7 12q-4 9 -9.5 13.5t-19.5 4.5q-13 0 -39 -12q21 -28 21 -69q0 -19 -4 -36q-15 -74 -74.5 -115t-151.5 -41q-61 0 -100 18q-39 -27 -39 -54q0 -16 15 -25.5t43 -9.5h155
q51 0 83.5 -21t32.5 -62q0 -15 -2 -23q-14 -71 -83 -108t-176 -37q-81 0 -126.5 25t-45.5 72q0 70 81 108q-20 8 -29.5 22.5t-9.5 32.5q0 53 74 96q-40 31 -40 86q0 19 4 36q15 75 75.5 116.5t151.5 41.5q83 0 126 -34q46 34 95 34q27 0 41.5 -11.5zM363 356
q0 39 -21.5 62.5t-64.5 23.5q-52 0 -85.5 -33.5t-43.5 -86.5q-4 -16 -4 -36q0 -38 21 -61t63 -23q52 0 86.5 34t44.5 86q4 24 4 34zM68 4q-18 -20 -22 -41q-2 -10 -2 -15q0 -33 31.5 -50t86.5 -17q69 0 113 23.5t53 68.5q2 10 2 14q0 23 -20.5 34.5t-64.5 11.5h-122
q-37 -9 -55 -29z" />
    <glyph glyph-name="h" unicode="h" horiz-adv-x="599" 
d="M482 58q-2 -10 -2 -14q0 -17 17 -17q12 0 38 8l-4 -18q-18 -13 -41 -20t-46 -7q-26 0 -39.5 13.5t-13.5 39.5q0 12 3 27l49 237q7 39 7 56q0 40 -20 58t-59 18q-42 0 -90 -45.5t-82 -112.5l-57 -281l-92 -10l132 646q1 3 1 7q0 15 -17 15q-5 0 -14.5 -3t-15.5 -5l-2 22
l130 45h24l-77 -376q31 61 81 100t112 39q69 0 103 -24.5t34 -81.5q0 -25 -6 -55z" />
    <glyph glyph-name="hbar" unicode="&#x127;" horiz-adv-x="599" 
d="M482 58q-2 -10 -2 -14q0 -17 17 -17q12 0 38 8l-4 -18q-18 -13 -41 -20t-46 -7q-26 0 -39.5 13.5t-13.5 39.5q0 12 3 27l49 237q7 39 7 56q0 40 -20 58t-59 18q-42 0 -90 -45.5t-82 -112.5l-57 -281l-92 -10l116 569h-53l8 35h52l9 42q1 3 1 7q0 15 -17 15q-5 0 -14.5 -3
t-15.5 -5l-2 22l130 45h24l-25 -123h145l-8 -35h-144l-45 -218q31 61 81 100t112 39q69 0 103 -24.5t34 -81.5q0 -25 -6 -55z" />
    <glyph glyph-name="uni1E2B" unicode="&#x1e2b;" horiz-adv-x="599" 
d="M482 58q-2 -10 -2 -14q0 -17 17 -17q12 0 38 8l-4 -18q-18 -13 -41 -20t-46 -7q-26 0 -39.5 13.5t-13.5 39.5q0 12 3 27l49 237q7 39 7 56q0 40 -20 58t-59 18q-42 0 -90 -45.5t-82 -112.5l-57 -281l-92 -10l132 646q1 3 1 7q0 15 -17 15q-5 0 -14.5 -3t-15.5 -5l-2 22
l130 45h24l-77 -376q31 61 81 100t112 39q69 0 103 -24.5t34 -81.5q0 -25 -6 -55zM318.5 -116q32.5 21 44.5 63h32q-16 -60 -57 -95t-108 -35q-117 0 -117 101q0 9 2 29h32q-4 -42 20.5 -63t71.5 -21t79.5 21z" />
    <glyph glyph-name="hcircumflex" unicode="&#x125;" horiz-adv-x="599" 
d="M585 803l-22 -21l-87 86q-6 4 -11 7.5t-9 3.5q-9 0 -25 -11l-120 -86l-14 21l145 129h50zM507 455.5q34 -24.5 34 -81.5q0 -25 -6 -55l-53 -261q-2 -10 -2 -14q0 -17 17 -17q12 0 38 8l-4 -18q-18 -13 -41 -20t-46 -7q-26 0 -39.5 13.5t-13.5 39.5q0 12 3 27l49 237
q7 39 7 56q0 40 -20 58t-59 18q-42 0 -90 -45.5t-82 -112.5l-57 -281l-92 -10l132 646q1 3 1 7q0 15 -17 15q-5 0 -14.5 -3t-15.5 -5l-2 22l130 45h24l-77 -376q31 61 81 100t112 39q69 0 103 -24.5z" />
    <glyph glyph-name="uni1E25" unicode="&#x1e25;" horiz-adv-x="599" 
d="M482 58q-2 -10 -2 -14q0 -17 17 -17q12 0 38 8l-4 -18q-18 -13 -41 -20t-46 -7q-26 0 -39.5 13.5t-13.5 39.5q0 12 3 27l49 237q7 39 7 56q0 40 -20 58t-59 18q-42 0 -90 -45.5t-82 -112.5l-57 -281l-92 -10l132 646q1 3 1 7q0 15 -17 15q-5 0 -14.5 -3t-15.5 -5l-2 22
l130 45h24l-77 -376q31 61 81 100t112 39q69 0 103 -24.5t34 -81.5q0 -25 -6 -55zM281.5 -73.5q9.5 -9.5 9.5 -26.5q0 -25 -16 -42t-39 -17q-17 0 -26.5 9.5t-9.5 25.5q0 25 16 42.5t39 17.5q17 0 26.5 -9.5z" />
    <glyph glyph-name="i" unicode="i" horiz-adv-x="281" 
d="M175.5 573q-12.5 11 -12.5 30q0 29 19.5 48.5t47.5 19.5q21 0 33.5 -12t12.5 -32q0 -6 -1 -10q-5 -25 -24 -40t-43 -15q-20 0 -32.5 11zM81 0q-17 10 -17 32q0 6 1 10l72 353q1 3 1 7q0 14 -16 14q-7 0 -31 -8l-1 23l135 45h19l-86 -418q-1 -5 -1 -13q0 -18 18 -18
q14 0 36 8l-4 -18q-17 -13 -40 -20t-45 -7q-24 0 -41 10z" />
    <glyph glyph-name="dotlessi" unicode="&#x131;" horiz-adv-x="296" 
d="M87.5 0q-16.5 10 -16.5 31q0 7 1 11l72 353q1 3 1 7q0 14 -16 14q-9 0 -31 -8l-1 23l134 45h20l-86 -418l-2 -13q0 -18 18 -18q15 0 37 8l-4 -18q-17 -13 -40.5 -20t-44.5 -7q-25 0 -41.5 10z" />
    <glyph glyph-name="iacute" unicode="&#xed;" horiz-adv-x="296" 
d="M132 572l133 107q14 11 24 17t23 6q15 0 22 -9t4 -21q-4 -24 -41 -42l-153 -83zM87.5 0q-16.5 10 -16.5 31q0 7 1 11l72 353q1 3 1 7q0 14 -16 14q-9 0 -31 -8l-1 23l134 45h20l-86 -418l-2 -13q0 -18 18 -18q15 0 37 8l-4 -18q-17 -13 -40.5 -20t-44.5 -7
q-25 0 -41.5 10z" />
    <glyph glyph-name="ibreve" unicode="&#x12d;" horiz-adv-x="296" 
d="M134.5 586q-28.5 26 -28.5 73q0 15 3 31h32l-1 -12q0 -37 24 -54.5t68 -17.5q47 0 80 21t46 63h31q-15 -60 -56 -95t-110 -35q-60 0 -88.5 26zM87.5 0q-16.5 10 -16.5 31q0 7 1 11l72 353q1 3 1 7q0 14 -16 14q-9 0 -31 -8l-1 23l134 45h20l-86 -418l-2 -13q0 -18 18 -18
q15 0 37 8l-4 -18q-17 -13 -40.5 -20t-44.5 -7q-25 0 -41.5 10z" />
    <glyph glyph-name="uni01D0" unicode="&#x1d0;" horiz-adv-x="296" 
d="M108 683l23 22l84 -84q13 -11 20 -11q8 0 23 11l120 84l13 -22l-144 -132h-49zM87.5 0q-16.5 10 -16.5 31q0 7 1 11l72 353q1 3 1 7q0 14 -16 14q-9 0 -31 -8l-1 23l134 45h20l-86 -418l-2 -13q0 -18 18 -18q15 0 37 8l-4 -18q-17 -13 -40.5 -20t-44.5 -7q-25 0 -41.5 10
z" />
    <glyph glyph-name="icircumflex" unicode="&#xee;" horiz-adv-x="296" 
d="M79 568l145 129h51l92 -129l-22 -21l-87 86q-13 11 -20 11q-8 0 -25 -11l-120 -86zM87.5 0q-16.5 10 -16.5 31q0 7 1 11l72 353q1 3 1 7q0 14 -16 14q-9 0 -31 -8l-1 23l134 45h20l-86 -418l-2 -13q0 -18 18 -18q15 0 37 8l-4 -18q-17 -13 -40.5 -20t-44.5 -7
q-25 0 -41.5 10z" />
    <glyph glyph-name="idieresis" unicode="&#xef;" horiz-adv-x="296" 
d="M88.5 555.5q-9.5 9.5 -9.5 25.5q0 25 16 42t38 17q18 0 27 -9.5t9 -25.5q0 -26 -15.5 -42.5t-39.5 -16.5q-16 0 -25.5 9.5zM294 555.5q-10 9.5 -10 26.5q0 6 1 10q5 21 20 34.5t36 13.5q17 0 26.5 -9.5t9.5 -25.5q0 -25 -16 -42t-39 -17q-18 0 -28 9.5zM87.5 0
q-16.5 10 -16.5 31q0 7 1 11l72 353q1 3 1 7q0 14 -16 14q-9 0 -31 -8l-1 23l134 45h20l-86 -418l-2 -13q0 -18 18 -18q15 0 37 8l-4 -18q-17 -13 -40.5 -20t-44.5 -7q-25 0 -41.5 10z" />
    <glyph glyph-name="uni1ECB" unicode="&#x1ecb;" horiz-adv-x="281" 
d="M175.5 573q-12.5 11 -12.5 30q0 29 19.5 48.5t47.5 19.5q21 0 33.5 -12t12.5 -32q0 -6 -1 -10q-5 -25 -24 -40t-43 -15q-20 0 -32.5 11zM81 0q-17 10 -17 32q0 6 1 10l72 353q1 3 1 7q0 14 -16 14q-7 0 -31 -8l-1 23l135 45h19l-86 -418q-1 -5 -1 -13q0 -18 18 -18
q14 0 36 8l-4 -18q-17 -13 -40 -20t-45 -7q-24 0 -41 10zM44.5 -149.5q-9.5 9.5 -9.5 25.5q0 25 16 42.5t39 17.5q17 0 26.5 -9.5t9.5 -26.5q0 -25 -16 -42t-39 -17q-17 0 -26.5 9.5z" />
    <glyph glyph-name="igrave" unicode="&#xec;" horiz-adv-x="296" 
d="M175 630q-21 15 -21 34q0 6 1 9q2 12 12 20.5t24 8.5q22 0 38 -24l89 -106l-22 -25zM87.5 0q-16.5 10 -16.5 31q0 7 1 11l72 353q1 3 1 7q0 14 -16 14q-9 0 -31 -8l-1 23l134 45h20l-86 -418l-2 -13q0 -18 18 -18q15 0 37 8l-4 -18q-17 -13 -40.5 -20t-44.5 -7
q-25 0 -41.5 10z" />
    <glyph glyph-name="uni1EC9" unicode="&#x1ec9;" horiz-adv-x="296" 
d="M192 587q0 19 13.5 32.5t38.5 29.5q22 14 34 24.5t15 25.5q3 13 -4 22.5t-22 9.5q-12 0 -23.5 -5t-16.5 -15q-1 -2 -5 -9.5t-11 -12.5t-17 -5q-18 0 -18 17q0 28 28.5 43.5t67.5 15.5q35 0 54 -13.5t19 -38.5q0 -8 -1 -12q-4 -19 -20 -33t-42 -28q-21 -11 -31.5 -19.5
t-12.5 -18.5q-2 -12 4 -18t20 -12l-12 -20q-58 0 -58 40zM87.5 0q-16.5 10 -16.5 31q0 7 1 11l72 353q1 3 1 7q0 14 -16 14q-9 0 -31 -8l-1 23l134 45h20l-86 -418l-2 -13q0 -18 18 -18q15 0 37 8l-4 -18q-17 -13 -40.5 -20t-44.5 -7q-25 0 -41.5 10z" />
    <glyph glyph-name="ij" unicode="&#x133;" horiz-adv-x="574" 
d="M175.5 573q-12.5 11 -12.5 30q0 29 19.5 48.5t47.5 19.5q21 0 33.5 -12t12.5 -32q0 -6 -1 -10q-5 -25 -24 -40t-43 -15q-20 0 -32.5 11zM490.5 573q-12.5 11 -12.5 30q0 29 19.5 48.5t47.5 19.5q21 0 33 -11.5t12 -30.5q0 -29 -19.5 -48t-47.5 -19q-20 0 -32.5 11zM81 0
q-17 10 -17 32q0 6 1 10l72 353q1 3 1 7q0 14 -16 14q-7 0 -31 -8l-1 23l135 45h19l-86 -418q-1 -5 -1 -13q0 -18 18 -18q14 0 36 8l-4 -18q-17 -13 -40 -20t-45 -7q-24 0 -41 10zM252 -109q47 19 73 48t38.5 65.5t24.5 98.5l59 290q1 3 1 7q0 15 -16 15q-5 0 -14.5 -3
t-15.5 -5l-2 22l129 45h25l-75 -366q-21 -103 -73 -162t-154 -78v23z" />
    <glyph glyph-name="imacron" unicode="&#x12b;" horiz-adv-x="296" 
d="M68 589h319l-9 -42h-318zM87.5 0q-16.5 10 -16.5 31q0 7 1 11l72 353q1 3 1 7q0 14 -16 14q-9 0 -31 -8l-1 23l134 45h20l-86 -418l-2 -13q0 -18 18 -18q15 0 37 8l-4 -18q-17 -13 -40.5 -20t-44.5 -7q-25 0 -41.5 10z" />
    <glyph glyph-name="iogonek" unicode="&#x12f;" horiz-adv-x="281" 
d="M263.5 659q12.5 -12 12.5 -32q0 -6 -1 -10q-5 -25 -24 -40t-43 -15q-20 0 -32.5 11t-12.5 30q0 29 19.5 48.5t47.5 19.5q21 0 33.5 -12zM158 58q-1 -5 -1 -13q0 -18 18 -18q14 0 36 8l-4 -18q-15 -11 -33 -18q-39 -26 -62.5 -57.5t-23.5 -62.5q0 -21 13 -31t35 -10
q18 0 45 10l2 -20q-38 -24 -79 -24t-58.5 18.5t-17.5 45.5q0 35 24 66.5t64 55.5q-22 1 -37 11.5t-15 30.5q0 6 1 10l72 353q1 3 1 7q0 14 -16 14q-7 0 -31 -8l-1 23l135 45h19z" />
    <glyph glyph-name="itilde" unicode="&#x129;" horiz-adv-x="296" 
d="M60 556q18 42 47.5 69t66.5 27q16 0 30.5 -6.5t38.5 -20.5q20 -13 35.5 -19.5t30.5 -6.5q24 0 40.5 15t34.5 47l18 -11q-19 -44 -48 -72t-68 -28q-16 0 -29.5 6.5t-36.5 20.5q-20 13 -35 20t-32 7q-23 0 -41 -14.5t-34 -44.5zM87.5 0q-16.5 10 -16.5 31q0 7 1 11l72 353
q1 3 1 7q0 14 -16 14q-9 0 -31 -8l-1 23l134 45h20l-86 -418l-2 -13q0 -18 18 -18q15 0 37 8l-4 -18q-17 -13 -40.5 -20t-44.5 -7q-25 0 -41.5 10z" />
    <glyph glyph-name="j" unicode="j" horiz-adv-x="286" 
d="M201.5 573q-12.5 11 -12.5 30q0 29 19.5 48.5t47.5 19.5q21 0 33 -11.5t12 -30.5q0 -29 -19.5 -48t-47.5 -19q-20 0 -32.5 11zM-36 -109q47 19 72.5 48t38 65.5t24.5 98.5l59 290q1 3 1 7q0 15 -16 15q-5 0 -14.5 -3t-15.5 -5l-2 22l129 45h25l-75 -366
q-21 -103 -72.5 -162t-153.5 -78v23z" />
    <glyph glyph-name="uni0237" unicode="&#x237;" horiz-adv-x="290" 
d="M-32 -110q46 19 71.5 47t38 64t24.5 96l60 296q1 3 1 7q0 14 -16 14q-8 0 -30 -8l-3 22l131 45h24l-76 -371q-21 -101 -73 -158.5t-153 -75.5z" />
    <glyph glyph-name="jcircumflex" unicode="&#x135;" horiz-adv-x="290" 
d="M93 568l145 129h51l92 -129l-22 -21l-86 86q-15 11 -21 11q-4 0 -11 -3t-13 -8l-120 -86zM-32 -110q46 19 71.5 47t38 64t24.5 96l60 296q1 3 1 7q0 14 -16 14q-8 0 -30 -8l-3 22l131 45h24l-76 -371q-21 -101 -73 -158.5t-153 -75.5z" />
    <glyph glyph-name="k" unicode="k" horiz-adv-x="567" 
d="M563 470l-5 -26h-21q-13 0 -31 -7.5t-33 -18.5l-214 -160l169 -202q12 -15 31.5 -23t34.5 -8h26l-4 -25h-149l-175 207l-9 -6l-41 -201l-93 -10l132 646q1 3 1 7q0 15 -17 15q-5 0 -15 -3.5t-14 -4.5l-3 22l130 45h25l-94 -459l288 212h81z" />
    <glyph glyph-name="kcommaaccent" unicode="&#x137;" horiz-adv-x="567" 
d="M563 470l-5 -26h-21q-13 0 -31 -7.5t-33 -18.5l-214 -160l169 -202q12 -15 31.5 -23t34.5 -8h26l-4 -25h-149l-175 207l-9 -6l-41 -201l-93 -10l132 646q1 3 1 7q0 15 -17 15q-5 0 -15 -3.5t-14 -4.5l-3 22l130 45h25l-94 -459l288 212h81zM274 -74q11 -11 11 -33
q0 -11 -3 -24q-9 -45 -44.5 -88t-84.5 -76l-13 17q62 52 70 95q1 3 1 10q0 12 -10 28q-4 7 -7 14t-3 15q0 22 15.5 37.5t38.5 15.5q18 0 29 -11z" />
    <glyph glyph-name="kgreenlandic" unicode="&#x138;" horiz-adv-x="567" 
d="M563 470l-5 -26h-21q-13 0 -31 -7.5t-33 -18.5l-214 -160l169 -202q12 -15 31.5 -23t34.5 -8h26l-4 -25h-149l-175 207l-9 -6l-41 -201l-93 -10l83 409q1 3 1 7q0 15 -16 15q-5 0 -14.5 -3t-15.5 -5l-2 22l130 45h25l-45 -222l287 212h81z" />
    <glyph glyph-name="l" unicode="l" horiz-adv-x="290" 
d="M86 0q-17 10 -17 31q0 7 1 11l122 594q1 3 1 7q0 15 -16 15q-6 0 -30 -8l-3 22l131 45h24l-135 -659l-2 -13q0 -18 18 -18q13 0 37 8l-4 -18q-17 -13 -40 -20t-45 -7q-25 0 -42 10z" />
    <glyph glyph-name="lacute" unicode="&#x13a;" horiz-adv-x="290" 
d="M193 793l132 107q14 11 24 17t23 6q16 0 22.5 -9t3.5 -21q-3 -23 -41 -42l-153 -83zM86 0q-17 10 -17 31q0 7 1 11l122 594q1 3 1 7q0 15 -16 15q-6 0 -30 -8l-3 22l131 45h24l-135 -659l-2 -13q0 -18 18 -18q13 0 37 8l-4 -18q-17 -13 -40 -20t-45 -7q-25 0 -42 10z" />
    <glyph glyph-name="lcaron" unicode="&#x13e;" horiz-adv-x="423" 
d="M86 0q-17 10 -17 31q0 7 1 11l122 594q1 3 1 7q0 15 -16 15q-6 0 -30 -8l-3 22l131 45h24l-135 -659l-2 -13q0 -18 18 -18q13 0 37 8l-4 -18q-17 -13 -40 -20t-45 -7q-25 0 -42 10zM362 495q56 47 65 95q1 4 1 10q0 8 -3 15t-7 14q-1 2 -5 9.5t-4 17.5q0 22 16.5 38
t39.5 16q18 0 29.5 -12t11.5 -35q0 -14 -2 -22q-9 -45 -44.5 -87.5t-85.5 -75.5z" />
    <glyph glyph-name="lcommaaccent" unicode="&#x13c;" horiz-adv-x="290" 
d="M86 0q-17 10 -17 31q0 7 1 11l122 594q1 3 1 7q0 15 -16 15q-6 0 -30 -8l-3 22l131 45h24l-135 -659l-2 -13q0 -18 18 -18q13 0 37 8l-4 -18q-17 -13 -40 -20t-45 -7q-25 0 -42 10zM-19 -278q60 50 70 95q1 3 1 10q0 12 -10 28q-4 7 -7 14t-3 15q0 21 15.5 37t37.5 16
q18 0 29 -11.5t11 -34.5q0 -14 -2 -22q-10 -46 -45.5 -89t-84.5 -75z" />
    <glyph glyph-name="ldot" unicode="&#x140;" horiz-adv-x="399" 
d="M86 0q-17 10 -17 31q0 7 1 11l122 594q1 3 1 7q0 15 -16 15q-6 0 -30 -8l-3 22l131 45h24l-135 -659l-2 -13q0 -18 18 -18q13 0 37 8l-4 -18q-17 -13 -40 -20t-45 -7q-25 0 -42 10zM300.5 305q-10.5 10 -10.5 27q0 27 16.5 44.5t42.5 17.5q19 0 29.5 -10.5t10.5 -27.5
q0 -25 -17.5 -43t-42.5 -18q-18 0 -28.5 10z" />
    <glyph glyph-name="uni1E37" unicode="&#x1e37;" horiz-adv-x="289" 
d="M86 0q-17 10 -17 31q0 7 1 11l122 594q1 3 1 7q0 15 -16 15q-6 0 -30 -8l-3 22l131 45h24l-135 -659l-2 -13q0 -18 18 -18q13 0 37 8l-4 -18q-17 -13 -40 -20t-45 -7q-25 0 -42 10zM47 -149.5q-10 9.5 -10 26.5q0 25 16.5 42t39.5 17q17 0 26.5 -10t9.5 -27
q0 -25 -16 -41.5t-39 -16.5q-17 0 -27 9.5z" />
    <glyph glyph-name="uni1E39" unicode="&#x1e39;" horiz-adv-x="290" 
d="M116 833h319l-9 -42h-318zM86 0q-17 10 -17 31q0 7 1 11l122 594q1 3 1 7q0 15 -16 15q-6 0 -30 -8l-3 22l131 45h24l-135 -659l-2 -13q0 -18 18 -18q13 0 37 8l-4 -18q-17 -13 -40 -20t-45 -7q-25 0 -42 10zM48 -149.5q-10 9.5 -10 26.5q0 25 16.5 42t39.5 17
q17 0 26.5 -10t9.5 -27q0 -25 -16 -41.5t-39 -16.5q-17 0 -27 9.5z" />
    <glyph glyph-name="uni1E3B" unicode="&#x1e3b;" horiz-adv-x="289" 
d="M85 0q-17 10 -17 31q0 7 1 11l122 594q1 3 1 7q0 15 -16 15q-6 0 -16 -3.5t-14 -4.5l-3 22l131 45h24l-135 -659q-2 -10 -2 -13q0 -18 19 -18q12 0 36 8l-4 -18q-17 -13 -40 -20t-45 -7q-25 0 -42 10zM-69 -72h318l-8 -38h-318z" />
    <glyph glyph-name="lslash" unicode="&#x142;" horiz-adv-x="294" 
d="M164 58l-2 -13q0 -18 18 -18q13 0 37 8l-4 -18q-17 -13 -40 -20t-45 -7q-25 0 -42 10t-17 31q0 7 1 11l46 222l-99 -38l11 52l98 38l66 320q1 3 1 7q0 15 -16 15q-6 0 -30 -8l-3 22l131 45h24l-75 -364l102 39l-10 -52l-102 -39z" />
    <glyph glyph-name="m" unicode="m" horiz-adv-x="861" 
d="M746 58q-2 -10 -2 -14q0 -17 17 -17q13 0 37 8l-4 -18q-17 -13 -40.5 -20t-45.5 -7q-23 0 -40 10t-17 31q0 7 1 11l59 289q5 27 5 43q0 65 -65 65q-30 0 -64 -28t-62 -74t-40 -95l-49 -242l-89 -10l70 341q4 19 4 38q0 70 -68 70q-30 0 -62.5 -28t-59.5 -73t-40 -94
l-49 -244l-92 -10l82 403q1 3 1 7q0 15 -16 15q-5 0 -15 -3t-16 -5l-1 22l129 45h24l-25 -123q29 53 76.5 91t99.5 38q62 0 91 -27t29 -74q0 -9 -2 -29q30 53 78 91.5t100 38.5q63 0 93 -27t30 -75q0 -21 -4 -38z" />
    <glyph glyph-name="uni1E43" unicode="&#x1e43;" horiz-adv-x="861" 
d="M746 58q-2 -10 -2 -14q0 -17 17 -17q13 0 37 8l-4 -18q-17 -13 -40.5 -20t-45.5 -7q-23 0 -40 10t-17 31q0 7 1 11l59 289q5 27 5 43q0 65 -65 65q-30 0 -64 -28t-62 -74t-40 -95l-49 -242l-89 -10l70 341q4 19 4 38q0 70 -68 70q-30 0 -62.5 -28t-59.5 -73t-40 -94
l-49 -244l-92 -10l82 403q1 3 1 7q0 15 -16 15q-5 0 -15 -3t-16 -5l-1 22l129 45h24l-25 -123q29 53 76.5 91t99.5 38q62 0 91 -27t29 -74q0 -9 -2 -29q30 53 78 91.5t100 38.5q63 0 93 -27t30 -75q0 -21 -4 -38zM400.5 -73.5q9.5 -9.5 9.5 -26.5q0 -25 -16 -42t-39 -17
q-17 0 -26.5 9.5t-9.5 25.5q0 25 16 42.5t39 17.5q17 0 26.5 -9.5z" />
    <glyph glyph-name="n" unicode="n" horiz-adv-x="599" 
d="M481 58q-2 -10 -2 -14q0 -18 17 -18q8 0 20.5 3.5t16.5 4.5l-4 -17q-17 -13 -40.5 -20t-44.5 -7q-24 0 -41 10t-17 30q0 7 1 11l60 296q4 16 4 34q0 68 -77 68q-35 0 -72.5 -27.5t-67 -72t-42.5 -92.5l-50 -247l-92 -10l82 403q1 3 1 7q0 15 -16 15q-5 0 -15 -3t-16 -5
l-1 22l129 45h24l-25 -126q33 54 86.5 93t110.5 39q69 0 101.5 -26t32.5 -74q0 -11 -4 -35z" />
    <glyph glyph-name="nacute" unicode="&#x144;" horiz-adv-x="598" 
d="M313 547l-12 25l133 107q14 11 24 17t23 6q15 0 22 -9t4 -21q-4 -24 -41 -42zM481 58q-2 -10 -2 -14q0 -18 17 -18q8 0 20.5 3.5t16.5 4.5l-4 -17q-17 -13 -40.5 -20t-44.5 -7q-24 0 -41 10t-17 30q0 7 1 11l60 296q4 16 4 34q0 68 -77 68q-35 0 -72.5 -27.5t-67 -72
t-42.5 -92.5l-50 -247l-92 -10l82 403q1 3 1 7q0 15 -16 15q-5 0 -15 -3t-16 -5l-1 22l129 45h24l-25 -126q33 54 86.5 93t110.5 39q69 0 101.5 -26t32.5 -74q0 -11 -4 -35z" />
    <glyph glyph-name="napostrophe" unicode="&#x149;" horiz-adv-x="717" 
d="M204 557q-9 -45 -44.5 -88t-84.5 -76l-13 17q62 52 70 95q1 4 1 10q0 12 -10 28q-4 7 -7 14t-3 16q0 21 15.5 36.5t38.5 15.5q18 0 29 -11t11 -33q0 -10 -3 -24zM599 58q-2 -10 -2 -14q0 -18 17 -18q8 0 20.5 3.5t16.5 4.5l-4 -17q-17 -13 -40.5 -20t-44.5 -7
q-24 0 -41 10t-17 30q0 7 1 11l60 296q4 16 4 34q0 68 -77 68q-35 0 -72.5 -27.5t-67 -72t-42.5 -92.5l-50 -247l-92 -10l83 403l1 6q0 16 -17 16q-4 0 -14 -3t-17 -5v22l128 45h24l-26 -126q33 55 87 93.5t111 38.5q69 0 101.5 -26t32.5 -74q0 -11 -4 -35z" />
    <glyph glyph-name="ncaron" unicode="&#x148;" horiz-adv-x="598" 
d="M355 547l-92 129l22 21l87 -85q11 -11 20 -11t25 11l121 85l13 -21l-145 -129h-51zM511.5 454q32.5 -26 32.5 -74q0 -11 -4 -35l-59 -287q-2 -10 -2 -14q0 -18 17 -18q8 0 20.5 3.5t16.5 4.5l-4 -17q-17 -13 -40.5 -20t-44.5 -7q-24 0 -41 10t-17 30q0 7 1 11l60 296
q4 16 4 34q0 68 -77 68q-35 0 -72.5 -27.5t-67 -72t-42.5 -92.5l-50 -247l-92 -10l82 403q1 3 1 7q0 15 -16 15q-5 0 -15 -3t-16 -5l-1 22l129 45h24l-25 -126q33 54 86.5 93t110.5 39q69 0 101.5 -26z" />
    <glyph glyph-name="ncommaaccent" unicode="&#x146;" horiz-adv-x="598" 
d="M481 58q-2 -10 -2 -14q0 -18 17 -18q8 0 20.5 3.5t16.5 4.5l-4 -17q-17 -13 -40.5 -20t-44.5 -7q-24 0 -41 10t-17 30q0 7 1 11l60 296q4 16 4 34q0 68 -77 68q-35 0 -72.5 -27.5t-67 -72t-42.5 -92.5l-50 -247l-92 -10l82 403q1 3 1 7q0 15 -16 15q-5 0 -15 -3t-16 -5
l-1 22l129 45h24l-25 -126q33 54 86.5 93t110.5 39q69 0 101.5 -26t32.5 -74q0 -11 -4 -35zM280 -74q11 -11 11 -34q0 -10 -3 -23q-9 -45 -44.5 -88.5t-85.5 -75.5l-12 17q60 50 70 95q1 3 1 10q0 12 -10 28q-4 7 -7 14t-3 15q0 22 15.5 37.5t38.5 15.5q18 0 29 -11z" />
    <glyph glyph-name="uni1E45" unicode="&#x1e45;" horiz-adv-x="598" 
d="M343.5 554.5q-9.5 9.5 -9.5 24.5q0 8 1 12q5 21 19.5 34t35.5 13q17 0 26 -9t9 -25q0 -25 -15.5 -42t-38.5 -17q-18 0 -27.5 9.5zM481 58q-2 -10 -2 -14q0 -18 17 -18q8 0 20.5 3.5t16.5 4.5l-4 -17q-17 -13 -40.5 -20t-44.5 -7q-24 0 -41 10t-17 30q0 7 1 11l60 296
q4 16 4 34q0 68 -77 68q-35 0 -72.5 -27.5t-67 -72t-42.5 -92.5l-50 -247l-92 -10l82 403q1 3 1 7q0 15 -16 15q-5 0 -15 -3t-16 -5l-1 22l129 45h24l-25 -126q33 54 86.5 93t110.5 39q69 0 101.5 -26t32.5 -74q0 -11 -4 -35z" />
    <glyph glyph-name="uni1E47" unicode="&#x1e47;" horiz-adv-x="598" 
d="M481 58q-2 -10 -2 -14q0 -18 17 -18q8 0 20.5 3.5t16.5 4.5l-4 -17q-17 -13 -40.5 -20t-44.5 -7q-24 0 -41 10t-17 30q0 7 1 11l60 296q4 16 4 34q0 68 -77 68q-35 0 -72.5 -27.5t-67 -72t-42.5 -92.5l-50 -247l-92 -10l82 403q1 3 1 7q0 15 -16 15q-5 0 -15 -3t-16 -5
l-1 22l129 45h24l-25 -126q33 54 86.5 93t110.5 39q69 0 101.5 -26t32.5 -74q0 -11 -4 -35zM274 -73.5q9 -9.5 9 -25.5q0 -26 -16 -43t-39 -17q-16 0 -26 9.5t-10 25.5q0 25 16.5 42.5t39.5 17.5q17 0 26 -9.5z" />
    <glyph glyph-name="eng" unicode="&#x14b;" horiz-adv-x="590" 
d="M508 452q35 -28 35 -77q0 -14 -3 -31l-74 -361q-19 -95 -72 -149.5t-150 -71.5v23q54 21 83 60.5t40 96.5l80 390q3 18 3 32q0 37 -21 56t-60 19q-49 0 -97 -35.5t-67 -99.5l-62 -304l-93 -10l82 403q1 2 1 7q0 14 -16 14q-8 0 -30 -8l-2 22l133 45h21l-16 -79
q28 36 77.5 61t103.5 25q69 0 104 -28z" />
    <glyph glyph-name="uni1E49" unicode="&#x1e49;" horiz-adv-x="598" 
d="M481 58q-2 -10 -2 -14q0 -18 17 -18q8 0 20.5 3.5t16.5 4.5l-4 -17q-17 -13 -40.5 -20t-44.5 -7q-24 0 -41 10t-17 30q0 7 1 11l60 296q4 16 4 34q0 68 -77 68q-35 0 -72.5 -27.5t-67 -72t-42.5 -92.5l-50 -247l-92 -10l82 403q1 3 1 7q0 15 -16 15q-5 0 -15 -3t-16 -5
l-1 22l129 45h24l-25 -126q33 54 86.5 93t110.5 39q69 0 101.5 -26t32.5 -74q0 -11 -4 -35zM86 -72h318l-8 -38h-317z" />
    <glyph glyph-name="ntilde" unicode="&#xf1;" horiz-adv-x="598" 
d="M264 589.5q-18 -14.5 -35 -44.5l-18 11q18 42 48 69t66 27q16 0 30.5 -6.5t38.5 -20.5q22 -13 37 -19.5t30 -6.5q23 0 40.5 15t34.5 47l18 -11q-18 -44 -48 -72t-68 -28q-16 0 -30.5 6.5t-36.5 20.5q-20 13 -35 20t-32 7q-22 0 -40 -14.5zM511.5 454q32.5 -26 32.5 -74
q0 -11 -4 -35l-59 -287q-2 -10 -2 -14q0 -18 17 -18q8 0 20.5 3.5t16.5 4.5l-4 -17q-17 -13 -40.5 -20t-44.5 -7q-24 0 -41 10t-17 30q0 7 1 11l60 296q4 16 4 34q0 68 -77 68q-35 0 -72.5 -27.5t-67 -72t-42.5 -92.5l-50 -247l-92 -10l82 403q1 3 1 7q0 15 -16 15
q-5 0 -15 -3t-16 -5l-1 22l129 45h24l-25 -126q33 54 86.5 93t110.5 39q69 0 101.5 -26z" />
    <glyph glyph-name="o" unicode="o" horiz-adv-x="541" 
d="M81 36q-52 46 -52 131q0 34 7 68q24 116 101.5 180.5t192.5 64.5q97 0 149 -45.5t52 -129.5q0 -30 -8 -70q-23 -117 -100.5 -181t-193.5 -64q-96 0 -148 46zM361 83q52 54 72 152q8 42 8 71q0 65 -31 100t-88 35q-71 0 -123 -53.5t-73 -152.5q-8 -42 -8 -70
q0 -66 31.5 -101t88.5 -35q71 0 123 54z" />
    <glyph glyph-name="oacute" unicode="&#xf3;" horiz-adv-x="540" 
d="M254 572l133 107q14 11 24 17t23 6q15 0 22 -9t4 -21q-4 -24 -41 -42l-153 -83zM81 36q-52 46 -52 131q0 34 7 68q24 116 101.5 180.5t192.5 64.5q97 0 149 -45.5t52 -129.5q0 -30 -8 -70q-23 -117 -100.5 -181t-193.5 -64q-96 0 -148 46zM361 83q52 54 72 152q8 42 8 71
q0 65 -31 100t-88 35q-71 0 -123 -53.5t-73 -152.5q-8 -42 -8 -70q0 -66 31.5 -101t88.5 -35q71 0 123 54z" />
    <glyph glyph-name="obreve" unicode="&#x14f;" horiz-adv-x="540" 
d="M224 643q0 9 2 29h31q-4 -43 20.5 -64t71.5 -21q48 0 80.5 21t44.5 64h32q-15 -60 -56 -95.5t-109 -35.5q-117 0 -117 102zM81 36q-52 46 -52 131q0 34 7 68q24 116 101.5 180.5t192.5 64.5q97 0 149 -45.5t52 -129.5q0 -30 -8 -70q-23 -117 -100.5 -181t-193.5 -64
q-96 0 -148 46zM361 83q52 54 72 152q8 42 8 71q0 65 -31 100t-88 35q-71 0 -123 -53.5t-73 -152.5q-8 -42 -8 -70q0 -66 31.5 -101t88.5 -35q71 0 123 54z" />
    <glyph glyph-name="uni01D2" unicode="&#x1d2;" horiz-adv-x="540" 
d="M228 683l24 22l84 -84q13 -11 20 -11q8 0 23 11l120 84l13 -22l-144 -132h-49zM81 36q-52 46 -52 131q0 34 7 68q24 116 101.5 180.5t192.5 64.5q97 0 149 -45.5t52 -129.5q0 -30 -8 -70q-23 -117 -100.5 -181t-193.5 -64q-96 0 -148 46zM361 83q52 54 72 152q8 42 8 71
q0 65 -31 100t-88 35q-71 0 -123 -53.5t-73 -152.5q-8 -42 -8 -70q0 -66 31.5 -101t88.5 -35q71 0 123 54z" />
    <glyph glyph-name="ocircumflex" unicode="&#xf4;" horiz-adv-x="540" 
d="M202 568l145 129h50l93 -129l-22 -21l-87 86q-6 4 -11 7.5t-9 3.5q-8 0 -25 -11l-120 -86zM81 36q-52 46 -52 131q0 34 7 68q24 116 101.5 180.5t192.5 64.5q97 0 149 -45.5t52 -129.5q0 -30 -8 -70q-23 -117 -100.5 -181t-193.5 -64q-96 0 -148 46zM361 83q52 54 72 152
q8 42 8 71q0 65 -31 100t-88 35q-71 0 -123 -53.5t-73 -152.5q-8 -42 -8 -70q0 -66 31.5 -101t88.5 -35q71 0 123 54z" />
    <glyph glyph-name="uni1ED1" unicode="&#x1ed1;" horiz-adv-x="540" 
d="M462 680l110 93q14 12 25.5 19t23.5 7q13 0 20.5 -7.5t7.5 -17.5q0 -13 -11.5 -25.5t-32.5 -23.5l-131 -67zM204 568l144 129h49l90 -129l-21 -22l-85 86q-6 4 -11 7.5t-9 3.5q-8 0 -30 -16l-113 -81zM81 36q-52 46 -52 131q0 34 7 68q24 116 101.5 180.5t192.5 64.5
q97 0 149 -45.5t52 -129.5q0 -30 -8 -70q-23 -117 -100.5 -181t-193.5 -64q-96 0 -148 46zM361 83q52 54 72 152q8 42 8 71q0 65 -31 100t-88 35q-71 0 -123 -53.5t-73 -152.5q-8 -42 -8 -70q0 -66 31.5 -101t88.5 -35q71 0 123 54z" />
    <glyph glyph-name="uni1ED9" unicode="&#x1ed9;" horiz-adv-x="540" 
d="M347 697h50l93 -129l-22 -21l-87 86q-6 4 -11 7.5t-9 3.5q-8 0 -25 -11l-120 -86l-14 21zM36 235q24 116 101.5 180.5t192.5 64.5q97 0 149 -45.5t52 -129.5q0 -30 -8 -70q-23 -117 -100.5 -181t-193.5 -64q-96 0 -148 46t-52 131q0 34 7 68zM149.5 64q31.5 -35 88.5 -35
q71 0 123 54t72 152q8 42 8 71q0 65 -31 100t-88 35q-71 0 -123 -53.5t-73 -152.5q-8 -42 -8 -70q0 -66 31.5 -101zM181.5 -81.5q16.5 17.5 39.5 17.5q17 0 26 -9.5t9 -25.5q0 -26 -15.5 -43t-38.5 -17q-17 0 -27 9.5t-10 25.5q0 25 16.5 42.5z" />
    <glyph glyph-name="uni1ED3" unicode="&#x1ed3;" horiz-adv-x="540" 
d="M157 725q-12 7 -19 17t-7 20q0 12 10.5 24.5t27.5 12.5q22 0 40 -26l72 -93l-21 -22zM204 568l144 129h49l90 -129l-21 -22l-85 86q-6 4 -11 7.5t-9 3.5q-8 0 -30 -16l-113 -81zM81 36q-52 46 -52 131q0 34 7 68q24 116 101.5 180.5t192.5 64.5q97 0 149 -45.5t52 -129.5
q0 -30 -8 -70q-23 -117 -100.5 -181t-193.5 -64q-96 0 -148 46zM361 83q52 54 72 152q8 42 8 71q0 65 -31 100t-88 35q-71 0 -123 -53.5t-73 -152.5q-8 -42 -8 -70q0 -66 31.5 -101t88.5 -35q71 0 123 54z" />
    <glyph glyph-name="uni1ED5" unicode="&#x1ed5;" horiz-adv-x="540" 
d="M468 681q0 17 11 28t34 25q19 12 30 21.5t14 22.5q2 12 -4 19.5t-19 7.5q-15 0 -23.5 -5.5t-17.5 -17.5q-6 -8 -11 -12t-13 -4q-7 0 -12 6t-3 15q4 21 28.5 31t52.5 10q29 0 49.5 -11t20.5 -32t-14 -33.5t-43 -29.5q-18 -10 -27.5 -16.5t-10.5 -14.5q-2 -10 3.5 -16
t18.5 -12l-12 -18q-52 0 -52 36zM204 568l144 129h49l90 -129l-21 -22l-85 86q-6 4 -11 7.5t-9 3.5q-9 0 -35 -20l-108 -77zM81 36q-52 46 -52 131q0 34 7 68q24 116 101.5 180.5t192.5 64.5q97 0 149 -45.5t52 -129.5q0 -30 -8 -70q-23 -117 -100.5 -181t-193.5 -64
q-96 0 -148 46zM361 83q52 54 72 152q8 42 8 71q0 65 -31 100t-88 35q-71 0 -123 -53.5t-73 -152.5q-8 -42 -8 -70q0 -66 31.5 -101t88.5 -35q71 0 123 54z" />
    <glyph glyph-name="uni1ED7" unicode="&#x1ed7;" horiz-adv-x="540" 
d="M228 735q17 41 45.5 68t63.5 27q16 0 30.5 -6.5t34.5 -20.5q22 -13 35.5 -19.5t28.5 -6.5q21 0 37.5 15.5t33.5 47.5l18 -12q-18 -42 -47 -70.5t-64 -28.5q-15 0 -28 6.5t-35 20.5q-19 13 -33.5 20t-30.5 7q-22 0 -39.5 -15t-32.5 -45zM204 568l144 129h49l90 -129
l-21 -22l-85 86q-6 4 -11 7.5t-9 3.5q-8 0 -30 -16l-113 -81zM81 36q-52 46 -52 131q0 34 7 68q24 116 101.5 180.5t192.5 64.5q97 0 149 -45.5t52 -129.5q0 -30 -8 -70q-23 -117 -100.5 -181t-193.5 -64q-96 0 -148 46zM361 83q52 54 72 152q8 42 8 71q0 65 -31 100t-88 35
q-71 0 -123 -53.5t-73 -152.5q-8 -42 -8 -70q0 -66 31.5 -101t88.5 -35q71 0 123 54z" />
    <glyph glyph-name="odieresis" unicode="&#xf6;" horiz-adv-x="540" 
d="M211.5 555.5q-9.5 9.5 -9.5 25.5q0 25 15.5 42t38.5 17q18 0 27 -9.5t9 -25.5q0 -26 -15.5 -42.5t-39.5 -16.5q-16 0 -25.5 9.5zM417 555.5q-10 9.5 -10 26.5q0 6 1 10q5 21 20 34.5t36 13.5q17 0 26.5 -9.5t9.5 -25.5q0 -25 -16 -42t-40 -17q-17 0 -27 9.5zM81 36
q-52 46 -52 131q0 34 7 68q24 116 101.5 180.5t192.5 64.5q97 0 149 -45.5t52 -129.5q0 -30 -8 -70q-23 -117 -100.5 -181t-193.5 -64q-96 0 -148 46zM361 83q52 54 72 152q8 42 8 71q0 65 -31 100t-88 35q-71 0 -123 -53.5t-73 -152.5q-8 -42 -8 -70q0 -66 31.5 -101
t88.5 -35q71 0 123 54z" />
    <glyph glyph-name="uni1ECD" unicode="&#x1ecd;" horiz-adv-x="540" 
d="M36 235q24 116 101.5 180.5t192.5 64.5q97 0 149 -45.5t52 -129.5q0 -30 -8 -70q-23 -117 -100.5 -181t-193.5 -64q-96 0 -148 46t-52 131q0 34 7 68zM149.5 64q31.5 -35 88.5 -35q71 0 123 54t72 152q8 42 8 71q0 65 -31 100t-88 35q-71 0 -123 -53.5t-73 -152.5
q-8 -42 -8 -70q0 -66 31.5 -101zM179.5 -81.5q16.5 17.5 39.5 17.5q17 0 26 -9.5t9 -25.5q0 -26 -15.5 -43t-38.5 -17q-17 0 -27 9.5t-10 25.5q0 25 16.5 42.5z" />
    <glyph glyph-name="ograve" unicode="&#xf2;" horiz-adv-x="540" 
d="M297 630q-22 14 -22 36q0 15 11 25.5t27 10.5q22 0 38 -24l89 -106l-22 -25zM81 36q-52 46 -52 131q0 34 7 68q24 116 101.5 180.5t192.5 64.5q97 0 149 -45.5t52 -129.5q0 -30 -8 -70q-23 -117 -100.5 -181t-193.5 -64q-96 0 -148 46zM361 83q52 54 72 152q8 42 8 71
q0 65 -31 100t-88 35q-71 0 -123 -53.5t-73 -152.5q-8 -42 -8 -70q0 -66 31.5 -101t88.5 -35q71 0 123 54z" />
    <glyph glyph-name="uni1ECF" unicode="&#x1ecf;" horiz-adv-x="540" 
d="M313 587q0 19 13.5 32.5t38.5 29.5q22 14 34 24.5t15 25.5q3 13 -4 22.5t-22 9.5q-13 0 -24 -5t-16 -15q-1 -2 -5 -9.5t-11 -12.5t-17 -5q-18 0 -18 17q0 28 28.5 43.5t67.5 15.5q35 0 54 -13.5t19 -38.5q0 -8 -1 -12q-4 -19 -20 -33t-42 -28q-21 -11 -31.5 -19.5
t-12.5 -18.5q-2 -12 4 -18t20 -12l-12 -20q-58 0 -58 40zM81 36q-52 46 -52 131q0 34 7 68q24 116 101.5 180.5t192.5 64.5q97 0 149 -45.5t52 -129.5q0 -30 -8 -70q-23 -117 -100.5 -181t-193.5 -64q-96 0 -148 46zM361 83q52 54 72 152q8 42 8 71q0 65 -31 100t-88 35
q-71 0 -123 -53.5t-73 -152.5q-8 -42 -8 -70q0 -66 31.5 -101t88.5 -35q71 0 123 54z" />
    <glyph glyph-name="ohorn" unicode="&#x1a1;" horiz-adv-x="573" 
d="M613 404q-34 -44 -83 -72q1 -9 1 -27q0 -30 -8 -70q-23 -117 -100.5 -181t-193.5 -64q-96 0 -148 46t-52 131q0 34 7 68q24 116 101.5 180.5t192.5 64.5q80 0 129.5 -31t65.5 -90q46 35 46 74q0 11 -4 19t-5 9q-9 14 -9 27q0 21 15 37t38 16q18 0 29.5 -11.5t11.5 -34.5
q0 -47 -34 -91zM441 306q0 65 -31 100t-88 35q-71 0 -123 -53.5t-73 -152.5q-8 -42 -8 -70q0 -66 31.5 -101t88.5 -35q71 0 123 54t72 152q8 42 8 71z" />
    <glyph glyph-name="uni1EDB" unicode="&#x1edb;" horiz-adv-x="573" 
d="M280 547l-11 25l132 107q14 11 24 17t23 6q15 0 22 -9t4 -21q-4 -24 -41 -42zM613 404q-34 -44 -83 -72q1 -9 1 -27q0 -30 -8 -70q-23 -117 -100.5 -181t-193.5 -64q-96 0 -148 46t-52 131q0 34 7 68q24 116 101.5 180.5t192.5 64.5q80 0 129.5 -31t65.5 -90q46 35 46 74
q0 11 -4 19t-5 9q-9 14 -9 27q0 21 15 37t38 16q18 0 29.5 -11.5t11.5 -34.5q0 -47 -34 -91zM441 306q0 65 -31 100t-88 35q-71 0 -123 -53.5t-73 -152.5q-8 -42 -8 -70q0 -66 31.5 -101t88.5 -35q71 0 123 54t72 152q8 42 8 71z" />
    <glyph glyph-name="uni1EE3" unicode="&#x1ee3;" horiz-adv-x="573" 
d="M613 404q-34 -44 -83 -72q1 -9 1 -27q0 -30 -8 -70q-23 -117 -100.5 -181t-193.5 -64q-96 0 -148 46t-52 131q0 34 7 68q24 116 101.5 180.5t192.5 64.5q80 0 129.5 -31t65.5 -90q46 35 46 74q0 11 -4 19t-5 9q-9 14 -9 27q0 21 15 37t38 16q18 0 29.5 -11.5t11.5 -34.5
q0 -47 -34 -91zM441 306q0 65 -31 100t-88 35q-71 0 -123 -53.5t-73 -152.5q-8 -42 -8 -70q0 -66 31.5 -101t88.5 -35q71 0 123 54t72 152q8 42 8 71zM249 -73.5q9 -9.5 9 -25.5q0 -26 -15.5 -43t-38.5 -17q-17 0 -27 9.5t-10 25.5q0 25 16.5 42.5t39.5 17.5q17 0 26 -9.5z
" />
    <glyph glyph-name="uni1EDD" unicode="&#x1edd;" horiz-adv-x="573" 
d="M274 664q0 6 1 9q2 12 12 20.5t24 8.5q22 0 38 -24l89 -106l-22 -25l-121 83q-21 15 -21 34zM613 404q-34 -44 -83 -72q1 -9 1 -27q0 -30 -8 -70q-23 -117 -100.5 -181t-193.5 -64q-96 0 -148 46t-52 131q0 34 7 68q24 116 101.5 180.5t192.5 64.5q80 0 129.5 -31
t65.5 -90q46 35 46 74q0 11 -4 19t-5 9q-9 14 -9 27q0 21 15 37t38 16q18 0 29.5 -11.5t11.5 -34.5q0 -47 -34 -91zM441 306q0 65 -31 100t-88 35q-71 0 -123 -53.5t-73 -152.5q-8 -42 -8 -70q0 -66 31.5 -101t88.5 -35q71 0 123 54t72 152q8 42 8 71z" />
    <glyph glyph-name="uni1EDF" unicode="&#x1edf;" horiz-adv-x="573" 
d="M298 701q0 28 28 43.5t68 15.5q34 0 53.5 -13.5t19.5 -38.5q0 -8 -1 -12q-4 -19 -20 -33t-42 -28q-21 -11 -31.5 -19.5t-12.5 -18.5q-2 -12 4 -18t20 -12l-12 -20q-58 0 -58 40q0 6 1 10q3 15 15.5 26t35.5 25q26 16 38 28t12 30q0 11 -7.5 18t-19.5 7q-13 0 -24 -5
t-17 -15q-1 -1 -4.5 -9t-10.5 -13t-17 -5q-18 0 -18 17zM613 404q-34 -44 -83 -72q1 -9 1 -27q0 -30 -8 -70q-23 -117 -100.5 -181t-193.5 -64q-96 0 -148 46t-52 131q0 34 7 68q24 116 101.5 180.5t192.5 64.5q80 0 129.5 -31t65.5 -90q46 35 46 74q0 11 -4 19t-5 9
q-9 14 -9 27q0 21 15 37t38 16q18 0 29.5 -11.5t11.5 -34.5q0 -47 -34 -91zM441 306q0 65 -31 100t-88 35q-71 0 -123 -53.5t-73 -152.5q-8 -42 -8 -70q0 -66 31.5 -101t88.5 -35q71 0 123 54t72 152q8 42 8 71z" />
    <glyph glyph-name="uni1EE1" unicode="&#x1ee1;" horiz-adv-x="573" 
d="M241 589.5q-18 -14.5 -35 -44.5l-18 11q18 42 48 69t66 27q16 0 30.5 -6.5t38.5 -20.5q22 -13 37 -19.5t30 -6.5q23 0 40.5 15t34.5 47l18 -11q-18 -44 -48 -72t-68 -28q-16 0 -30.5 6.5t-36.5 20.5q-20 13 -35 20t-32 7q-22 0 -40 -14.5zM613 404q-34 -44 -83 -72
q1 -9 1 -27q0 -30 -8 -70q-23 -117 -100.5 -181t-193.5 -64q-96 0 -148 46t-52 131q0 34 7 68q24 116 101.5 180.5t192.5 64.5q80 0 129.5 -31t65.5 -90q46 35 46 74q0 11 -4 19t-5 9q-9 14 -9 27q0 21 15 37t38 16q18 0 29.5 -11.5t11.5 -34.5q0 -47 -34 -91zM441 306
q0 65 -31 100t-88 35q-71 0 -123 -53.5t-73 -152.5q-8 -42 -8 -70q0 -66 31.5 -101t88.5 -35q71 0 123 54t72 152q8 42 8 71z" />
    <glyph glyph-name="ohungarumlaut" unicode="&#x151;" horiz-adv-x="540" 
d="M191 572l131 106q9 8 23.5 16t27.5 8q24 0 24 -21q0 -29 -43 -52l-151 -82zM344 572l131 106q2 1 16.5 12.5t32.5 11.5q13 0 20 -6.5t7 -16.5q0 -26 -42 -50l-153 -82zM81 36q-52 46 -52 131q0 34 7 68q24 116 101.5 180.5t192.5 64.5q97 0 149 -45.5t52 -129.5
q0 -30 -8 -70q-23 -117 -100.5 -181t-193.5 -64q-96 0 -148 46zM361 83q52 54 72 152q8 42 8 71q0 65 -31 100t-88 35q-71 0 -123 -53.5t-73 -152.5q-8 -42 -8 -70q0 -66 31.5 -101t88.5 -35q71 0 123 54z" />
    <glyph glyph-name="omacron" unicode="&#x14d;" horiz-adv-x="540" 
d="M191 589h319l-9 -42h-319zM81 36q-52 46 -52 131q0 34 7 68q24 116 101.5 180.5t192.5 64.5q97 0 149 -45.5t52 -129.5q0 -30 -8 -70q-23 -117 -100.5 -181t-193.5 -64q-96 0 -148 46zM361 83q52 54 72 152q8 42 8 71q0 65 -31 100t-88 35q-71 0 -123 -53.5t-73 -152.5
q-8 -42 -8 -70q0 -66 31.5 -101t88.5 -35q71 0 123 54z" />
    <glyph glyph-name="oslash" unicode="&#xf8;" horiz-adv-x="540" 
d="M530 305q0 -30 -8 -70q-23 -117 -100.5 -181t-192.5 -64q-76 0 -125 29l-49 -53l-28 26l46 51q-44 44 -44 123q0 34 7 69q24 117 101.5 181t192.5 64q72 0 121 -26l54 59l30 -26l-52 -57q47 -44 47 -125zM127 100l281 307q-30 33 -86 33q-72 0 -124 -53.5t-73 -151.5
q-8 -42 -8 -72q0 -37 10 -63zM441 306q0 37 -11 67l-284 -308q32 -37 91 -37q71 0 123.5 54t72.5 153q8 42 8 71z" />
    <glyph glyph-name="oslashacute" unicode="&#x1ff;" horiz-adv-x="540" 
d="M279 547l-11 25l132 107q14 11 24 17t23 6q15 0 22 -9t4 -21q-4 -24 -41 -42zM530 305q0 -30 -8 -70q-23 -117 -100.5 -181t-192.5 -64q-76 0 -125 29l-49 -53l-28 26l46 51q-44 44 -44 123q0 34 7 69q24 117 101.5 181t192.5 64q72 0 121 -26l54 59l30 -26l-52 -57
q47 -44 47 -125zM127 100l281 307q-30 33 -86 33q-72 0 -124 -53.5t-73 -151.5q-8 -42 -8 -72q0 -37 10 -63zM441 306q0 37 -11 67l-284 -308q32 -37 91 -37q71 0 123.5 54t72.5 153q8 42 8 71z" />
    <glyph glyph-name="otilde" unicode="&#xf5;" horiz-adv-x="540" 
d="M181 556q19 42 48.5 69t66.5 27q16 0 30.5 -6.5t38.5 -20.5q20 -13 35.5 -19.5t30.5 -6.5q24 0 40.5 15t34.5 47l18 -11q-19 -44 -48 -72t-68 -28q-16 0 -29.5 6.5t-36.5 20.5q-20 13 -35 20t-32 7q-23 0 -41 -14.5t-34 -44.5zM81 36q-52 46 -52 131q0 34 7 68
q24 116 101.5 180.5t192.5 64.5q97 0 149 -45.5t52 -129.5q0 -30 -8 -70q-23 -117 -100.5 -181t-193.5 -64q-96 0 -148 46zM361 83q52 54 72 152q8 42 8 71q0 65 -31 100t-88 35q-71 0 -123 -53.5t-73 -152.5q-8 -42 -8 -70q0 -66 31.5 -101t88.5 -35q71 0 123 54z" />
    <glyph glyph-name="oe" unicode="&#x153;" horiz-adv-x="823" 
d="M80.5 35.5q-51.5 45.5 -51.5 130.5q0 34 7 69q24 117 101.5 181t192.5 64q92 0 139 -61q36 30 81.5 45.5t97.5 15.5q93 0 137 -30t44 -80q0 -13 -3 -28q-19 -96 -131 -136t-246 -45q2 -63 33.5 -98.5t86.5 -35.5q64 0 112.5 34.5t74.5 106.5h29q-23 -80 -83.5 -129
t-151.5 -49q-108 0 -157 60q-66 -60 -164 -60q-97 0 -148.5 45.5zM649 238q86 34 100 103q2 8 2 22q0 35 -25 56.5t-80 22.5q-74 0 -123 -59.5t-67 -147.5q-3 -13 -4 -22.5t-2 -16.5q113 8 199 42zM369 92q-12 32 -12 73q0 30 8 70q17 84 62 141q-13 32 -40.5 48t-64.5 16
q-72 0 -124 -53.5t-73 -151.5q-8 -42 -8 -72q0 -66 31.5 -100.5t88.5 -34.5q77 0 132 64z" />
    <glyph glyph-name="p" unicode="p" horiz-adv-x="569" 
d="M133 393q1 3 1 7q0 15 -16 15q-5 0 -14.5 -3t-15.5 -5l-2 22l129 45h25l-23 -115q31 50 81 85.5t105 35.5q78 0 119 -39.5t41 -116.5q0 -35 -9 -77q-28 -135 -97.5 -196t-179.5 -61q-45 0 -79 20.5t-42 49.5l-58 -285l-92 -7zM464 242q11 53 11 89q0 55 -23.5 82.5
t-73.5 27.5q-33 0 -70 -28t-67 -70.5t-44 -83.5l-20 -98q-3 -16 -3 -32q0 -44 27.5 -72t79.5 -28q139 0 183 213z" />
    <glyph glyph-name="thorn" unicode="&#xfe;" horiz-adv-x="569" 
d="M180 625q1 3 1 7q0 15 -16 15q-5 0 -14.5 -3t-15.5 -5l-2 22l130 45h25l-71 -347q31 50 81 85.5t105 35.5q78 0 119 -39.5t41 -116.5q0 -35 -9 -77q-28 -135 -97.5 -196t-179.5 -61q-45 0 -79 20.5t-42 49.5l-58 -285l-92 -7zM464 242q11 53 11 89q0 55 -23.5 82.5
t-73.5 27.5q-33 0 -70 -28t-67 -70.5t-44 -83.5l-20 -98q-3 -16 -3 -32q0 -44 27.5 -72t79.5 -28q139 0 183 213z" />
    <glyph glyph-name="q" unicode="q" horiz-adv-x="571" 
d="M329.5 -214.5q-14.5 9.5 -14.5 28.5q0 8 1 13l54 264q-31 -46 -79.5 -73.5t-98.5 -27.5q-161 0 -161 164q0 43 10 93q23 113 91.5 173t158.5 60q57 0 96 -19t56 -56l34 69h61l-129 -631l-2 -13q0 -18 18 -18q12 0 36 8l-4 -18q-17 -12 -42 -19t-48 -7t-37.5 9.5zM305 59
q36 30 59 74.5t32 86.5l18 88q3 15 3 29q0 49 -33 76.5t-76 27.5q-62 0 -110.5 -51.5t-67.5 -147.5q-10 -52 -10 -85q0 -128 106 -128q43 0 79 30z" />
    <glyph glyph-name="r" unicode="r" horiz-adv-x="389" 
d="M416 472q17 -8 17 -26q0 -6 -1 -9q-4 -18 -15.5 -28.5t-26.5 -10.5q-11 0 -16 3.5t-10 11.5t-10 11.5t-15 3.5q-38 0 -74.5 -39t-54.5 -105l-58 -284l-93 -10l82 403q1 3 1 7q0 15 -16 15q-5 0 -14.5 -3t-15.5 -5l-2 22l130 45h24l-17 -86q23 41 62.5 66.5t79.5 25.5
q26 0 43 -8z" />
    <glyph glyph-name="racute" unicode="&#x155;" horiz-adv-x="389" 
d="M189 547l-11 25l132 107q14 11 24 17t23 6q15 0 22 -9t4 -21q-4 -24 -41 -42zM416 472q17 -8 17 -26q0 -6 -1 -9q-4 -18 -15.5 -28.5t-26.5 -10.5q-11 0 -16 3.5t-10 11.5t-10 11.5t-15 3.5q-38 0 -74.5 -39t-54.5 -105l-58 -284l-93 -10l82 403q1 3 1 7q0 15 -16 15
q-5 0 -14.5 -3t-15.5 -5l-2 22l130 45h24l-17 -86q23 41 62.5 66.5t79.5 25.5q26 0 43 -8z" />
    <glyph glyph-name="rcaron" unicode="&#x159;" horiz-adv-x="389" 
d="M245 547l-92 129l22 21l86 -85q13 -11 20 -11q11 0 25 11l121 85l14 -21l-145 -129h-51zM416 472q17 -8 17 -26q0 -6 -1 -9q-4 -18 -15.5 -28.5t-26.5 -10.5q-11 0 -16 3.5t-10 11.5t-10 11.5t-15 3.5q-38 0 -74.5 -39t-54.5 -105l-58 -284l-93 -10l82 403q1 3 1 7
q0 15 -16 15q-5 0 -14.5 -3t-15.5 -5l-2 22l130 45h24l-17 -86q23 41 62.5 66.5t79.5 25.5q26 0 43 -8z" />
    <glyph glyph-name="rcommaaccent" unicode="&#x157;" horiz-adv-x="389" 
d="M416 472q17 -8 17 -26q0 -6 -1 -9q-4 -18 -15.5 -28.5t-26.5 -10.5q-11 0 -16 3.5t-10 11.5t-10 11.5t-15 3.5q-38 0 -74.5 -39t-54.5 -105l-58 -284l-93 -10l82 403q1 3 1 7q0 15 -16 15q-5 0 -14.5 -3t-15.5 -5l-2 22l130 45h24l-17 -86q23 41 62.5 66.5t79.5 25.5
q26 0 43 -8zM117 -74.5q11 -11.5 11 -34.5q0 -14 -2 -22q-10 -46 -45.5 -89t-84.5 -75l-12 17q61 52 70 95q1 3 1 9q0 8 -3 15t-7 14q-10 16 -10 29q0 22 15 37.5t38 15.5q18 0 29 -11.5z" />
    <glyph glyph-name="uni1E5B" unicode="&#x1e5b;" horiz-adv-x="388" 
d="M416 472q17 -8 17 -26q0 -6 -1 -9q-4 -18 -15.5 -28.5t-26.5 -10.5q-11 0 -16 3.5t-10 11.5t-10 11.5t-15 3.5q-38 0 -74.5 -39t-54.5 -105l-58 -284l-93 -10l82 403q1 3 1 7q0 15 -16 15q-5 0 -14.5 -3t-15.5 -5l-2 22l130 45h24l-17 -86q23 41 62.5 66.5t79.5 25.5
q26 0 43 -8zM119.5 -74q9.5 -10 9.5 -27q0 -25 -16 -41.5t-39 -16.5q-17 0 -27 9.5t-10 26.5q0 25 16.5 42t39.5 17q17 0 26.5 -10z" />
    <glyph glyph-name="uni1E5D" unicode="&#x1e5d;" horiz-adv-x="388" 
d="M421 550h-318l8 42h319zM416 472q17 -8 17 -26q0 -6 -1 -9q-4 -18 -15.5 -28.5t-26.5 -10.5q-11 0 -16 3.5t-10 11.5t-10 11.5t-15 3.5q-38 0 -74.5 -39t-54.5 -105l-58 -284l-93 -10l82 403q1 3 1 7q0 15 -16 15q-5 0 -14.5 -3t-15.5 -5l-2 22l130 45h24l-17 -86
q23 41 62.5 66.5t79.5 25.5q26 0 43 -8zM119.5 -74q9.5 -10 9.5 -27q0 -25 -16 -41.5t-39 -16.5q-17 0 -27 9.5t-10 26.5q0 25 16.5 42t39.5 17q17 0 26.5 -10z" />
    <glyph glyph-name="uni1E5F" unicode="&#x1e5f;" horiz-adv-x="388" 
d="M416 472q17 -8 17 -26q0 -6 -1 -9q-4 -18 -15.5 -28.5t-26.5 -10.5q-11 0 -16 3.5t-10 11.5t-10 11.5t-15 3.5q-38 0 -74.5 -39t-54.5 -105l-58 -284l-93 -10l82 403q1 3 1 7q0 15 -16 15q-5 0 -14.5 -3t-15.5 -5l-2 22l130 45h24l-17 -86q23 41 62.5 66.5t79.5 25.5
q26 0 43 -8zM-43 -72h318l-8 -38h-318z" />
    <glyph glyph-name="s" unicode="s" horiz-adv-x="438" 
d="M56.5 16.5q-39.5 26.5 -39.5 68.5q0 6 2 18q4 16 15 26t26 10q12 0 19 -6.5t7 -17.5q0 -7 -4 -16t-4 -17q0 -19 22.5 -36t66.5 -17q56 0 91.5 21.5t42.5 60.5q1 4 1 11q0 25 -23 41t-69 34q-42 17 -68.5 31.5t-45 39t-18.5 60.5q0 15 3 31q11 58 62.5 89.5t132.5 31.5
q79 0 116.5 -25.5t37.5 -66.5q0 -14 -2 -22q-3 -15 -14 -25t-26 -10q-12 0 -20 6.5t-8 17.5q0 8 5.5 17t5.5 16q0 20 -20 36.5t-64 16.5q-50 0 -83 -23t-33 -62q0 -30 24 -46.5t75 -36.5q41 -16 66 -29.5t42.5 -36.5t17.5 -56q0 -14 -3 -29q-14 -66 -74.5 -99t-140.5 -33
q-82 0 -121.5 26.5z" />
    <glyph glyph-name="sacute" unicode="&#x15b;" horiz-adv-x="438" 
d="M213 572l133 107q26 23 47 23q13 0 20 -7t7 -17q0 -27 -43 -48l-152 -83zM56.5 16.5q-39.5 26.5 -39.5 68.5q0 6 2 18q4 16 15 26t26 10q12 0 19 -6.5t7 -17.5q0 -7 -4 -16t-4 -17q0 -19 22.5 -36t66.5 -17q56 0 91.5 21.5t42.5 60.5q1 4 1 11q0 25 -23 41t-69 34
q-42 17 -68.5 31.5t-45 39t-18.5 60.5q0 15 3 31q11 58 62.5 89.5t132.5 31.5q79 0 116.5 -25.5t37.5 -66.5q0 -14 -2 -22q-3 -15 -14 -25t-26 -10q-12 0 -20 6.5t-8 17.5q0 8 5.5 17t5.5 16q0 20 -20 36.5t-64 16.5q-50 0 -83 -23t-33 -62q0 -30 24 -46.5t75 -36.5
q41 -16 66 -29.5t42.5 -36.5t17.5 -56q0 -14 -3 -29q-14 -66 -74.5 -99t-140.5 -33q-82 0 -121.5 26.5z" />
    <glyph glyph-name="scaron" unicode="&#x161;" horiz-adv-x="438" 
d="M178 676l22 21l86 -85q13 -11 20 -11q11 0 25 11l121 85l14 -21l-145 -129h-51zM56.5 16.5q-39.5 26.5 -39.5 68.5q0 6 2 18q4 16 15 26t26 10q12 0 19 -6.5t7 -17.5q0 -7 -4 -16t-4 -17q0 -19 22.5 -36t66.5 -17q56 0 91.5 21.5t42.5 60.5q1 4 1 11q0 25 -23 41t-69 34
q-42 17 -68.5 31.5t-45 39t-18.5 60.5q0 15 3 31q11 58 62.5 89.5t132.5 31.5q79 0 116.5 -25.5t37.5 -66.5q0 -14 -2 -22q-3 -15 -14 -25t-26 -10q-12 0 -20 6.5t-8 17.5q0 8 5.5 17t5.5 16q0 20 -20 36.5t-64 16.5q-50 0 -83 -23t-33 -62q0 -30 24 -46.5t75 -36.5
q41 -16 66 -29.5t42.5 -36.5t17.5 -56q0 -14 -3 -29q-14 -66 -74.5 -99t-140.5 -33q-82 0 -121.5 26.5z" />
    <glyph glyph-name="scedilla" unicode="&#x15f;" horiz-adv-x="438" 
d="M392.5 454.5q37.5 -25.5 37.5 -66.5q0 -14 -2 -22q-3 -15 -14 -25t-26 -10q-12 0 -20 6.5t-8 17.5q0 8 5.5 17t5.5 16q0 20 -20 36.5t-64 16.5q-50 0 -83 -23t-33 -62q0 -30 24 -46.5t75 -36.5q41 -16 66 -29.5t42.5 -36.5t17.5 -56q0 -14 -3 -29q-13 -62 -67 -95
t-128 -36l-37 -54q33 0 58.5 -13.5t25.5 -43.5q0 -9 -1 -14q-10 -48 -52.5 -68t-98.5 -20q-23 0 -46 5l12 29q8 -2 29 -2q84 0 94 54q5 23 -18.5 31.5t-51.5 8.5l-8 16l53 71q-71 3 -105.5 29t-34.5 65q0 6 2 18q4 16 15 26t26 10q12 0 19 -6.5t7 -17.5q0 -7 -4 -16t-4 -17
q0 -19 22.5 -36t66.5 -17q56 0 91.5 21.5t42.5 60.5q1 4 1 11q0 25 -23 41t-69 34q-42 17 -68.5 31.5t-45 39t-18.5 60.5q0 15 3 31q11 58 62.5 89.5t132.5 31.5q79 0 116.5 -25.5z" />
    <glyph glyph-name="scircumflex" unicode="&#x15d;" horiz-adv-x="438" 
d="M155 568l145 129h50l93 -129l-23 -21l-86 86q-6 4 -11 7.5t-9 3.5q-9 0 -25 -11l-120 -86zM56.5 16.5q-39.5 26.5 -39.5 68.5q0 6 2 18q4 16 15 26t26 10q12 0 19 -6.5t7 -17.5q0 -7 -4 -16t-4 -17q0 -19 22.5 -36t66.5 -17q56 0 91.5 21.5t42.5 60.5q1 4 1 11
q0 25 -23 41t-69 34q-42 17 -68.5 31.5t-45 39t-18.5 60.5q0 15 3 31q11 58 62.5 89.5t132.5 31.5q79 0 116.5 -25.5t37.5 -66.5q0 -14 -2 -22q-3 -15 -14 -25t-26 -10q-12 0 -20 6.5t-8 17.5q0 8 5.5 17t5.5 16q0 20 -20 36.5t-64 16.5q-50 0 -83 -23t-33 -62
q0 -30 24 -46.5t75 -36.5q41 -16 66 -29.5t42.5 -36.5t17.5 -56q0 -14 -3 -29q-14 -66 -74.5 -99t-140.5 -33q-82 0 -121.5 26.5z" />
    <glyph glyph-name="scommaaccent" unicode="&#x219;" horiz-adv-x="438" 
d="M56.5 16.5q-39.5 26.5 -39.5 68.5q0 6 2 18q4 16 15 26t26 10q12 0 19 -6.5t7 -17.5q0 -7 -4 -16t-4 -17q0 -19 22.5 -36t66.5 -17q56 0 91.5 21.5t42.5 60.5q1 4 1 11q0 25 -23 41t-69 34q-42 17 -68.5 31.5t-45 39t-18.5 60.5q0 15 3 31q11 58 62.5 89.5t132.5 31.5
q79 0 116.5 -25.5t37.5 -66.5q0 -14 -2 -22q-3 -15 -14 -25t-26 -10q-12 0 -20 6.5t-8 17.5q0 8 5.5 17t5.5 16q0 20 -20 36.5t-64 16.5q-50 0 -83 -23t-33 -62q0 -30 24 -46.5t75 -36.5q41 -16 66 -29.5t42.5 -36.5t17.5 -56q0 -14 -3 -29q-14 -66 -74.5 -99t-140.5 -33
q-82 0 -121.5 26.5zM49 -279q61 52 71 96q1 3 1 9q0 14 -11 29q-10 16 -10 28q0 6 1 9q5 19 19.5 31.5t34.5 12.5q18 0 29 -11t11 -33q0 -50 -37.5 -98t-95.5 -89z" />
    <glyph glyph-name="uni1E61" unicode="&#x1e61;" horiz-adv-x="438" 
d="M265.5 554.5q-9.5 9.5 -9.5 25.5q0 7 1 11q5 21 19.5 34t35.5 13q17 0 26.5 -9.5t9.5 -26.5q0 -25 -16 -41t-39 -16q-18 0 -27.5 9.5zM56.5 16.5q-39.5 26.5 -39.5 68.5q0 6 2 18q4 16 15 26t26 10q12 0 19 -6.5t7 -17.5q0 -7 -4 -16t-4 -17q0 -19 22.5 -36t66.5 -17
q56 0 91.5 21.5t42.5 60.5q1 4 1 11q0 25 -23 41t-69 34q-42 17 -68.5 31.5t-45 39t-18.5 60.5q0 15 3 31q11 58 62.5 89.5t132.5 31.5q79 0 116.5 -25.5t37.5 -66.5q0 -14 -2 -22q-3 -15 -14 -25t-26 -10q-12 0 -20 6.5t-8 17.5q0 8 5.5 17t5.5 16q0 20 -20 36.5t-64 16.5
q-50 0 -83 -23t-33 -62q0 -30 24 -46.5t75 -36.5q41 -16 66 -29.5t42.5 -36.5t17.5 -56q0 -14 -3 -29q-14 -66 -74.5 -99t-140.5 -33q-82 0 -121.5 26.5z" />
    <glyph glyph-name="uni1E63" unicode="&#x1e63;" horiz-adv-x="438" 
d="M56.5 16.5q-39.5 26.5 -39.5 68.5q0 6 2 18q4 16 15 26t26 10q12 0 19 -6.5t7 -17.5q0 -7 -4 -16t-4 -17q0 -19 22.5 -36t66.5 -17q56 0 91.5 21.5t42.5 60.5q1 4 1 11q0 25 -23 41t-69 34q-42 17 -68.5 31.5t-45 39t-18.5 60.5q0 15 3 31q11 58 62.5 89.5t132.5 31.5
q79 0 116.5 -25.5t37.5 -66.5q0 -14 -2 -22q-3 -15 -14 -25t-26 -10q-12 0 -20 6.5t-8 17.5q0 8 5.5 17t5.5 16q0 20 -20 36.5t-64 16.5q-50 0 -83 -23t-33 -62q0 -30 24 -46.5t75 -36.5q41 -16 66 -29.5t42.5 -36.5t17.5 -56q0 -14 -3 -29q-14 -66 -74.5 -99t-140.5 -33
q-82 0 -121.5 26.5zM122 -149.5q-10 9.5 -10 26.5q0 25 16.5 42t39.5 17q17 0 26.5 -10t9.5 -27q0 -25 -16 -41.5t-39 -16.5q-17 0 -27 9.5z" />
    <glyph glyph-name="germandbls" unicode="&#xdf;" horiz-adv-x="675" 
d="M462.5 305.5q23.5 -18.5 69.5 -38.5q37 -17 58.5 -30t37 -34t15.5 -52q0 -12 -3 -27q-27 -134 -211 -134q-81 0 -120.5 26t-39.5 68q0 7 2 19q4 16 15 26t25 10q12 0 19.5 -7t7.5 -18q0 -7 -4.5 -15.5t-4.5 -15.5q0 -12 10.5 -24.5t32 -21.5t52.5 -9q53 0 85 22.5
t39 59.5q1 4 1 12q0 25 -20.5 40t-64.5 35q-39 17 -62.5 31.5t-40.5 38.5t-17 59q0 9 4 33q12 58 61 88t110 36q10 50 10 79q0 120 -116 120q-48 0 -85 -28.5t-49 -85.5l-145 -712l-92 -7l119 582h-67l8 39h67l17 81q16 82 82 126.5t150 44.5q109 0 150.5 -50t41.5 -121
q0 -31 -7 -66l-8 -34q-76 0 -116 -25t-40 -71q0 -31 23.5 -49.5z" />
    <glyph glyph-name="uni0259" unicode="&#x259;" horiz-adv-x="500" 
d="M435 435q50 -45 50 -130q0 -30 -8 -70q-24 -114 -99.5 -179.5t-183.5 -65.5q-93 0 -137 30t-44 80q0 13 3 28q20 95 131.5 135t245.5 46q-2 63 -34 98.5t-86 35.5q-64 0 -112.5 -34.5t-75.5 -106.5h-28q23 80 83.5 129t151.5 49q93 0 143 -45zM392 274
q-122 -8 -211.5 -47.5t-89.5 -119.5q0 -35 25 -56.5t80 -22.5q73 0 122.5 59.5t67.5 147.5q4 19 6 39z" />
    <glyph glyph-name="t" unicode="t" horiz-adv-x="381" 
d="M168 126q-4 -20 -4 -40q0 -30 13.5 -44.5t42.5 -14.5q30 0 55 15.5t36 48.5h32q-15 -52 -55 -76.5t-92 -24.5q-60 0 -92 21.5t-32 71.5q0 17 5 42l62 307h-74l8 38h74l12 61l88 72h19l-27 -133h133l-7 -38h-134z" />
    <glyph glyph-name="tbar" unicode="&#x167;" horiz-adv-x="381" 
d="M230 431l-28 -134h128l-7 -37h-128l-28 -134q-4 -20 -4 -40q0 -31 14 -45.5t43 -14.5q30 0 54.5 15.5t35.5 49.5h33q-15 -52 -55.5 -76.5t-91.5 -24.5q-60 0 -92 21.5t-32 70.5q0 17 5 42l28 136h-59l8 37h58l28 134h-76l8 39h75l18 86l77 47h23l-27 -133h134l-7 -39
h-135z" />
    <glyph glyph-name="tcaron" unicode="&#x165;" horiz-adv-x="474" 
d="M538.5 652.5q10.5 -10.5 10.5 -32.5q0 -51 -37.5 -100.5t-94.5 -87.5l-12 16q28 25 46 48.5t23 47.5q1 3 1 9q0 13 -10 29t-10 28q0 22 16 37.5t39 15.5q18 0 28.5 -10.5zM238 470h134l-7 -39h-135l-63 -305q-4 -20 -4 -40q0 -31 14 -45.5t43 -14.5t54 15.5t36 49.5h33
q-15 -52 -55.5 -76.5t-91.5 -24.5q-60 0 -92 21.5t-32 70.5q0 17 5 42l63 307h-76l8 39h75l18 86l77 47h23z" />
    <glyph glyph-name="uni0163" unicode="&#x163;" horiz-adv-x="381" 
d="M168 126q-4 -20 -4 -40q0 -30 13.5 -44.5t42.5 -14.5q30 0 55 15.5t36 48.5h32q-14 -49 -51 -74t-86 -27l-34 -48q34 0 59.5 -13t25.5 -43q0 -5 -2 -15q-10 -48 -52 -68t-99 -20q-23 0 -46 5l11 29q9 -2 30 -2q83 0 95 54q5 23 -19 31.5t-52 8.5l-9 16l51 67
q-93 10 -93 91q0 17 5 42l62 307h-74l8 38h74l12 61l88 72h19l-27 -133h133l-7 -38h-134z" />
    <glyph glyph-name="uni021B" unicode="&#x21b;" horiz-adv-x="381" 
d="M168 126q-4 -20 -4 -40q0 -30 13.5 -44.5t42.5 -14.5q30 0 55 15.5t36 48.5h32q-15 -52 -55 -76.5t-92 -24.5q-60 0 -92 21.5t-32 71.5q0 17 5 42l62 307h-74l8 38h74l12 61l88 72h19l-27 -133h133l-7 -38h-134zM177 -74q11 -11 11 -33q0 -11 -3 -24q-9 -45 -44.5 -88
t-84.5 -76l-13 17q62 52 70 95q1 3 1 10q0 12 -10 28q-4 7 -7 14t-3 15q0 22 15.5 37.5t38.5 15.5q18 0 29 -11z" />
    <glyph glyph-name="uni1E97" unicode="&#x1e97;" horiz-adv-x="381" 
d="M130 681q-10 10 -10 26q0 6 1 10q5 21 19.5 34.5t34.5 13.5q17 0 26.5 -9.5t9.5 -25.5q0 -25 -16 -42t-39 -17q-16 0 -26 10zM408.5 755q9.5 -10 9.5 -26q0 -25 -15.5 -41.5t-39.5 -16.5q-18 0 -28 10t-10 27l1 9q5 21 20 34.5t36 13.5q17 0 26.5 -10zM239 470h133
l-7 -38h-134l-63 -306q-4 -20 -4 -40q0 -30 13.5 -44.5t42.5 -14.5q30 0 55 15.5t36 48.5h32q-15 -52 -55 -76.5t-92 -24.5q-60 0 -92 21.5t-32 71.5q0 17 5 42l62 307h-74l8 38h74l12 61l88 72h19z" />
    <glyph glyph-name="uni1E6D" unicode="&#x1e6d;" horiz-adv-x="381" 
d="M168 126q-4 -20 -4 -40q0 -30 13.5 -44.5t42.5 -14.5q30 0 55 15.5t36 48.5h32q-15 -52 -55 -76.5t-92 -24.5q-60 0 -92 21.5t-32 71.5q0 17 5 42l62 307h-74l8 38h74l12 61l88 72h19l-27 -133h133l-7 -38h-134zM200 -73.5q9 -9.5 9 -25.5q0 -26 -15.5 -43t-38.5 -17
q-17 0 -27 9.5t-10 25.5q0 25 16.5 42.5t39.5 17.5q17 0 26 -9.5z" />
    <glyph glyph-name="uni1E6F" unicode="&#x1e6f;" horiz-adv-x="381" 
d="M168 126q-4 -20 -4 -40q0 -30 13.5 -44.5t42.5 -14.5q30 0 55 15.5t36 48.5h32q-15 -52 -55 -76.5t-92 -24.5q-60 0 -92 21.5t-32 71.5q0 17 5 42l62 307h-74l8 38h74l12 61l88 72h19l-27 -133h133l-7 -38h-134zM-20 -72h318l-8 -38h-318z" />
    <glyph glyph-name="u" unicode="u" horiz-adv-x="580" 
d="M482 27q14 0 36 8l-3 -18q-36 -27 -84 -27q-26 0 -39.5 15t-13.5 43q0 13 3 26q-29 -35 -78.5 -59.5t-102.5 -24.5q-69 0 -104.5 27.5t-35.5 76.5q0 15 3 31l55 268q1 3 1 7q0 15 -16 15q-5 0 -15 -3t-16 -5l-2 22l130 45h24l-68 -337q-4 -16 -4 -34q0 -36 21.5 -54
t59.5 -18q33 0 67.5 17t62 50t38.5 80l44 215q1 3 1 7q0 15 -16 15q-5 0 -15 -3t-16 -5l-2 22l130 45h24l-84 -416q-2 -10 -2 -14q0 -17 17 -17z" />
    <glyph glyph-name="uacute" unicode="&#xfa;" horiz-adv-x="580" 
d="M300 547l-11 25l132 107q14 11 24 17t23 6q16 0 22.5 -9t3.5 -21q-3 -23 -41 -42zM482 27q14 0 36 8l-3 -18q-36 -27 -84 -27q-26 0 -39.5 15t-13.5 43q0 13 3 26q-29 -35 -78.5 -59.5t-102.5 -24.5q-69 0 -104.5 27.5t-35.5 76.5q0 15 3 31l55 268q1 3 1 7q0 15 -16 15
q-5 0 -15 -3t-16 -5l-2 22l130 45h24l-68 -337q-4 -16 -4 -34q0 -36 21.5 -54t59.5 -18q33 0 67.5 17t62 50t38.5 80l44 215q1 3 1 7q0 15 -16 15q-5 0 -15 -3t-16 -5l-2 22l130 45h24l-84 -416q-2 -10 -2 -14q0 -17 17 -17z" />
    <glyph glyph-name="ubreve" unicode="&#x16d;" horiz-adv-x="580" 
d="M239 643q0 9 2 29h32q-7 -85 92 -85q47 0 79.5 21t45.5 64h31q-15 -60 -56 -95.5t-109 -35.5q-117 0 -117 102zM482 27q14 0 36 8l-3 -18q-36 -27 -84 -27q-26 0 -39.5 15t-13.5 43q0 13 3 26q-29 -35 -78.5 -59.5t-102.5 -24.5q-69 0 -104.5 27.5t-35.5 76.5q0 15 3 31
l55 268q1 3 1 7q0 15 -16 15q-5 0 -15 -3t-16 -5l-2 22l130 45h24l-68 -337q-4 -16 -4 -34q0 -36 21.5 -54t59.5 -18q33 0 67.5 17t62 50t38.5 80l44 215q1 3 1 7q0 15 -16 15q-5 0 -15 -3t-16 -5l-2 22l130 45h24l-84 -416q-2 -10 -2 -14q0 -17 17 -17z" />
    <glyph glyph-name="uni01D4" unicode="&#x1d4;" horiz-adv-x="580" 
d="M337 550l-92 129l22 21l86 -85q13 -11 20 -11q11 0 25 11l121 85l14 -21l-145 -129h-51zM482 27q14 0 36 8l-3 -18q-36 -27 -84 -27q-26 0 -39.5 15t-13.5 43q0 13 3 26q-29 -35 -78.5 -59.5t-102.5 -24.5q-69 0 -104.5 27.5t-35.5 76.5q0 15 3 31l55 268q1 3 1 7
q0 15 -16 15q-5 0 -15 -3t-16 -5l-2 22l130 45h24l-68 -337q-4 -16 -4 -34q0 -36 21.5 -54t59.5 -18q33 0 67.5 17t62 50t38.5 80l44 215q1 3 1 7q0 15 -16 15q-5 0 -15 -3t-16 -5l-2 22l130 45h24l-84 -416q-2 -10 -2 -14q0 -17 17 -17z" />
    <glyph glyph-name="ucircumflex" unicode="&#xfb;" horiz-adv-x="580" 
d="M231 547l-14 21l145 129h51l92 -129l-22 -21l-87 86q-13 11 -20 11q-8 0 -25 -11zM482 27q14 0 36 8l-3 -18q-36 -27 -84 -27q-26 0 -39.5 15t-13.5 43q0 13 3 26q-29 -35 -78.5 -59.5t-102.5 -24.5q-69 0 -104.5 27.5t-35.5 76.5q0 15 3 31l55 268q1 3 1 7q0 15 -16 15
q-5 0 -15 -3t-16 -5l-2 22l130 45h24l-68 -337q-4 -16 -4 -34q0 -36 21.5 -54t59.5 -18q33 0 67.5 17t62 50t38.5 80l44 215q1 3 1 7q0 15 -16 15q-5 0 -15 -3t-16 -5l-2 22l130 45h24l-84 -416q-2 -10 -2 -14q0 -17 17 -17z" />
    <glyph glyph-name="udieresis" unicode="&#xfc;" horiz-adv-x="580" 
d="M226.5 555.5q-9.5 9.5 -9.5 25.5q0 7 1 11q5 21 19.5 34.5t34.5 13.5q17 0 26.5 -9.5t9.5 -25.5q0 -25 -16 -42t-40 -17q-16 0 -25.5 9.5zM432 556q-10 10 -10 27l1 9q5 21 20 34.5t36 13.5q17 0 26.5 -10t9.5 -26q0 -25 -15.5 -41.5t-39.5 -16.5q-18 0 -28 10zM482 27
q14 0 36 8l-3 -18q-36 -27 -84 -27q-26 0 -39.5 15t-13.5 43q0 13 3 26q-29 -35 -78.5 -59.5t-102.5 -24.5q-69 0 -104.5 27.5t-35.5 76.5q0 15 3 31l55 268q1 3 1 7q0 15 -16 15q-5 0 -15 -3t-16 -5l-2 22l130 45h24l-68 -337q-4 -16 -4 -34q0 -36 21.5 -54t59.5 -18
q33 0 67.5 17t62 50t38.5 80l44 215q1 3 1 7q0 15 -16 15q-5 0 -15 -3t-16 -5l-2 22l130 45h24l-84 -416q-2 -10 -2 -14q0 -17 17 -17z" />
    <glyph glyph-name="uni01D8" unicode="&#x1d8;" horiz-adv-x="580" 
d="M376 665l-12 25l105 89q14 11 25 17.5t24 6.5q25 0 25 -21q0 -14 -9.5 -25t-28.5 -22zM230.5 555.5q-9.5 9.5 -9.5 25.5q0 25 16 42.5t39 17.5q17 0 27 -10t10 -26q0 -26 -16.5 -42.5t-40.5 -16.5q-16 0 -25.5 9.5zM444.5 623.5q16.5 17.5 39.5 17.5q17 0 26.5 -9.5
t9.5 -26.5q0 -25 -16 -42t-39 -17q-17 0 -27 9.5t-10 25.5q0 25 16.5 42.5zM482 27q14 0 36 8l-3 -18q-36 -27 -84 -27q-26 0 -39.5 15t-13.5 43q0 13 3 26q-29 -35 -78.5 -59.5t-102.5 -24.5q-69 0 -104.5 27.5t-35.5 76.5q0 15 3 31l55 268q1 3 1 7q0 15 -16 15
q-5 0 -15 -3t-16 -5l-2 22l130 45h24l-68 -337q-4 -16 -4 -34q0 -36 21.5 -54t59.5 -18q33 0 67.5 17t62 50t38.5 80l44 215q1 3 1 7q0 15 -16 15q-5 0 -15 -3t-16 -5l-2 22l130 45h24l-84 -416q-2 -10 -2 -14q0 -17 17 -17z" />
    <glyph glyph-name="uni01DA" unicode="&#x1da;" horiz-adv-x="580" 
d="M363 677l-91 124l21 21l81 -78q17 -15 24 -15q8 0 18.5 7t12.5 8l112 78l14 -21l-143 -124h-49zM231.5 555.5q-9.5 9.5 -9.5 25.5q0 25 16 42.5t38 17.5q18 0 28 -10t10 -26q0 -26 -16.5 -42.5t-40.5 -16.5q-16 0 -25.5 9.5zM445.5 623.5q16.5 17.5 39.5 17.5
q17 0 26.5 -9.5t9.5 -26.5q0 -25 -16 -42t-39 -17q-17 0 -27 9.5t-10 25.5q0 25 16.5 42.5zM467 58q-2 -10 -2 -14q0 -17 17 -17q14 0 36 8l-3 -18q-36 -27 -84 -27q-26 0 -39.5 15t-13.5 43q0 13 3 26q-29 -35 -78.5 -59.5t-102.5 -24.5q-69 0 -104.5 27.5t-35.5 76.5
q0 15 3 31l55 268q1 3 1 7q0 15 -16 15q-5 0 -15 -3t-16 -5l-2 22l130 45h24l-68 -337q-4 -16 -4 -34q0 -36 21.5 -54t59.5 -18q33 0 67.5 17t62 50t38.5 80l44 215q1 3 1 7q0 15 -16 15q-5 0 -15 -3t-16 -5l-2 22l130 45h24z" />
    <glyph glyph-name="uni01DC" unicode="&#x1dc;" horiz-adv-x="580" 
d="M272 768q0 14 10 24t27 10q23 0 39 -23l69 -89l-22 -25l-100 70q-23 14 -23 33zM231.5 555.5q-9.5 9.5 -9.5 25.5q0 25 16 42.5t38 17.5q18 0 28 -10t10 -26q0 -26 -16.5 -42.5t-40.5 -16.5q-16 0 -25.5 9.5zM439 555.5q-10 9.5 -10 25.5q0 25 16.5 42.5t39.5 17.5
q17 0 26.5 -9.5t9.5 -26.5q0 -25 -16 -42t-39 -17q-17 0 -27 9.5zM482 27q14 0 36 8l-3 -18q-36 -27 -84 -27q-26 0 -39.5 15t-13.5 43q0 13 3 26q-29 -35 -78.5 -59.5t-102.5 -24.5q-69 0 -104.5 27.5t-35.5 76.5q0 15 3 31l55 268q1 3 1 7q0 15 -16 15q-5 0 -15 -3t-16 -5
l-2 22l130 45h24l-68 -337q-4 -16 -4 -34q0 -36 21.5 -54t59.5 -18q33 0 67.5 17t62 50t38.5 80l44 215q1 3 1 7q0 15 -16 15q-5 0 -15 -3t-16 -5l-2 22l130 45h24l-84 -416q-2 -10 -2 -14q0 -17 17 -17z" />
    <glyph glyph-name="uni01D6" unicode="&#x1d6;" horiz-adv-x="580" 
d="M560 733l-9 -42h-319l9 42h319zM232.5 556.5q-9.5 9.5 -9.5 25.5q0 25 16 42t38 17q18 0 27 -9.5t9 -25.5q0 -26 -15.5 -42.5t-39.5 -16.5q-16 0 -25.5 9.5zM505 564q-16 -17 -39 -17q-18 0 -28 9.5t-10 26.5q0 6 1 10q5 21 20 34.5t36 13.5q17 0 26.5 -9.5t9.5 -25.5
q0 -25 -16 -42zM467 58q-2 -10 -2 -14q0 -17 17 -17q14 0 36 8l-3 -18q-36 -27 -84 -27q-26 0 -39.5 15t-13.5 43q0 13 3 26q-29 -35 -78.5 -59.5t-102.5 -24.5q-69 0 -104.5 27.5t-35.5 76.5q0 15 3 31l55 268q1 3 1 7q0 15 -16 15q-5 0 -15 -3t-16 -5l-2 22l130 45h24
l-68 -337q-4 -16 -4 -34q0 -36 21.5 -54t59.5 -18q33 0 67.5 17t62 50t38.5 80l44 215q1 3 1 7q0 15 -16 15q-5 0 -15 -3t-16 -5l-2 22l130 45h24z" />
    <glyph glyph-name="uni1EE5" unicode="&#x1ee5;" horiz-adv-x="580" 
d="M482 27q14 0 36 8l-3 -18q-36 -27 -84 -27q-26 0 -39.5 15t-13.5 43q0 13 3 26q-29 -35 -78.5 -59.5t-102.5 -24.5q-69 0 -104.5 27.5t-35.5 76.5q0 15 3 31l55 268q1 3 1 7q0 15 -16 15q-5 0 -15 -3t-16 -5l-2 22l130 45h24l-68 -337q-4 -16 -4 -34q0 -36 21.5 -54
t59.5 -18q33 0 67.5 17t62 50t38.5 80l44 215q1 3 1 7q0 15 -16 15q-5 0 -15 -3t-16 -5l-2 22l130 45h24l-84 -416q-2 -10 -2 -14q0 -17 17 -17zM262.5 -74q9.5 -10 9.5 -27q0 -25 -16 -41.5t-39 -16.5q-17 0 -27 9.5t-10 26.5q0 25 16.5 42t39.5 17q17 0 26.5 -10z" />
    <glyph glyph-name="ugrave" unicode="&#xf9;" horiz-adv-x="580" 
d="M292 665q0 15 10.5 26t26.5 11q20 0 39 -24l88 -106l-22 -25l-121 83q-21 15 -21 35zM482 27q14 0 36 8l-3 -18q-36 -27 -84 -27q-26 0 -39.5 15t-13.5 43q0 13 3 26q-29 -35 -78.5 -59.5t-102.5 -24.5q-69 0 -104.5 27.5t-35.5 76.5q0 15 3 31l55 268q1 3 1 7
q0 15 -16 15q-5 0 -15 -3t-16 -5l-2 22l130 45h24l-68 -337q-4 -16 -4 -34q0 -36 21.5 -54t59.5 -18q33 0 67.5 17t62 50t38.5 80l44 215q1 3 1 7q0 15 -16 15q-5 0 -15 -3t-16 -5l-2 22l130 45h24l-84 -416q-2 -10 -2 -14q0 -17 17 -17z" />
    <glyph glyph-name="uni1EE7" unicode="&#x1ee7;" horiz-adv-x="580" 
d="M302 701q0 28 28.5 43.5t67.5 15.5q34 0 53.5 -13t19.5 -38q0 -8 -1 -13q-3 -19 -19 -32.5t-43 -28.5q-20 -12 -30.5 -20t-12.5 -18q-2 -12 3.5 -18t20.5 -12l-13 -20q-57 0 -57 39q0 7 1 11q3 15 14.5 25.5t35.5 26.5q23 14 35 24.5t15 25.5q2 13 -5 22.5t-21 9.5
q-13 0 -24 -5t-17 -15q-1 -2 -5 -9.5t-10.5 -12.5t-16.5 -5q-19 0 -19 17zM482 27q14 0 36 8l-3 -18q-36 -27 -84 -27q-26 0 -39.5 15t-13.5 43q0 13 3 26q-29 -35 -78.5 -59.5t-102.5 -24.5q-69 0 -104.5 27.5t-35.5 76.5q0 15 3 31l55 268q1 3 1 7q0 15 -16 15
q-5 0 -15 -3t-16 -5l-2 22l130 45h24l-68 -337q-4 -16 -4 -34q0 -36 21.5 -54t59.5 -18q33 0 67.5 17t62 50t38.5 80l44 215q1 3 1 7q0 15 -16 15q-5 0 -15 -3t-16 -5l-2 22l130 45h24l-84 -416q-2 -10 -2 -14q0 -17 17 -17z" />
    <glyph glyph-name="uhorn" unicode="&#x1b0;" horiz-adv-x="580" 
d="M94 17.5q-35 27.5 -35 76.5q0 15 3 31l55 268q1 2 1 6q0 8 -5 11.5t-11 3.5q-8 0 -30 -8l-3 22l130 45h25l-68 -336q-4 -17 -4 -34q0 -36 21 -54.5t60 -18.5q33 0 68 17t62.5 50.5t36.5 80.5l44 215q1 2 1 7q0 14 -17 14q-6 0 -30 -8l-2 22l133 45h21l-17 -85
q35 19 61 43.5t32 51.5q2 8 0 14.5t-4.5 11.5l-3.5 7q-9 18 -9 28q0 23 16 38.5t38 15.5q18 0 28 -12t10 -32q0 -7 -2 -21q-11 -56 -59.5 -101.5t-111.5 -68.5l-61 -301q-2 -10 -2 -13q0 -23 25 -23q15 0 30 6l-3 -17q-18 -12 -42.5 -18.5t-49.5 -6.5t-38 13.5t-13 38.5
q0 5 2 19l3 13q-28 -36 -77 -60t-105 -24q-68 0 -103 27.5z" />
    </font>
</defs>
</svg>
